<svg width="85" height="20" viewBox="0 0 85 20" fill="none" xmlns="http://www.w3.org/2000/svg">
<g clip-path="url(#clip0_1_4650)">
<path d="M81.7488 7.50129C81.3088 7.50129 80.8948 7.41523 80.5116 7.24474C80.1267 7.07425 79.7906 6.83556 79.5016 6.5303C79.2126 6.22504 78.9869 5.86944 78.8229 5.46513C78.6589 5.0592 78.5777 4.62242 78.5777 4.15154C78.5777 3.68065 78.6589 3.24387 78.8229 2.83956C78.9869 2.43525 79.2126 2.0829 79.5016 1.77764C79.7906 1.47401 80.1267 1.23694 80.5116 1.06645C80.8948 0.895957 81.3088 0.811523 81.7488 0.811523C82.1889 0.811523 82.5981 0.895957 82.9829 1.06645C83.3677 1.23694 83.7038 1.47238 83.9945 1.77764C84.2851 2.08128 84.5124 2.43525 84.6764 2.83956C84.8404 3.24387 84.9216 3.68065 84.9216 4.15154C84.9216 4.62242 84.8404 5.06082 84.6764 5.46513C84.5124 5.86944 84.2851 6.22504 83.9928 6.5303C83.7006 6.83556 83.3628 7.07425 82.9813 7.24474C82.5964 7.41523 82.1872 7.50129 81.7488 7.50129ZM81.7488 6.93299C82.1126 6.93299 82.4519 6.86154 82.7685 6.72028C83.0852 6.57901 83.3612 6.38092 83.6015 6.12762C83.8418 5.87431 84.0286 5.57879 84.165 5.24268C84.3013 4.90657 84.3679 4.54123 84.3679 4.14829C84.3679 3.75535 84.2997 3.39001 84.165 3.05552C84.0302 2.72103 83.8418 2.42713 83.6015 2.17546C83.3612 1.92378 83.0835 1.72731 82.7685 1.58767C82.4519 1.44965 82.1126 1.37983 81.7488 1.37983C81.3851 1.37983 81.0409 1.44965 80.7226 1.58929C80.406 1.72893 80.1267 1.9254 79.8864 2.17708C79.6461 2.42876 79.4594 2.72265 79.3262 3.06039C79.1931 3.39813 79.1249 3.76022 79.1249 4.15154C79.1249 4.54286 79.1931 4.90982 79.3279 5.24593C79.4626 5.58204 79.651 5.87756 79.8913 6.13086C80.1316 6.38416 80.4093 6.58226 80.7275 6.72352C81.0458 6.86317 81.3851 6.93299 81.7488 6.93299ZM80.4255 5.99447V2.19657H81.6855C82.132 2.19657 82.486 2.30048 82.7474 2.5067C83.0072 2.71453 83.1388 3.00518 83.1388 3.38026C83.1388 3.54751 83.0998 3.69202 83.0218 3.8138C82.9439 3.93558 82.827 4.04275 82.6695 4.1353C82.827 4.23435 82.9423 4.36424 83.0154 4.52824C83.0884 4.69224 83.1241 4.88384 83.1241 5.10467V5.35472C83.1241 5.4765 83.129 5.58691 83.1404 5.68271C83.1501 5.78014 83.1712 5.8597 83.2005 5.9214V5.99285H82.5039C82.4763 5.93114 82.46 5.83859 82.4552 5.71844C82.4487 5.59828 82.447 5.47488 82.447 5.34985V5.10791C82.447 4.89683 82.3967 4.74095 82.2977 4.64028C82.1986 4.54123 82.0362 4.4909 81.8122 4.4909H81.1058V5.99285L80.4255 5.99447ZM81.1058 3.882H81.6725C81.8934 3.88524 82.0801 3.84303 82.2327 3.75535C82.387 3.66766 82.4633 3.54101 82.4633 3.37864C82.4633 3.16431 82.4048 3.01493 82.2895 2.92887C82.1726 2.84443 81.9729 2.80222 81.6871 2.80222H81.1058V3.882Z" fill="white"/>
</g>
<path d="M19.9627 1.21445V19.4312H15.9394V17.8647C14.237 19.067 12.2254 19.7228 9.98158 19.7228C4.48798 19.7228 0 15.4967 0 10.3228C0 5.14894 4.48798 0.922852 9.98158 0.922852C12.2254 0.922852 14.276 1.65166 15.9394 2.81768V1.21445H19.9627ZM9.98117 15.7149C13.1924 15.7149 15.7073 13.3466 15.7073 10.3224C15.7073 7.2983 13.1924 4.93034 9.98117 4.93034C6.76991 4.93034 4.25544 7.29868 4.25544 10.3224C4.25544 13.3462 6.77031 15.7149 9.98117 15.7149Z" fill="white"/>
<path d="M37.6126 1.2002C35.3957 7.29491 33.1403 13.3529 30.8852 19.4472H27.5212C25.3042 13.3525 23.0869 7.29453 20.8323 1.2002H25.3808C26.4891 4.55744 27.5216 7.95143 28.6679 11.2727L29.127 12.6229C29.127 12.696 29.1651 12.7687 29.2032 12.8418C29.356 12.696 29.5857 11.747 29.7766 11.3454L33.0641 1.23656C34.5929 1.23656 36.0837 1.2002 37.6126 1.2002Z" fill="white"/>
<path d="M76.6686 1.21445V19.4312H72.6453V17.8647C70.9433 19.067 68.9312 19.7228 66.6874 19.7228C61.1938 19.7228 56.7058 15.4967 56.7058 10.3228C56.7058 5.14894 61.1938 0.922852 66.6874 0.922852C68.9312 0.922852 70.9818 1.65166 72.6453 2.81768V1.21445H76.6686ZM66.6874 15.7149C69.8983 15.7149 72.4131 13.3466 72.4131 10.3224C72.4131 7.2983 69.8987 4.93034 66.6874 4.93034C63.4762 4.93034 60.9613 7.29868 60.9613 10.3224C60.9613 13.3462 63.4757 15.7149 66.6874 15.7149Z" fill="white"/>
<path d="M55.5114 11.1952V1.2002H51.2241V11.8792C51.2241 14.5481 49.2154 15.684 46.9745 15.684C44.7337 15.684 42.729 13.8564 42.729 11.6594V1.20058H38.4794V11.9191C38.4794 12.0764 38.4835 12.2294 38.492 12.3829C38.633 14.6938 39.7951 16.7497 41.5673 18.1411C41.5754 18.1449 41.5798 18.1488 41.5879 18.1568C43.0612 19.3085 44.9536 20.0002 47.0163 20.0002C48.643 20.0002 50.1661 19.5678 51.457 18.8171C53.7064 17.52 55.2712 15.2601 55.5118 12.6422C55.5365 12.4063 55.549 12.1627 55.549 11.9191C55.549 11.6755 55.5365 11.4319 55.5118 11.1959L55.5114 11.1952Z" fill="white"/>
<defs>
<clipPath id="clip0_1_4650">
<rect width="8.3135" height="8.3135" fill="white" transform="translate(76.6684)"/>
</clipPath>
</defs>
</svg>
