<svg width="60" height="60" viewBox="0 0 60 60" fill="none" xmlns="http://www.w3.org/2000/svg">
<g clip-path="url(#clip0_1_4517)">
<rect width="59.9978" height="60" rx="17.2119" fill="white"/>
<g filter="url(#filter0_f_1_4517)">
<path d="M59.4781 59.8735C59.4781 70.1501 70.6524 59.8735 59.4781 59.8735C48.3037 59.8735 4.44446 70.1501 4.44446 59.8735C4.44446 49.5968 34.8073 76.4244 45.5556 22.2228C56.3039 -31.9788 59.4781 49.5968 59.4781 59.8735Z" fill="#8248FF" fill-opacity="0.46"/>
</g>
<path fill-rule="evenodd" clip-rule="evenodd" d="M22.2885 17.8735C22.1622 17.6547 22.2371 17.3759 22.4558 17.2487C22.5609 17.1882 22.6857 17.1719 22.8028 17.2034C22.9199 17.2349 23.0197 17.3116 23.0803 17.4167L23.7519 18.5796C23.9284 18.8854 23.7054 19.2653 23.3564 19.2653C23.2761 19.2654 23.1971 19.2444 23.1275 19.2043C23.0579 19.1642 23.0001 19.1065 22.9599 19.0369L22.2885 17.8735ZM16.934 22.7714C16.9639 22.7193 17.0038 22.6737 17.0515 22.6371C17.0991 22.6005 17.1534 22.5736 17.2114 22.5581C17.2695 22.5425 17.33 22.5385 17.3895 22.5464C17.449 22.5542 17.5065 22.5738 17.5584 22.6038L18.7216 23.2753C19.1256 23.5086 18.9574 24.1281 18.4926 24.1281C18.4125 24.1282 18.3339 24.1072 18.2645 24.0673L17.1013 23.3955C16.8826 23.269 16.8077 22.9895 16.934 22.7714ZM45.0846 30.3141C45.0847 30.3741 45.0728 30.4336 45.0499 30.4891C45.0269 30.5446 44.9933 30.595 44.9508 30.6374C44.9084 30.6799 44.858 30.7136 44.8025 30.7366C44.747 30.7595 44.6875 30.7714 44.6275 30.7714H43.2844C43.2244 30.7714 43.1649 30.7595 43.1095 30.7366C43.054 30.7136 43.0036 30.6799 42.9611 30.6374C42.9187 30.595 42.885 30.5446 42.862 30.4891C42.8391 30.4336 42.8273 30.3741 42.8273 30.3141C42.8273 30.2541 42.8391 30.1946 42.8621 30.1392C42.885 30.0837 42.9187 30.0333 42.9612 29.9909C43.0036 29.9485 43.054 29.9148 43.1095 29.8919C43.165 29.869 43.2244 29.8572 43.2844 29.8572H44.6275C44.6875 29.8572 44.747 29.869 44.8024 29.8919C44.8579 29.9148 44.9083 29.9485 44.9508 29.9909C44.9932 30.0333 45.0269 30.0837 45.0499 30.1392C45.0728 30.1946 45.0846 30.2541 45.0846 30.3141ZM16.7129 30.7714H15.37C15.3099 30.7714 15.2505 30.7595 15.195 30.7366C15.1395 30.7136 15.0891 30.6799 15.0467 30.6374C15.0042 30.595 14.9705 30.5446 14.9476 30.4891C14.9246 30.4336 14.9128 30.3741 14.9128 30.3141C14.9128 30.2541 14.9247 30.1946 14.9476 30.1392C14.9706 30.0837 15.0043 30.0334 15.0467 29.9909C15.0892 29.9485 15.1396 29.9149 15.195 29.8919C15.2505 29.869 15.3099 29.8572 15.37 29.8572H16.7129C16.7729 29.8572 16.8324 29.869 16.8879 29.8919C16.9433 29.9148 16.9937 29.9485 17.0362 29.9909C17.0787 30.0333 17.1124 30.0837 17.1353 30.1392C17.1583 30.1946 17.1702 30.2541 17.1702 30.3141C17.1702 30.3741 17.1584 30.4336 17.1354 30.4891C17.1124 30.5446 17.0787 30.595 17.0363 30.6375C16.9938 30.6799 16.9434 30.7136 16.8879 30.7366C16.8324 30.7596 16.773 30.7714 16.7129 30.7714ZM41.1086 23.8997C41.0786 23.8477 41.0591 23.7903 41.0512 23.7308C41.0434 23.6713 41.0474 23.6108 41.0629 23.5528C41.0784 23.4949 41.1052 23.4405 41.1417 23.3929C41.1783 23.3452 41.2238 23.3053 41.2758 23.2753L42.4391 22.6038C42.4911 22.5738 42.5485 22.5542 42.608 22.5464C42.6676 22.5385 42.7281 22.5425 42.7861 22.5581C42.8441 22.5736 42.8985 22.6005 42.9461 22.6371C42.9937 22.6737 43.0336 22.7193 43.0636 22.7714C43.1898 22.9895 43.1148 23.269 42.8962 23.3954L41.7331 24.0672C41.5175 24.1912 41.2363 24.121 41.1086 23.8997ZM29.5415 17.0284V15.6855C29.5414 15.6255 29.5532 15.566 29.5762 15.5105C29.5992 15.455 29.6328 15.4046 29.6753 15.3621C29.7178 15.3196 29.7682 15.286 29.8237 15.263C29.8792 15.24 29.9387 15.2282 29.9987 15.2283C30.0588 15.2282 30.1182 15.2401 30.1737 15.263C30.2292 15.286 30.2796 15.3197 30.3221 15.3621C30.3645 15.4046 30.3982 15.455 30.4212 15.5105C30.4441 15.566 30.4559 15.6255 30.4559 15.6855V17.0283C30.4558 17.1496 30.4077 17.2658 30.3219 17.3516C30.2362 17.4373 30.12 17.4855 29.9987 17.4856C29.8775 17.4856 29.7612 17.4374 29.6755 17.3516C29.5897 17.2659 29.5415 17.1496 29.5415 17.0284ZM36.2457 18.5796L36.9172 17.4167C36.9777 17.3116 37.0775 17.2349 37.1946 17.2034C37.3117 17.1719 37.4366 17.1882 37.5416 17.2487C37.7603 17.3758 37.8353 17.6547 37.709 17.8735L37.0374 19.0369C36.9097 19.2582 36.628 19.3284 36.413 19.2044C36.308 19.1437 36.2314 19.0438 36.2 18.9266C36.1686 18.8095 36.1851 18.6847 36.2457 18.5796ZM27.7483 21.4902C27.7483 21.2213 27.9672 21.0025 28.2361 21.0025H31.7613C32.0303 21.0025 32.2492 21.2213 32.2492 21.4902V22.5495H27.7483V21.4902ZM36.1875 24.1886V25.0803L30.8524 27.9382C30.3018 28.2333 29.6956 28.2333 29.1451 27.9382L23.81 25.0803V24.1886C23.81 23.7891 24.1351 23.4636 24.5347 23.4636H35.4626C35.8622 23.4636 36.1875 23.7891 36.1875 24.1886ZM35.4626 31.9031C35.8622 31.9031 36.1874 31.5779 36.1874 31.1785V26.1177L31.284 28.744C30.4554 29.1878 29.542 29.1877 28.7134 28.744L23.81 26.1177V31.1785C23.81 31.578 24.135 31.9031 24.5346 31.9031H35.4626ZM22.8956 24.1886V31.1785C22.8956 32.0818 23.6309 32.8176 24.5346 32.8176H35.4625C36.3664 32.8176 37.1016 32.0818 37.1016 31.1785V24.1886C37.1016 23.2852 36.3664 22.5495 35.4625 22.5495H33.1634V21.4902C33.1634 20.7171 32.5344 20.0881 31.7613 20.0881H28.2361C27.463 20.0881 26.834 20.7171 26.834 21.4902V22.5495H24.5347C23.631 22.5495 22.8956 23.2852 22.8956 24.1886ZM41.6676 37.0093L34.6472 41.0629C32.786 42.1372 31.6826 42.6769 29.6108 42.9828C27.4218 43.306 25.2429 43.1395 23.2145 42.9119C22.2949 42.809 21.4542 42.7308 20.6034 42.67V36.7478C22.3119 36.5883 23.8146 36.6137 25.7388 37.1284C25.7773 37.1384 25.817 37.1434 25.8568 37.1434H30.8095C31.5631 37.1434 32.0684 37.913 31.7843 38.598C31.6193 38.9951 31.2367 39.2524 30.8095 39.2524H25.8568C25.7967 39.2524 25.7373 39.2642 25.6818 39.2872C25.6263 39.3101 25.5759 39.3438 25.5334 39.3863C25.491 39.4287 25.4573 39.4792 25.4343 39.5347C25.4114 39.5902 25.3996 39.6496 25.3997 39.7097C25.3997 39.7697 25.4115 39.8291 25.4345 39.8846C25.4575 39.94 25.4912 39.9904 25.5336 40.0328C25.5761 40.0752 25.6265 40.1089 25.6819 40.1318C25.7374 40.1548 25.7968 40.1666 25.8568 40.1665H30.8095C31.4722 40.1665 32.0761 39.8364 32.438 39.3006C32.6082 39.3322 32.7776 39.3488 32.9443 39.3496C33.7429 39.352 34.1442 39.0476 34.6985 38.7271L40.6689 35.2803C41.1457 35.0049 41.7577 35.1686 42.0331 35.6455C42.3085 36.1226 42.1445 36.7343 41.6676 37.0093ZM19.6892 43.4361C19.6892 43.5477 19.6448 43.6546 19.566 43.7335C19.4871 43.8123 19.3802 43.8567 19.2687 43.8568H17.2141C17.1026 43.8567 16.9956 43.8123 16.9168 43.7335C16.8379 43.6546 16.7936 43.5477 16.7936 43.4361V36.4516C16.7936 36.3401 16.8379 36.2331 16.9168 36.1543C16.9956 36.0754 17.1026 36.031 17.2141 36.031H19.2687C19.3802 36.031 19.4871 36.0754 19.566 36.1543C19.6448 36.2331 19.6892 36.3401 19.6892 36.4516V43.4361ZM40.2118 34.4882L34.2414 37.9351C33.695 38.2508 33.408 38.4905 32.7652 38.4254C32.9009 37.2593 31.9863 36.2294 30.8096 36.2294H25.9166C23.8662 35.6885 22.2731 35.6685 20.4562 35.8434C20.2345 35.4123 19.7857 35.1169 19.2686 35.1169H17.2141C16.478 35.1169 15.8793 35.7155 15.8793 36.4516V43.4361C15.8793 44.1726 16.478 44.7713 17.2141 44.7713H19.2687C19.9541 44.7713 20.5201 44.2517 20.5949 43.586C21.4139 43.6457 22.2259 43.7216 23.1129 43.8209C25.3016 44.0661 27.5023 44.2182 29.7443 43.8872C32.0491 43.547 33.3069 42.8926 35.1044 41.8544L42.1248 37.8009C43.0383 37.2739 43.3523 36.1017 42.8248 35.188C42.2974 34.2748 41.1253 33.9605 40.2118 34.4882Z" fill="#6622FB"/>
</g>
<rect x="0.717162" y="0.717162" width="58.5635" height="58.5657" rx="16.4947" stroke="url(#paint0_linear_1_4517)" stroke-width="1.43432"/>
<defs>
<filter id="filter0_f_1_4517" x="-32.2222" y="-32.8774" width="133.333" height="133.985" filterUnits="userSpaceOnUse" color-interpolation-filters="sRGB">
<feFlood flood-opacity="0" result="BackgroundImageFix"/>
<feBlend mode="normal" in="SourceGraphic" in2="BackgroundImageFix" result="shape"/>
<feGaussianBlur stdDeviation="18.3333" result="effect1_foregroundBlur_1_4517"/>
</filter>
<linearGradient id="paint0_linear_1_4517" x1="29.9989" y1="0" x2="29.9989" y2="60" gradientUnits="userSpaceOnUse">
<stop stop-color="#DFD0FF"/>
<stop offset="0.264423" stop-color="#F5EFFF"/>
</linearGradient>
<clipPath id="clip0_1_4517">
<rect width="59.9978" height="60" rx="17.2119" fill="white"/>
</clipPath>
</defs>
</svg>
