<svg width="60" height="60" viewBox="0 0 60 60" fill="none" xmlns="http://www.w3.org/2000/svg">
<g clip-path="url(#clip0_1_4478)">
<rect width="59.9978" height="60" rx="17.2119" fill="white"/>
<g filter="url(#filter0_f_1_4478)">
<path d="M59.4781 59.8735C59.4781 70.1501 70.6524 59.8735 59.4781 59.8735C48.3037 59.8735 4.44446 70.1501 4.44446 59.8735C4.44446 49.5968 34.8073 76.4244 45.5556 22.2228C56.3039 -31.9788 59.4781 49.5968 59.4781 59.8735Z" fill="#8248FF" fill-opacity="0.46"/>
</g>
<g clip-path="url(#clip1_1_4478)">
<path d="M42.744 41.2414C42.29 40.674 41.7086 40.2207 41.0583 39.9156C41.6411 39.234 41.9949 38.3502 41.9949 37.3842C41.9949 35.2352 40.2466 33.4869 38.0976 33.4869C35.9474 33.4869 34.1983 35.2352 34.1983 37.3842C34.1983 38.3495 34.5515 39.2327 35.1342 39.9143C34.7406 40.0976 34.3743 40.3349 34.0461 40.6193C33.7176 40.3355 33.3518 40.0985 32.9606 39.915C33.5434 39.2334 33.8972 38.3495 33.8972 37.3835C33.8972 35.9362 33.1035 34.6718 31.9292 33.9996V28.6656H33.5574C33.7737 28.6656 33.9687 28.5354 34.0514 28.3358C34.1342 28.1362 34.0882 27.9059 33.9353 27.753L30.3778 24.1955C30.3281 24.1458 30.2691 24.1064 30.2042 24.0795C30.1394 24.0526 30.0698 24.0388 29.9996 24.0388C29.9293 24.0388 29.8598 24.0526 29.7949 24.0795C29.73 24.1064 29.671 24.1458 29.6214 24.1955L26.0639 27.753C25.989 27.8278 25.938 27.9231 25.9174 28.0268C25.8967 28.1305 25.9073 28.2381 25.9477 28.3358C25.9882 28.4335 26.0568 28.5169 26.1447 28.5756C26.2326 28.6343 26.336 28.6656 26.4417 28.6656H28.0699V34.0002C26.8943 34.6725 26.0999 35.9369 26.0999 37.3848C26.0999 38.3502 26.4537 39.234 27.0365 39.9163C26.6442 40.1006 26.279 40.3378 25.951 40.6213C25.6232 40.3365 25.2572 40.099 24.8636 39.9156C25.4464 39.234 25.7988 38.3502 25.7988 37.3855C25.7988 35.2366 24.0504 33.4882 21.9015 33.4882C19.7512 33.4882 18.0022 35.2366 18.0022 37.3855C18.0022 38.3508 18.356 39.2347 18.9388 39.917C18.2833 40.2245 17.7068 40.6778 17.2532 41.2421C16.5903 42.0699 16.2251 43.1073 16.2251 44.1641V45.9786C16.2251 46.5927 16.7244 47.0921 17.3386 47.0921H42.6558C43.27 47.0921 43.7694 46.5927 43.7694 45.9786V44.1641C43.772 43.1067 43.4069 42.0692 42.744 41.2414ZM38.0976 34.5563C39.6571 34.5563 40.9255 35.8247 40.9255 37.3842C40.9255 38.945 39.6571 40.214 38.0976 40.214C36.5368 40.214 35.2678 38.9443 35.2678 37.3842C35.2678 35.8254 36.5368 34.5563 38.0976 34.5563ZM28.6053 27.5968H27.7328L29.9999 25.3297L32.267 27.5968H31.3945C31.0994 27.5968 30.8597 27.8358 30.8597 28.1315V33.585C30.5827 33.5222 30.295 33.4882 29.9999 33.4882C29.7042 33.4882 29.4164 33.5222 29.1401 33.585V28.1322C29.1401 27.8358 28.9011 27.5968 28.6053 27.5968ZM29.9999 34.5563C31.5594 34.5563 32.8278 35.8247 32.8278 37.3842C32.8278 38.945 31.5594 40.214 29.9999 40.214C28.4391 40.214 27.17 38.9443 27.17 37.3842C27.17 35.8254 28.4398 34.5563 29.9999 34.5563ZM21.9028 34.5563C23.4623 34.5563 24.7307 35.8247 24.7307 37.3842C24.7307 38.945 23.4623 40.214 21.9028 40.214C20.3421 40.214 19.073 38.9443 19.073 37.3842C19.073 35.8254 20.3421 34.5563 21.9028 34.5563ZM17.2959 45.9779V44.1634C17.2959 42.5853 18.362 41.1653 19.8601 40.7047C20.4549 41.0719 21.1545 41.2842 21.9028 41.2842C22.6512 41.2842 23.3508 41.0719 23.945 40.704C24.4155 40.8481 24.8515 41.0872 25.2261 41.4063C24.6433 42.2048 24.3242 43.1754 24.3242 44.1628V45.9772C24.3242 45.9919 24.3255 46.0066 24.3262 46.022H17.3406C17.3173 46.0226 17.2959 46.0006 17.2959 45.9779ZM33.5354 46.0226H32.9973V44.3263C32.9973 44.0312 32.7583 43.7916 32.4626 43.7916C32.1669 43.7916 31.9279 44.0306 31.9279 44.3263V46.0226H28.0733V44.3263C28.0733 44.0312 27.8343 43.7916 27.5385 43.7916C27.2428 43.7916 27.0038 44.0306 27.0038 44.3263V46.0226H25.4383C25.4156 46.0226 25.3936 46.0013 25.3936 45.9779V44.1634C25.3936 42.5853 26.4597 41.1653 27.9578 40.7047C28.5526 41.0719 29.2522 41.2842 30.0006 41.2842C30.7489 41.2842 31.4479 41.0719 32.042 40.7047C33.5401 41.166 34.6055 42.5853 34.6055 44.1634V45.9779C34.6055 46.0013 34.5855 46.0226 34.5628 46.0226H33.5354ZM42.7026 45.9779C42.7026 46.0013 42.6819 46.0226 42.6579 46.0226H35.6723C35.673 46.0079 35.6743 45.9933 35.6743 45.9779V44.1634C35.6743 43.1761 35.3552 42.2048 34.7724 41.4063C35.1475 41.0875 35.5836 40.8486 36.0542 40.704C36.649 41.0712 37.3486 41.2842 38.097 41.2842C38.8453 41.2842 39.5443 41.0719 40.1384 40.7047C41.6365 41.166 42.7019 42.5853 42.7019 44.1634V45.9779H42.7026ZM29.9999 23.2989C32.8638 23.2989 35.1937 20.9691 35.1937 18.1052C35.1937 15.2406 32.8638 12.9094 29.9999 12.9094C27.1353 12.9094 24.8041 15.2399 24.8041 18.1052C24.8048 20.9691 27.1353 23.2989 29.9999 23.2989ZM29.9999 13.9789C32.2743 13.9789 34.1242 15.8301 34.1242 18.1052C34.1242 20.3796 32.2743 22.2295 29.9999 22.2295C27.7248 22.2295 25.8736 20.3796 25.8736 18.1052C25.8736 15.8301 27.7248 13.9789 29.9999 13.9789ZM27.2321 18.2601C27.0232 18.0511 27.0232 17.7126 27.2321 17.5037C27.4411 17.2947 27.7795 17.2947 27.9885 17.5037L29.3517 18.8669L32.0106 16.2079C32.2196 15.999 32.5581 15.999 32.767 16.2079C32.976 16.4169 32.976 16.7553 32.767 16.9643L29.7295 20.0018C29.6254 20.1059 29.4885 20.1587 29.3517 20.1587C29.2148 20.1587 29.078 20.1066 28.9738 20.0018L27.2321 18.2601Z" fill="#6622FB"/>
</g>
</g>
<rect x="0.717162" y="0.717162" width="58.5635" height="58.5657" rx="16.4947" stroke="url(#paint0_linear_1_4478)" stroke-width="1.43432"/>
<defs>
<filter id="filter0_f_1_4478" x="-32.2222" y="-32.8774" width="133.333" height="133.985" filterUnits="userSpaceOnUse" color-interpolation-filters="sRGB">
<feFlood flood-opacity="0" result="BackgroundImageFix"/>
<feBlend mode="normal" in="SourceGraphic" in2="BackgroundImageFix" result="shape"/>
<feGaussianBlur stdDeviation="18.3333" result="effect1_foregroundBlur_1_4478"/>
</filter>
<linearGradient id="paint0_linear_1_4478" x1="29.9989" y1="0" x2="29.9989" y2="60" gradientUnits="userSpaceOnUse">
<stop stop-color="#DFD0FF"/>
<stop offset="0.264423" stop-color="#F5EFFF"/>
</linearGradient>
<clipPath id="clip0_1_4478">
<rect width="59.9978" height="60" rx="17.2119" fill="white"/>
</clipPath>
<clipPath id="clip1_1_4478">
<rect width="34.18" height="34.18" fill="white" transform="translate(12.9089 12.9099)"/>
</clipPath>
</defs>
</svg>
