<svg width="60" height="60" viewBox="0 0 60 60" fill="none" xmlns="http://www.w3.org/2000/svg">
<g clip-path="url(#clip0_1_4508)">
<rect width="59.9978" height="60" rx="17.2119" fill="white"/>
<g filter="url(#filter0_f_1_4508)">
<path d="M59.4781 59.8735C59.4781 70.1501 70.6524 59.8735 59.4781 59.8735C48.3037 59.8735 4.44446 70.1501 4.44446 59.8735C4.44446 49.5968 34.8073 76.4244 45.5556 22.2228C56.3039 -31.9788 59.4781 49.5968 59.4781 59.8735Z" fill="#8248FF" fill-opacity="0.46"/>
</g>
<g clip-path="url(#clip1_1_4508)">
<path fill-rule="evenodd" clip-rule="evenodd" d="M22.0185 43.2894L22.4857 44.115C22.486 44.1154 22.4862 44.1159 22.4865 44.1163C22.86 44.7806 22.6232 45.6283 21.9626 46.0013L20.3613 46.9089C20.3608 46.9093 20.3602 46.9096 20.3597 46.9099C19.6953 47.2833 18.8477 47.0466 18.4745 46.3857L13.7654 38.0649C13.3886 37.4001 13.6254 36.5517 14.2867 36.1781L15.8899 35.2705L15.8904 35.2702C16.5514 34.8969 17.3994 35.1316 17.7758 35.7926L17.7765 35.7938L18.1584 36.4688L22.3729 34.0287C23.6275 33.3032 24.9091 32.8281 26.2871 33.2755C27.636 33.7129 29.8383 34.6556 32.0858 35.0617C32.1097 35.066 32.1334 35.0719 32.1566 35.0795C33.278 35.4426 33.9604 36.5761 33.6542 37.7148C33.6016 37.9105 33.53 38.0908 33.4405 38.2539C33.7063 38.1839 33.9658 38.0764 34.2206 37.928L39.9306 34.6024C41.9812 33.4078 43.3476 33.5326 44.1215 34.0518C44.7841 34.4964 45.0906 35.2555 45.0707 36.0006C45.0508 36.7531 44.6931 37.4723 44.103 37.8357L33.742 44.2148C32.6579 44.8839 31.4704 45.0409 30.2401 44.7127L30.2396 44.7125L22.9413 42.7565L22.0185 43.2894ZM18.6939 37.4149L21.483 42.3432L22.5927 41.7024C22.6545 41.6667 22.7227 41.6436 22.7935 41.6342C22.8643 41.6249 22.9362 41.6296 23.0052 41.6481L30.5206 43.6623C31.4515 43.9106 32.3507 43.796 33.171 43.2896L33.1715 43.2894L43.5329 36.91C43.8072 36.741 43.9508 36.4019 43.9795 36.0542C44.0237 35.5187 43.7718 34.9279 43.1095 34.7891C42.5009 34.6617 41.644 34.8625 40.4778 35.5419L34.768 38.8673C33.8574 39.398 32.9029 39.5445 31.8627 39.3789L31.8609 39.3787L31.1529 39.2635L31.1522 39.2634C31.1449 39.2621 31.1376 39.2608 31.1303 39.2593L31.1295 39.2591C29.8414 38.9948 28.6467 38.6055 27.3211 38.2493C27.0313 38.1714 26.8593 37.873 26.9372 37.5833C27.015 37.2935 27.3135 37.1215 27.6032 37.1993C28.8994 37.5477 30.0677 37.9297 31.3261 38.1896C31.978 38.2623 32.4543 37.9909 32.6042 37.4327L32.6043 37.4325C32.7563 36.8671 32.4025 36.3183 31.853 36.1244C29.5649 35.7047 27.3251 34.755 25.9516 34.3096L25.9514 34.3096C24.8779 33.961 23.8946 34.4046 22.9172 34.9698L18.6939 37.4149ZM16.8309 36.3303L16.8305 36.3296C16.7491 36.1879 16.5672 36.1366 16.4251 36.2168L14.8223 37.1242L14.8219 37.1245C14.6801 37.2045 14.6305 37.3865 14.7112 37.5288L14.7114 37.5292L19.4206 45.8503L19.4209 45.8507C19.5011 45.9928 19.6836 46.0424 19.8264 45.9625L21.4266 45.0555L21.4273 45.0551C21.5694 44.9748 21.6191 44.7923 21.539 44.6494L16.8309 36.3303ZM16.2093 37.2174C16.5728 37.1633 16.9103 37.4142 16.9643 37.7777C17.0163 38.1411 16.7653 38.4807 16.4019 38.5326C16.0384 38.5867 15.7009 38.3336 15.6468 37.9702C15.5949 37.6067 15.8458 37.2693 16.2093 37.2174ZM25.4459 19.3083C25.4459 19.2129 25.471 19.1192 25.5187 19.0365C25.5664 18.9539 25.635 18.8853 25.7177 18.8376L28.5704 17.1905L30.9007 15.8453L33.7534 14.1982C33.8361 14.1505 33.9298 14.1254 34.0252 14.1254C34.1206 14.1254 34.2144 14.1505 34.297 14.1982L42.3328 18.8376C42.4154 18.8853 42.484 18.9539 42.5317 19.0366C42.5794 19.1192 42.6045 19.2129 42.6045 19.3083V28.5871C42.6045 28.6826 42.5794 28.7763 42.5317 28.8589C42.484 28.9416 42.4154 29.0102 42.3328 29.0579L34.297 33.6973C34.2144 33.745 34.1206 33.7701 34.0252 33.7701C33.9298 33.7701 33.8361 33.745 33.7534 33.6973L25.7177 29.0579C25.635 29.0102 25.5664 28.9416 25.5187 28.8589C25.471 28.7763 25.4459 28.6826 25.4459 28.5871V19.3083ZM28.8422 18.289L27.0767 19.3083L34.0252 23.32L35.7908 22.3007L28.8422 18.289ZM31.1724 16.9437L29.9294 17.6613L36.878 21.673L38.121 20.9554L31.1724 16.9437ZM40.9738 19.3083L34.0252 15.2967L32.2596 16.316L39.2081 20.3277L40.9738 19.3083ZM34.5688 32.285L41.5174 28.2733V20.2498L39.7518 21.2692V24.6098C39.7518 24.7052 39.7267 24.799 39.679 24.8816C39.6313 24.9643 39.5626 25.0329 39.48 25.0806L37.1497 26.4258C37.0671 26.4736 36.9733 26.4987 36.8779 26.4987C36.7825 26.4987 36.6887 26.4736 36.6061 26.4259C36.5234 26.3782 36.4548 26.3095 36.4071 26.2269C36.3594 26.1442 36.3343 26.0504 36.3344 25.955V23.2422L34.5688 24.2616V32.285ZM26.5331 20.2498V28.2733L33.4816 32.285V24.2616L26.5331 20.2498ZM38.6646 21.8969L37.4216 22.6145V25.0136L38.6646 24.296V21.8969ZM41.4598 16.0314C41.4224 16.1706 41.3313 16.2893 41.2065 16.3614C41.0817 16.4334 40.9333 16.453 40.7941 16.4158C40.6548 16.3784 40.5362 16.2873 40.4641 16.1624C40.392 16.0376 40.3724 15.8893 40.4097 15.75L40.9354 13.7878C40.9728 13.6486 41.0639 13.5299 41.1887 13.4579C41.3136 13.3858 41.4619 13.3662 41.6012 13.4035C41.7404 13.4408 41.8591 13.5319 41.9312 13.6568C42.0032 13.7816 42.0228 13.93 41.9855 14.0692L41.4598 16.0314ZM44.2374 22.4088C44.0982 22.3713 43.9796 22.28 43.9077 22.1551C43.8357 22.0302 43.8163 21.8818 43.8537 21.7426C43.9317 21.4529 44.2302 21.281 44.5198 21.3589L46.4834 21.8871C46.7731 21.965 46.9451 22.2635 46.8672 22.5532C46.7892 22.843 46.4907 23.0149 46.201 22.9369L44.2374 22.4088ZM44.1685 18.647C44.0436 18.719 43.8952 18.7385 43.756 18.7012C43.6168 18.6639 43.498 18.5728 43.4259 18.448C43.3539 18.3231 43.3344 18.1748 43.3717 18.0355C43.409 17.8963 43.5001 17.7776 43.6249 17.7054L45.3874 16.6879C45.5122 16.6159 45.6606 16.5964 45.7998 16.6337C45.9391 16.671 46.0578 16.7621 46.1299 16.8869C46.2019 17.0117 46.2214 17.1601 46.1841 17.2993C46.1468 17.4385 46.0558 17.5573 45.931 17.6294L44.1685 18.647ZM27.6408 15.75C27.678 15.8893 27.6584 16.0376 27.5864 16.1624C27.5143 16.2873 27.3956 16.3784 27.2564 16.4158C27.1171 16.453 26.9688 16.4334 26.844 16.3614C26.7191 16.2893 26.628 16.1706 26.5906 16.0314L26.0648 14.0692C26.0276 13.93 26.0471 13.7816 26.1192 13.6568C26.1913 13.5319 26.31 13.4408 26.4492 13.4035C26.5885 13.3662 26.7368 13.3858 26.8616 13.4579C26.9865 13.5299 27.0776 13.6486 27.115 13.7878L27.6408 15.75ZM23.5306 21.3589C23.6698 21.3215 23.8181 21.341 23.943 21.4129C24.0679 21.4849 24.1591 21.6034 24.1967 21.7426C24.234 21.8818 24.2146 22.0302 24.1427 22.1551C24.0707 22.28 23.9521 22.3713 23.813 22.4088L21.8494 22.9369C21.5597 23.0149 21.2612 22.843 21.1833 22.5532C21.1053 22.2635 21.2772 21.965 21.567 21.8871L23.5306 21.3589ZM24.4255 17.7054C24.5503 17.7776 24.6414 17.8963 24.6787 18.0355C24.716 18.1748 24.6965 18.3231 24.6245 18.448C24.4745 18.7078 24.1418 18.797 23.8819 18.647L22.1195 17.6294C21.9947 17.5573 21.9036 17.4386 21.8663 17.2993C21.829 17.1601 21.8485 17.0117 21.9205 16.8869C21.9926 16.7621 22.1114 16.671 22.2506 16.6337C22.3898 16.5964 22.5382 16.6159 22.6631 16.6879L24.4255 17.7054Z" fill="#6622FB"/>
</g>
</g>
<rect x="0.717162" y="0.717162" width="58.5635" height="58.5657" rx="16.4947" stroke="url(#paint0_linear_1_4508)" stroke-width="1.43432"/>
<defs>
<filter id="filter0_f_1_4508" x="-32.2222" y="-32.8774" width="133.333" height="133.985" filterUnits="userSpaceOnUse" color-interpolation-filters="sRGB">
<feFlood flood-opacity="0" result="BackgroundImageFix"/>
<feBlend mode="normal" in="SourceGraphic" in2="BackgroundImageFix" result="shape"/>
<feGaussianBlur stdDeviation="18.3333" result="effect1_foregroundBlur_1_4508"/>
</filter>
<linearGradient id="paint0_linear_1_4508" x1="29.9989" y1="0" x2="29.9989" y2="60" gradientUnits="userSpaceOnUse">
<stop stop-color="#DFD0FF"/>
<stop offset="0.264423" stop-color="#F5EFFF"/>
</linearGradient>
<clipPath id="clip0_1_4508">
<rect width="59.9978" height="60" rx="17.2119" fill="white"/>
</clipPath>
<clipPath id="clip1_1_4508">
<rect width="34.18" height="34.18" fill="white" transform="translate(12.9089 12.9099)"/>
</clipPath>
</defs>
</svg>
