<svg width="60" height="60" viewBox="0 0 60 60" fill="none" xmlns="http://www.w3.org/2000/svg">
<g clip-path="url(#clip0_1_4487)">
<rect width="60" height="60" rx="17.2119" fill="white"/>
<g filter="url(#filter0_f_1_4487)">
<path d="M59.4781 59.8735C59.4781 70.1501 70.6524 59.8735 59.4781 59.8735C48.3037 59.8735 4.44446 70.1501 4.44446 59.8735C4.44446 49.5968 34.8073 76.4244 45.5556 22.2228C56.3039 -31.9788 59.4781 49.5968 59.4781 59.8735Z" fill="#8248FF" fill-opacity="0.46"/>
</g>
<path d="M29.999 20.9215C29.3581 20.9215 28.7888 21.2109 28.3968 21.6595L25.6779 20.2998C25.7089 20.1556 25.7265 20.0066 25.7265 19.8533C25.7265 18.6752 24.7684 17.7171 23.5902 17.7171C22.4121 17.7171 21.454 18.6752 21.454 19.8533C21.454 20.3329 21.6185 20.7714 21.8866 21.1281L18.0542 25.9187C17.7803 25.7939 17.483 25.7289 17.182 25.728C16.0039 25.728 15.0458 26.6861 15.0458 27.8643C15.0458 29.0424 16.0039 30.0005 17.182 30.0005C18.3602 30.0005 19.3183 29.0424 19.3183 27.8643C19.3183 27.3847 19.1538 26.9462 18.8857 26.5895L22.7181 21.7989C22.9922 21.9237 23.2897 21.9887 23.5908 21.9896C24.2317 21.9896 24.801 21.7001 25.193 21.2515L27.9119 22.6112C27.8809 22.7554 27.8633 22.9044 27.8633 23.0577C27.8633 24.2358 28.8214 25.194 29.9995 25.194C31.1777 25.194 32.1358 24.2358 32.1358 23.0577C32.1354 22.6209 32.0002 22.1949 31.7486 21.8379L35.4731 17.4922C35.7632 17.6381 36.0831 17.7151 36.4077 17.7171C37.2158 17.7171 37.9117 17.261 38.2743 16.5982L40.6818 17.2001C40.6909 18.3702 41.6442 19.3193 42.8165 19.3193C43.9888 19.3193 44.9527 18.3612 44.9527 17.183C44.9527 16.0049 43.9946 15.0468 42.8165 15.0468C42.009 15.0468 41.3126 15.5029 40.9499 16.1656L38.5424 15.5637C38.5328 14.3936 37.58 13.4446 36.4077 13.4446C35.2355 13.4446 34.2715 14.4027 34.2715 15.5808C34.2715 16.0348 34.4162 16.4546 34.6587 16.8006L30.9341 21.1463C30.6439 21.0004 30.3239 20.9234 29.999 20.9215ZM17.1815 28.9324C16.5924 28.9324 16.1134 28.4533 16.1134 27.8643C16.1134 27.2752 16.5924 26.7961 17.1815 26.7961C17.7706 26.7961 18.2496 27.2752 18.2496 27.8643C18.2496 28.4533 17.7706 28.9324 17.1815 28.9324ZM23.5902 20.9215C23.0012 20.9215 22.5221 20.4424 22.5221 19.8533C22.5221 19.2643 23.0012 18.7852 23.5902 18.7852C24.1793 18.7852 24.6584 19.2643 24.6584 19.8533C24.6584 20.4424 24.1793 20.9215 23.5902 20.9215ZM29.999 24.1258C29.4099 24.1258 28.9309 23.6468 28.9309 23.0577C28.9309 22.4686 29.4099 21.9896 29.999 21.9896C30.5881 21.9896 31.0671 22.4686 31.0671 23.0577C31.0671 23.6468 30.5881 24.1258 29.999 24.1258ZM42.8165 16.1149C43.4056 16.1149 43.8846 16.5939 43.8846 17.183C43.8846 17.7721 43.4056 18.2511 42.8165 18.2511C42.2274 18.2511 41.7484 17.7721 41.7484 17.183C41.7484 16.5939 42.2274 16.1149 42.8165 16.1149ZM36.4077 14.5127C36.9968 14.5127 37.4759 14.9918 37.4759 15.5808C37.4759 16.1699 36.9968 16.649 36.4077 16.649C35.8187 16.649 35.3396 16.1699 35.3396 15.5808C35.3396 14.9918 35.8187 14.5127 36.4077 14.5127ZM25.7265 39.6136C28.6713 39.6136 31.0671 37.2178 31.0671 34.273C31.0671 31.3282 28.6713 28.9324 25.7265 28.9324C22.7817 28.9324 20.3859 31.3282 20.3859 34.273C20.3859 37.2178 22.7817 39.6136 25.7265 39.6136ZM25.7265 38.5455C24.1494 38.5455 22.7721 37.6841 22.0318 36.4093H29.4206C28.6804 37.6841 27.3041 38.5455 25.7265 38.5455ZM29.999 34.273C29.999 34.6426 29.9472 34.9988 29.8585 35.3411H28.9309V31.4564C29.6189 32.2333 29.9988 33.2352 29.999 34.273ZM27.8627 30.5784V35.3411H23.5902V30.5784C24.2387 30.2002 24.9759 30.001 25.7265 30.001C26.4771 30.001 27.2143 30.2002 27.8627 30.5784ZM22.5221 31.4564V35.3411H21.5945C21.5025 34.9925 21.4553 34.6336 21.454 34.273C21.454 33.1937 21.8593 32.2094 22.5221 31.4564Z" fill="#6622FB"/>
<path d="M15.7166 46.5564C16.4782 46.5564 17.1853 46.1783 17.6083 45.5438L20.0233 41.9213C20.1419 41.9565 20.2631 41.98 20.3859 41.98C20.7096 41.98 21.0337 41.8572 21.2799 41.6104L22.0901 40.8003C23.2006 41.4232 24.4527 41.7502 25.726 41.7498C29.1061 41.7498 31.966 39.4934 32.8878 36.4092H46.0204V35.3411H45.4863V23.0576C45.4863 22.916 45.4301 22.7802 45.3299 22.68C45.2298 22.5798 45.0939 22.5236 44.9523 22.5236H40.6798C40.5381 22.5236 40.4023 22.5798 40.3021 22.68C40.202 22.7802 40.1457 22.916 40.1457 23.0576V35.3411H39.0776V28.3983H38.0095V35.3411H34.8051V21.9895H38.0095V26.7961H39.0776V21.4554C39.0776 21.3138 39.0213 21.178 38.9212 21.0778C38.821 20.9777 38.6852 20.9214 38.5435 20.9214H34.271C34.1294 20.9214 33.9935 20.9777 33.8934 21.0778C33.7932 21.178 33.737 21.3138 33.737 21.4554V35.3411H33.1174C33.1676 34.9913 33.2029 34.6366 33.2029 34.2729C33.2029 31.0915 31.2023 28.3758 28.3963 27.2976V25.1939C28.3963 25.0522 28.3401 24.9164 28.2399 24.8162C28.1398 24.7161 28.0039 24.6598 27.8623 24.6598H23.5898C23.4481 24.6598 23.3123 24.7161 23.2121 24.8162C23.112 24.9164 23.0557 25.0522 23.0557 25.1939V27.2976C21.2654 27.9876 19.8073 29.337 18.9808 31.0686H15.0453C14.9037 31.0686 14.7678 31.1248 14.6677 31.225C14.5675 31.3252 14.5112 31.461 14.5112 31.6026V35.3411H13.9772V36.4092H18.5648C18.7223 36.9358 18.9359 37.4378 19.1992 37.9088L18.3859 38.7222C18.2254 38.8837 18.1118 39.0858 18.0573 39.3069C18.0029 39.528 18.0095 39.7597 18.0766 39.9773L14.4557 42.3912C14.144 42.5986 13.8884 42.8798 13.7118 43.2099C13.5351 43.5399 13.4428 43.9085 13.4431 44.2829C13.4438 44.8856 13.6836 45.4635 14.1098 45.8897C14.536 46.3159 15.1139 46.5557 15.7166 46.5564ZM41.2144 23.5917H44.4187V35.3411H41.2144V23.5917ZM24.1244 25.7279H27.3287V26.9734C26.8026 26.8567 26.2654 26.7973 25.7266 26.7961C25.1877 26.7973 24.6505 26.8567 24.1244 26.9734V25.7279ZM25.7266 27.8642C29.2604 27.8642 32.1353 30.7391 32.1353 34.2729C32.1353 37.8068 29.2604 40.6817 25.7266 40.6817C22.1927 40.6817 19.3178 37.8068 19.3178 34.2729C19.3178 30.7391 22.1927 27.8642 25.7266 27.8642ZM15.5794 35.3411V32.1367H18.5648C18.3566 32.8297 18.2504 33.5493 18.2497 34.2729C18.2497 34.6366 18.2844 34.9913 18.3351 35.3411H15.5794ZM19.141 39.4774L19.8022 38.8162C20.2008 39.3345 20.6651 39.7987 21.1833 40.1973L20.5248 40.8558C20.4244 40.9562 20.3469 40.9562 20.2465 40.8558L19.1405 39.7498C19.1046 39.7135 19.0844 39.6646 19.0844 39.6136C19.0844 39.5626 19.1051 39.5136 19.141 39.4774ZM15.048 43.2799L18.7159 40.835L19.1651 41.2841L16.7201 44.9521C16.6215 45.1014 16.4909 45.2268 16.3378 45.3194C16.1847 45.412 16.0129 45.4694 15.8349 45.4874C15.6569 45.5054 15.4771 45.4836 15.3085 45.4235C15.14 45.3635 14.9869 45.2667 14.8604 45.1402C14.7339 45.0137 14.6371 44.8606 14.577 44.692C14.517 44.5235 14.4952 44.3437 14.5132 44.1657C14.5312 43.9877 14.5885 43.8159 14.6811 43.6628C14.7737 43.5097 14.8992 43.3791 15.0485 43.2804L15.048 43.2799Z" fill="#6622FB"/>
</g>
<rect x="0.717162" y="0.717162" width="58.5657" height="58.5657" rx="16.4947" stroke="url(#paint0_linear_1_4487)" stroke-width="1.43432"/>
<defs>
<filter id="filter0_f_1_4487" x="-32.2222" y="-32.8774" width="133.333" height="133.985" filterUnits="userSpaceOnUse" color-interpolation-filters="sRGB">
<feFlood flood-opacity="0" result="BackgroundImageFix"/>
<feBlend mode="normal" in="SourceGraphic" in2="BackgroundImageFix" result="shape"/>
<feGaussianBlur stdDeviation="18.3333" result="effect1_foregroundBlur_1_4487"/>
</filter>
<linearGradient id="paint0_linear_1_4487" x1="30" y1="0" x2="30" y2="60" gradientUnits="userSpaceOnUse">
<stop stop-color="#DFD0FF"/>
<stop offset="0.264423" stop-color="#F5EFFF"/>
</linearGradient>
<clipPath id="clip0_1_4487">
<rect width="60" height="60" rx="17.2119" fill="white"/>
</clipPath>
</defs>
</svg>
