<svg width="60" height="60" viewBox="0 0 60 60" fill="none" xmlns="http://www.w3.org/2000/svg">
<g clip-path="url(#clip0_1_4498)">
<rect width="59.9978" height="60" rx="17.2119" fill="white"/>
<g filter="url(#filter0_f_1_4498)">
<path d="M59.4781 59.8735C59.4781 70.1501 70.6524 59.8735 59.4781 59.8735C48.3037 59.8735 4.44444 70.1501 4.44444 59.8735C4.44444 49.5968 34.8073 76.4244 45.5555 22.2228C56.3038 -31.9788 59.4781 49.5968 59.4781 59.8735Z" fill="#8248FF" fill-opacity="0.46"/>
</g>
<path fill-rule="evenodd" clip-rule="evenodd" d="M41.6799 32.2197C40.9729 31.5127 39.8229 31.508 39.1112 32.2197C38.3995 32.9314 38.4019 34.0792 39.1112 34.7885C39.8229 35.5002 40.973 35.4956 41.6799 34.7885C42.3892 34.0792 42.3893 32.929 41.6799 32.2197ZM35.6236 43.1939H36.9855V42.0137C36.9855 41.9006 37.0305 41.7921 37.1104 41.7122C37.1904 41.6322 37.2989 41.5873 37.412 41.5873C37.5251 41.5873 37.6335 41.6322 37.7135 41.7122C37.7935 41.7921 37.8384 41.9006 37.8384 42.0137V43.1939H42.9527V42.0137C42.9527 41.9006 42.9977 41.7921 43.0776 41.7122C43.1576 41.6322 43.2661 41.5873 43.3792 41.5873C43.4923 41.5873 43.6008 41.6322 43.6807 41.7122C43.7607 41.7921 43.8056 41.9006 43.8056 42.0137V43.1939H45.1676V40.3584C45.1676 38.9397 44.1629 37.6267 42.7736 37.6267H38.0176C36.6283 37.6267 35.6236 38.9397 35.6236 40.3584V43.1939ZM31.2831 33.9126C30.5738 33.2033 29.4236 33.2033 28.7143 33.9126C28.005 34.6219 28.005 35.7721 28.7143 36.4814C29.4236 37.1907 30.5738 37.1907 31.2831 36.4814C31.9924 35.7721 31.9924 34.6218 31.2831 33.9126ZM29.9987 32.5277C31.4728 32.5277 32.668 33.7229 32.668 35.1969C32.668 36.671 31.4728 37.8662 29.9987 37.8662C28.5246 37.8662 27.3295 36.671 27.3295 35.1969C27.3295 33.7229 28.5246 32.5277 29.9987 32.5277ZM25.2267 44.8867H26.5887V43.7066C26.5887 43.5935 26.6336 43.485 26.7136 43.405C26.7935 43.325 26.902 43.2801 27.0151 43.2801C27.1282 43.2801 27.2367 43.325 27.3167 43.405C27.3966 43.485 27.4416 43.5935 27.4416 43.7066V44.8867H32.5559V43.7066C32.5559 43.5935 32.6008 43.485 32.6808 43.405C32.7608 43.325 32.8692 43.2801 32.9823 43.2801C33.0954 43.2801 33.2039 43.325 33.2839 43.405C33.3638 43.485 33.4088 43.5935 33.4088 43.7066V44.8867H34.7707V42.0512C34.7707 40.6325 33.766 39.3194 32.3767 39.3194H27.6207C26.2314 39.3194 25.2267 40.6324 25.2267 42.0512V44.8867ZM20.8863 32.2197C20.1746 31.508 19.0246 31.5126 18.3175 32.2197C17.5311 33.0062 17.6322 34.3078 18.5216 34.9645C19.7195 35.8489 21.4183 34.9921 21.4183 33.5041C21.4186 33.2655 21.3718 33.0292 21.2805 32.8088C21.1892 32.5884 21.0552 32.3882 20.8863 32.2197ZM14.8299 43.1939H16.1918V42.0137C16.1918 41.9006 16.2367 41.7921 16.3167 41.7122C16.3967 41.6322 16.5051 41.5873 16.6182 41.5873C16.7313 41.5873 16.8398 41.6322 16.9198 41.7122C16.9998 41.7921 17.0447 41.9006 17.0447 42.0137V43.1939H22.159V42.0137C22.159 41.9006 22.2039 41.7921 22.2839 41.7122C22.3639 41.6322 22.4724 41.5873 22.5855 41.5873C22.6986 41.5873 22.807 41.6322 22.887 41.7122C22.967 41.7921 23.0119 41.9006 23.0119 42.0137V43.1939H24.3738V40.3584C24.3738 38.9397 23.3691 37.6267 21.9798 37.6267H17.2239C15.8346 37.6267 14.8299 38.9397 14.8299 40.3584V43.1939ZM33.0021 38.5338C32.7967 38.4891 32.587 38.4665 32.3767 38.4666H27.6207C27.3916 38.4666 27.1678 38.4932 26.9519 38.5436V26.4351H26.9506C26.9505 26.3371 26.9167 26.2422 26.8547 26.1663C26.7927 26.0904 26.7064 26.0383 26.6104 26.0187L24.7359 25.636V24.7881L33.0021 22.6142V38.5338ZM24.3283 26.4204L26.099 26.7819V38.8875C25.7438 39.0974 25.4306 39.3764 25.172 39.7049C24.902 38.1089 23.6227 36.7738 21.9798 36.7738H18.692V36.0142C20.4226 36.6417 22.2711 35.3602 22.2711 33.5041C22.2711 31.648 20.4226 30.3665 18.692 30.994V25.2699L24.1246 26.3788C24.1968 26.4031 24.226 26.425 24.3283 26.4204ZM41.3054 30.9941C39.5749 30.3665 37.7263 31.6482 37.7263 33.5042C37.7263 35.3602 39.5749 36.6418 41.3054 36.0143V36.7738H38.0175C36.3747 36.7738 35.0953 38.109 34.8254 39.705C34.5561 39.363 34.2279 39.0749 33.855 38.8624V22.0622H33.854C33.8539 21.785 33.5914 21.5795 33.3202 21.6508L31.7906 22.0531V19.5802H41.3054L41.3054 30.9941ZM39.5621 18.7273V16.8768H33.5339V18.7273H39.5621ZM36.1216 16.0239V14.6899C36.1216 14.5768 36.1665 14.4683 36.2465 14.3883C36.3265 14.3084 36.435 14.2634 36.5481 14.2634C36.6612 14.2634 36.7696 14.3084 36.8496 14.3883C36.9296 14.4683 36.9745 14.5768 36.9745 14.6899V16.0239H39.9886C40.1017 16.0239 40.2101 16.0688 40.2901 16.1488C40.3701 16.2288 40.415 16.3372 40.415 16.4503V18.7273H41.7319C41.845 18.7273 41.9534 18.7723 42.0334 18.8522C42.1134 18.9322 42.1583 19.0407 42.1583 19.1538V31.4998C43.3667 32.5633 43.3667 34.4449 42.1583 35.5084V36.7738H42.7735C44.6368 36.7738 46.0204 38.4768 46.0204 40.3584V43.6203C46.0204 43.7334 45.9755 43.8419 45.8955 43.9219C45.8155 44.0018 45.707 44.0468 45.5939 44.0468H35.6235V45.3132C35.6235 45.4263 35.5786 45.5347 35.4986 45.6147C35.4186 45.6947 35.3102 45.7396 35.1971 45.7396H24.8002C24.6871 45.7396 24.5786 45.6947 24.4987 45.6147C24.4187 45.5347 24.3738 45.4263 24.3738 45.3132V44.0468H14.4034C14.2903 44.0468 14.1819 44.0018 14.1019 43.9219C14.0219 43.8419 13.977 43.7334 13.977 43.6203V40.3584C13.977 38.4768 15.3606 36.7738 17.2239 36.7738H17.8391V35.5084C16.6311 34.4456 16.6311 32.5625 17.8391 31.4998V24.749C17.8391 24.4807 18.0822 24.2645 18.3856 24.3397L23.883 25.4619V24.4603C23.883 24.361 23.9177 24.2647 23.981 24.1882C24.0444 24.1117 24.1325 24.0598 24.23 24.0412L30.9378 22.2772V19.1536C30.9378 19.0405 30.9827 18.9321 31.0627 18.8521C31.1427 18.7721 31.2511 18.7272 31.3642 18.7272H32.6811V16.4502C32.6811 16.3371 32.726 16.2286 32.806 16.1487C32.886 16.0687 32.9945 16.0238 33.1076 16.0238H36.1216V16.0239ZM35.121 23.306H35.8445V22.4531H34.6946V23.306H35.121ZM37.1355 23.306H37.859V22.4531H36.7091V23.306H37.1355ZM39.1499 23.306H39.8734V22.4531H38.7235V23.306H39.1499ZM35.121 25.6307H35.8445V24.7779H34.6946V25.6307H35.121ZM37.1355 25.6307H37.859V24.7779H36.7091V25.6307H37.1355ZM39.1499 25.6307H39.8734V24.7779H38.7235V25.6307H39.1499ZM35.121 27.9554H35.8445V27.1025H34.6946V27.9554H35.121ZM37.1355 27.9554H37.859V27.1025H36.7091V27.9554H37.1355ZM39.1499 27.9554H39.8734V27.1025H38.7235V27.9554H39.1499ZM35.121 30.28H35.8445V29.4271H34.6946V30.28H35.121ZM37.1355 30.28H37.859V29.4271H36.7091V30.28H37.1355ZM39.1499 30.28H39.8734V29.4271H38.7235V30.28H39.1499ZM28.6401 27.7146H29.3635V26.8617H28.2136V27.7146H28.6401ZM30.6545 27.7146H31.3779V26.8617H30.228V27.7146H30.6545ZM28.6401 30.0994H29.3635V29.2466H28.2136V30.0994H28.6401ZM30.6545 30.0994H31.3779V29.2466H30.228V30.0994H30.6545ZM21.3866 28.9919H22.11V28.139H20.9601V28.9919H21.3866ZM23.401 28.9919H24.1244V28.139H22.9745V28.9919H23.401ZM23.401 31.3768H24.1244V30.5239H22.9745V31.3768H23.401ZM23.401 33.7617H24.1244V32.9088H22.9745V33.7617H23.401ZM23.401 36.1466H24.1244V35.2937H22.9745V36.1466H23.401ZM35.121 32.6047H35.8445V31.7518H34.6946V32.6047H35.121ZM35.121 34.9294H35.8445V34.0765H34.6946V34.9294H35.121ZM35.121 37.2541H35.8445V36.4012H34.6946V37.2541H35.121Z" fill="#6522FB"/>
</g>
<rect x="0.717162" y="0.717162" width="58.5635" height="58.5657" rx="16.4947" stroke="url(#paint0_linear_1_4498)" stroke-width="1.43432"/>
<defs>
<filter id="filter0_f_1_4498" x="-32.2222" y="-32.8774" width="133.333" height="133.985" filterUnits="userSpaceOnUse" color-interpolation-filters="sRGB">
<feFlood flood-opacity="0" result="BackgroundImageFix"/>
<feBlend mode="normal" in="SourceGraphic" in2="BackgroundImageFix" result="shape"/>
<feGaussianBlur stdDeviation="18.3333" result="effect1_foregroundBlur_1_4498"/>
</filter>
<linearGradient id="paint0_linear_1_4498" x1="29.9989" y1="0" x2="29.9989" y2="60" gradientUnits="userSpaceOnUse">
<stop stop-color="#DFD0FF"/>
<stop offset="0.264423" stop-color="#F5EFFF"/>
</linearGradient>
<clipPath id="clip0_1_4498">
<rect width="59.9978" height="60" rx="17.2119" fill="white"/>
</clipPath>
</defs>
</svg>
