<svg width="60" height="60" viewBox="0 0 60 60" fill="none" xmlns="http://www.w3.org/2000/svg">
<g clip-path="url(#clip0_1_4470)">
<rect width="60" height="60" rx="17.2119" fill="white"/>
<g filter="url(#filter0_f_1_4470)">
<path d="M59.4781 59.8735C59.4781 70.1501 70.6524 59.8735 59.4781 59.8735C48.3037 59.8735 4.44444 70.1501 4.44444 59.8735C4.44444 49.5968 34.8073 76.4244 45.5555 22.2228C56.3038 -31.9788 59.4781 49.5968 59.4781 59.8735Z" fill="#8248FF" fill-opacity="0.46"/>
</g>
<path d="M37.3926 23.3438C37.6951 24.2178 37.8464 25.1339 37.8464 26.0667C37.8464 26.4365 37.5523 26.7307 37.1825 26.7307C36.8127 26.7307 36.5185 26.4365 36.5185 26.0667C36.5185 25.2851 36.3925 24.5119 36.1403 23.7808C35.4428 21.7554 33.8796 20.1754 31.8542 19.4526C31.5096 19.3265 31.3247 18.9483 31.4508 18.6038C31.5768 18.2592 31.955 18.0743 32.2996 18.2004C34.7032 19.0576 36.5606 20.9317 37.3926 23.3438ZM40.4097 26.6886C40.25 29.6469 38.9221 32.3615 36.6698 34.3197C34.9301 35.8325 33.9048 38.0008 33.7956 40.3287C35.9639 40.2027 37.132 42.934 35.5604 44.3964C37.09 45.8083 36.0311 48.4893 33.9216 48.464H33.2157C33.2829 50.0692 31.997 51.4307 30.3834 51.4307H25.3661C23.7525 51.4391 22.4666 50.0692 22.5339 48.464H21.8279C19.7184 48.4893 18.6595 45.8083 20.1891 44.3964C18.8444 43.1946 19.4915 40.7994 21.2396 40.4128C20.895 40.043 20.6177 39.606 20.4328 39.1185C17.2644 39.3538 14.8608 36.093 15.9029 33.1431C11.9109 31.3362 11.9109 25.4784 15.9029 23.6715C14.8608 20.73 17.2644 17.4692 20.4328 17.6961C21.9456 13.6873 27.8706 14.7126 27.921 19.024V37.7906C27.921 38.7655 27.5596 39.648 26.9629 40.3287H28.8286V16.6708C28.8118 15.822 29.6018 15.0824 30.4507 15.1748C36.2076 15.5866 40.8299 20.9233 40.4097 26.6886ZM22.7692 35.698C22.9037 36.0426 22.7272 36.4208 22.3826 36.5552C22.2061 36.6225 22.0548 36.7149 21.9372 36.841C21.4329 37.3452 21.5674 38.1772 21.5842 38.2781C22.2145 41.27 26.5511 40.8582 26.6099 37.7991V19.0324C26.5931 16.3178 22.8868 15.5362 21.7775 17.9902C22.6683 18.1667 25.3073 20.4191 23.4163 20.8393C22.7776 20.8225 22.6515 19.9821 22.1389 19.6963C19.6512 17.7213 16.1046 20.4275 17.1888 23.3017C18.441 23.1168 19.7437 23.6295 20.5505 24.596C20.7858 24.8733 20.7522 25.2935 20.4664 25.5289C20.1891 25.7642 19.7689 25.7306 19.5336 25.4448C19.3571 25.2347 18.9705 24.8565 18.357 24.68C17.7603 24.5035 17.2392 24.6128 16.9871 24.6884C13.5581 25.6969 13.2808 30.5714 16.5416 31.9749C16.9871 31.2605 19.6092 29.2603 20.0714 30.6554C20.1639 31.0084 19.9454 31.3698 19.5924 31.4623C15.8189 32.3951 16.3399 37.6982 20.2311 37.7991C20.2479 37.2444 20.3992 36.4964 20.9959 35.8997C21.4245 35.4543 22.4162 34.8744 22.7692 35.698ZM31.8962 48.464H23.8701C23.8029 49.3381 24.4921 50.1029 25.3745 50.1029H30.3918C31.2743 50.1113 31.955 49.3381 31.8962 48.464ZM34.9637 46.1024C34.9637 45.531 34.5015 45.0603 33.9216 45.0603H21.8447C21.2732 45.0603 20.8026 45.5226 20.8026 46.1024C20.8026 46.6739 21.2648 47.1446 21.8447 47.1446H33.93C34.4931 47.1362 34.9637 46.6739 34.9637 46.1024ZM21.8447 41.6566C20.4748 41.6902 20.4748 43.6988 21.8447 43.7324H33.93C34.5015 43.7324 34.9722 43.2702 34.9722 42.6903C34.9722 42.1188 34.5099 41.6482 33.93 41.6482H21.8447V41.6566ZM30.333 16.4943C30.2153 16.5027 30.1649 16.5447 30.1481 16.6708V40.3287H32.4509C32.5685 37.6142 33.7703 35.0761 35.7958 33.3196C42.1914 27.8484 38.6784 17.175 30.333 16.4943ZM38.8717 17.7213L41.9393 14.6538C42.5444 14.0319 41.6283 13.1074 40.998 13.7125L37.9304 16.78C37.3253 17.4104 38.2498 18.3264 38.8717 17.7213ZM46.4355 25.5036H42.0989C41.2249 25.5205 41.2249 26.8147 42.0989 26.8315H46.4355C47.3096 26.8147 47.3096 25.5205 46.4355 25.5036ZM38.8717 34.6054C38.2498 34.0003 37.3253 34.9164 37.9304 35.5467L40.998 38.6143C41.6283 39.2194 42.5444 38.3033 41.9393 37.673L38.8717 34.6054ZM30.1565 13.5612V9.22462C30.1397 8.35058 28.8455 8.35058 28.8286 9.22462V13.5612C28.8455 14.4353 30.1397 14.4353 30.1565 13.5612Z" fill="#6622FB"/>
</g>
<rect x="0.717162" y="0.717162" width="58.5657" height="58.5657" rx="16.4947" stroke="url(#paint0_linear_1_4470)" stroke-width="1.43432"/>
<defs>
<filter id="filter0_f_1_4470" x="-32.2222" y="-32.8774" width="133.333" height="133.985" filterUnits="userSpaceOnUse" color-interpolation-filters="sRGB">
<feFlood flood-opacity="0" result="BackgroundImageFix"/>
<feBlend mode="normal" in="SourceGraphic" in2="BackgroundImageFix" result="shape"/>
<feGaussianBlur stdDeviation="18.3333" result="effect1_foregroundBlur_1_4470"/>
</filter>
<linearGradient id="paint0_linear_1_4470" x1="30" y1="0" x2="30" y2="60" gradientUnits="userSpaceOnUse">
<stop stop-color="#DFD0FF"/>
<stop offset="0.264423" stop-color="#F5EFFF"/>
</linearGradient>
<clipPath id="clip0_1_4470">
<rect width="60" height="60" rx="17.2119" fill="white"/>
</clipPath>
</defs>
</svg>
