<svg width="31" height="31" viewBox="0 0 31 31" fill="none" xmlns="http://www.w3.org/2000/svg">
<g clip-path="url(#clip0_2866_42579)">
<path d="M15.2067 7.1541C13.5703 7.1541 12.2521 8.47228 12.2521 10.1086C12.2521 11.745 13.5703 13.0632 15.2067 13.0632C15.9794 13.0632 16.7067 12.745 17.2976 12.1996C17.843 11.6541 18.1612 10.9268 18.1612 10.1086C18.1612 8.47228 16.843 7.1541 15.2067 7.1541ZM15.2067 12.1086C14.0703 12.1086 13.1612 11.1996 13.1612 10.0632C13.1612 9.51773 13.3885 9.01773 13.7521 8.60864C14.1158 8.24501 14.6612 8.01773 15.1612 8.01773C16.2976 8.01773 17.2067 8.92682 17.2067 10.0632C17.2067 11.1996 16.2976 12.1086 15.2067 12.1086ZM15.1612 13.9723C11.5703 13.9723 8.66122 16.8814 8.66122 20.4723V21.0632C8.66122 21.3359 8.84304 21.5177 9.11577 21.5177L21.2521 21.5632C21.5249 21.5632 21.7067 21.3814 21.7067 21.1086V20.5177C21.7067 18.8359 21.0703 17.1996 19.8885 15.9723C18.6612 14.6996 16.9794 13.9723 15.1612 13.9723ZM15.2067 14.8814C16.7521 14.8814 18.1612 15.4723 19.2521 16.5632C20.2521 17.6086 20.843 19.0177 20.843 20.4723V20.6086L9.61577 20.5632V20.4268C9.57031 17.3814 12.0703 14.8814 15.2067 14.8814ZM3.16122 15.4268L4.07031 16.3359C4.25213 16.5177 4.52486 16.5177 4.70668 16.3359C4.88849 16.1541 4.88849 15.8814 4.70668 15.6996L3.02486 14.0177C2.93395 13.9268 2.84304 13.8814 2.70668 13.8814C2.57031 13.8814 2.4794 13.9268 2.38849 14.0177L0.706676 15.6996C0.524858 15.8814 0.524858 16.1541 0.706676 16.3359C0.888494 16.5177 1.16122 16.5177 1.34304 16.3359L2.25213 15.4268C2.34304 20.8814 5.75213 25.5632 10.8885 27.3359C11.1158 27.4268 11.3885 27.2905 11.4794 27.0177C11.5703 26.7905 11.4339 26.5177 11.2067 26.4723C6.43395 24.8359 3.29759 20.4723 3.16122 15.4268ZM15.343 27.1086L16.2521 26.1996C16.4339 26.0177 16.4339 25.745 16.2521 25.5632C16.0703 25.3814 15.7976 25.3814 15.6158 25.5632L14.0249 27.1541C13.7067 27.3359 13.7067 27.6996 13.9339 27.8814L15.6158 29.5632C15.7976 29.745 16.0703 29.745 16.2521 29.5632C16.4339 29.3814 16.4339 29.1086 16.2521 28.9268L15.343 28.0177C20.7976 27.9268 25.4794 24.5177 27.2521 19.3814C27.343 19.1541 27.2067 18.8814 26.934 18.7905C26.7067 18.6996 26.4339 18.8359 26.3885 19.0632C24.7521 23.8814 20.3885 27.0177 15.343 27.1086ZM29.5249 14.0632C29.343 13.8814 29.0703 13.8814 28.8885 14.0632L27.9794 14.9723C27.8885 10.245 25.2067 5.88137 20.9794 3.74501C20.7521 3.60864 20.4794 3.74501 20.343 3.97228C20.2521 4.19955 20.343 4.47228 20.5703 4.56319C24.4794 6.56319 26.9794 10.5632 27.0703 14.9723L26.1612 14.0632C25.9794 13.8814 25.7067 13.8814 25.5249 14.0632C25.343 14.245 25.343 14.5177 25.5249 14.6996L27.2067 16.3814C27.2976 16.4723 27.4339 16.5177 27.5249 16.5177C27.6612 16.5177 27.7521 16.4723 27.843 16.3814L29.5249 14.6996C29.7067 14.5177 29.7067 14.245 29.5249 14.0632ZM15.1158 3.24501C15.6158 3.24501 16.0703 3.29046 16.5249 3.33592L15.4794 4.24501C15.2976 4.42683 15.2521 4.69955 15.4339 4.88137C15.6158 5.06319 15.8885 5.10864 16.0703 4.92683L17.8885 3.38137C18.1158 3.19955 18.1158 2.92683 17.934 2.69955L16.434 0.926825C16.2521 0.745007 15.9794 0.699552 15.7976 0.88137C15.6158 1.06319 15.5703 1.33592 15.7521 1.51773L16.5249 2.42683C16.0249 2.33592 15.5703 2.33592 15.1612 2.33592H15.1158C9.57031 2.33592 4.75213 5.79046 2.9794 10.9723C2.88849 11.1996 3.02486 11.4723 3.29759 11.5632C3.52486 11.6086 3.75213 11.4723 3.84304 11.245C5.4794 6.42683 9.9794 3.24501 15.1158 3.24501Z" fill="#A2A2A2"/>
</g>
<defs>
<clipPath id="clip0_2866_42579">
<rect width="30" height="30" fill="white" transform="translate(0.117188 0.242188)"/>
</clipPath>
</defs>
</svg>
