<svg width="31" height="30" viewBox="0 0 31 30" fill="none" xmlns="http://www.w3.org/2000/svg">
<g clip-path="url(#clip0_2662_44724)">
<path d="M15.2067 6.91191C13.5703 6.91191 12.2521 8.23009 12.2521 9.86646C12.2521 11.5028 13.5703 12.821 15.2067 12.821C15.9794 12.821 16.7067 12.5028 17.2976 11.9574C17.843 11.4119 18.1612 10.6846 18.1612 9.86646C18.1612 8.23009 16.843 6.91191 15.2067 6.91191ZM15.2067 11.8665C14.0703 11.8665 13.1612 10.9574 13.1612 9.821C13.1612 9.27555 13.3885 8.77555 13.7521 8.36646C14.1158 8.00282 14.6612 7.77555 15.1612 7.77555C16.2976 7.77555 17.2067 8.68464 17.2067 9.821C17.2067 10.9574 16.2976 11.8665 15.2067 11.8665ZM15.1612 13.7301C11.5703 13.7301 8.66122 16.6392 8.66122 20.2301V20.821C8.66122 21.0937 8.84304 21.2755 9.11577 21.2755L21.2521 21.321C21.5249 21.321 21.7067 21.1392 21.7067 20.8665V20.2755C21.7067 18.5937 21.0703 16.9574 19.8885 15.7301C18.6612 14.4574 16.9794 13.7301 15.1612 13.7301ZM15.2067 14.6392C16.7521 14.6392 18.1612 15.2301 19.2521 16.321C20.2521 17.3665 20.843 18.7755 20.843 20.2301V20.3665L9.61577 20.321V20.1846C9.57031 17.1392 12.0703 14.6392 15.2067 14.6392ZM3.16122 15.1846L4.07031 16.0937C4.25213 16.2755 4.52486 16.2755 4.70668 16.0937C4.88849 15.9119 4.88849 15.6392 4.70668 15.4574L3.02486 13.7755C2.93395 13.6846 2.84304 13.6392 2.70668 13.6392C2.57031 13.6392 2.4794 13.6846 2.38849 13.7755L0.706676 15.4574C0.524858 15.6392 0.524858 15.9119 0.706676 16.0937C0.888494 16.2755 1.16122 16.2755 1.34304 16.0937L2.25213 15.1846C2.34304 20.6392 5.75213 25.321 10.8885 27.0937C11.1158 27.1846 11.3885 27.0483 11.4794 26.7755C11.5703 26.5483 11.4339 26.2755 11.2067 26.2301C6.43395 24.5937 3.29759 20.2301 3.16122 15.1846ZM15.343 26.8665L16.2521 25.9574C16.4339 25.7755 16.4339 25.5028 16.2521 25.321C16.0703 25.1392 15.7976 25.1392 15.6158 25.321L14.0249 26.9119C13.7067 27.0937 13.7067 27.4574 13.9339 27.6392L15.6158 29.321C15.7976 29.5028 16.0703 29.5028 16.2521 29.321C16.4339 29.1392 16.4339 28.8665 16.2521 28.6846L15.343 27.7755C20.7976 27.6846 25.4794 24.2755 27.2521 19.1392C27.343 18.9119 27.2067 18.6392 26.934 18.5483C26.7067 18.4574 26.4339 18.5937 26.3885 18.821C24.7521 23.6392 20.3885 26.7755 15.343 26.8665ZM29.5249 13.821C29.343 13.6392 29.0703 13.6392 28.8885 13.821L27.9794 14.7301C27.8885 10.0028 25.2067 5.63918 20.9794 3.50282C20.7521 3.36646 20.4794 3.50282 20.343 3.73009C20.2521 3.95736 20.343 4.23009 20.5703 4.321C24.4794 6.321 26.9794 10.321 27.0703 14.7301L26.1612 13.821C25.9794 13.6392 25.7067 13.6392 25.5249 13.821C25.343 14.0028 25.343 14.2755 25.5249 14.4574L27.2067 16.1392C27.2976 16.2301 27.4339 16.2755 27.5249 16.2755C27.6612 16.2755 27.7521 16.2301 27.843 16.1392L29.5249 14.4574C29.7067 14.2755 29.7067 14.0028 29.5249 13.821ZM15.1158 3.00282C15.6158 3.00282 16.0703 3.04827 16.5249 3.09373L15.4794 4.00282C15.2976 4.18464 15.2521 4.45736 15.4339 4.63918C15.6158 4.821 15.8885 4.86646 16.0703 4.68464L17.8885 3.13918C18.1158 2.95736 18.1158 2.68464 17.934 2.45736L16.434 0.684637C16.2521 0.502819 15.9794 0.457365 15.7976 0.639183C15.6158 0.821001 15.5703 1.09373 15.7521 1.27555L16.5249 2.18464C16.0249 2.09373 15.5703 2.09373 15.1612 2.09373H15.1158C9.57031 2.09373 4.75213 5.54827 2.9794 10.7301C2.88849 10.9574 3.02486 11.2301 3.29759 11.321C3.52486 11.3665 3.75213 11.2301 3.84304 11.0028C5.4794 6.18464 9.9794 3.00282 15.1158 3.00282Z" fill="url(#paint0_linear_2662_44724)"/>
</g>
<defs>
<linearGradient id="paint0_linear_2662_44724" x1="0.570312" y1="16.1762" x2="29.6612" y2="16.1762" gradientUnits="userSpaceOnUse">
<stop stop-color="#864EFF"/>
<stop offset="1" stop-color="#502F99"/>
</linearGradient>
<clipPath id="clip0_2662_44724">
<rect width="30" height="30" fill="white" transform="translate(0.117188)"/>
</clipPath>
</defs>
</svg>
