<svg width="1060" height="168" viewBox="0 0 1060 168" fill="none" xmlns="http://www.w3.org/2000/svg">
<path d="M535.445 1.59052C537.795 1.64973 540.141 1.71158 542.483 1.77536L542.453 2.93123C544.795 2.99499 547.133 3.06084 549.467 3.12915L549.5 1.97335C551.835 2.04169 554.167 2.11259 556.494 2.18544L556.458 3.34117C558.804 3.41457 561.145 3.49068 563.482 3.56863L563.52 2.41198C565.87 2.49036 568.216 2.57051 570.557 2.65345L570.517 3.81003C572.857 3.89293 575.193 3.97803 577.525 4.06545L577.568 2.90989C579.9 2.99735 582.229 3.08648 584.552 3.17842L584.508 4.33491C586.858 4.42787 589.203 4.52277 591.543 4.62028L591.59 3.46384C593.938 3.5617 596.282 3.66138 598.622 3.76379L598.572 4.92113C600.91 5.0235 603.244 5.1281 605.572 5.23497L605.624 4.07767C607.953 4.18459 610.278 4.29413 612.597 4.40552L612.543 5.56177C614.899 5.6749 617.25 5.79041 619.595 5.90812L619.652 4.75192C621.998 4.86966 624.339 4.98992 626.674 5.1122L626.615 6.26834C628.95 6.39058 631.279 6.51473 633.603 6.64147L633.665 5.48638C636.001 5.61379 638.332 5.74331 640.657 5.87522L640.593 7.03026C642.946 7.16379 645.293 7.29981 647.635 7.43791L647.702 6.28294C650.044 6.4211 652.381 6.56176 654.711 6.70445L654.642 7.85937C656.972 8.002 659.295 8.14648 661.612 8.2936L661.685 7.13975C664.032 7.28873 666.372 7.43925 668.706 7.59279L668.631 8.74757C670.98 8.90212 673.323 9.05923 675.659 9.21836L675.736 8.06268C678.073 8.22187 680.403 8.38349 682.727 8.54722L682.646 9.70186C684.971 9.8657 687.29 10.0319 689.601 10.2002L689.685 9.04563C692.043 9.21739 694.394 9.39241 696.737 9.56881L696.651 10.7223C698.994 10.8987 701.33 11.0781 703.658 11.259L703.746 10.1056C706.075 10.2866 708.397 10.4694 710.711 10.655L710.619 11.8083C712.96 11.9961 715.294 12.1858 717.62 12.3781L717.714 11.2258C720.065 11.4202 722.408 11.6157 724.743 11.8148L724.646 12.968C726.979 13.167 729.305 13.3688 731.622 13.5724L731.723 12.4182C734.047 12.6224 736.362 12.8297 738.67 13.0385L738.567 14.1916C740.923 14.4049 743.272 14.6206 745.611 14.8386L745.717 13.6866C748.057 13.9047 750.388 14.1252 752.711 14.348L752.601 15.5C754.921 15.7227 757.233 15.9473 759.536 16.1746L759.648 15.0227C761.998 15.2547 764.338 15.4891 766.669 15.7258L766.553 16.8777C768.897 17.1158 771.231 17.356 773.555 17.5989L773.675 16.4481C776 16.6912 778.315 16.9368 780.62 17.1846L780.497 18.3353C782.833 18.5864 785.159 18.8391 787.474 19.095L787.601 17.9454C789.95 18.2051 792.289 18.4668 794.616 18.7314L794.486 19.8819C796.813 20.1464 799.128 20.4126 801.431 20.6818L801.564 19.5324C803.892 19.8044 806.208 20.0799 808.512 20.3568L808.375 21.5052C810.726 21.7877 813.065 22.0731 815.392 22.3606L815.533 21.2113C817.861 21.4991 820.177 21.7881 822.481 22.0807L822.481 22.0817L822.335 23.2299C824.654 23.5246 826.961 23.8224 829.255 24.122L829.404 22.9749C831.758 23.2824 834.099 23.592 836.425 23.9046L836.271 25.0516C838.596 25.364 840.907 25.6785 843.203 25.9959L843.362 24.849L843.362 24.848C845.682 25.1685 847.987 25.4935 850.277 25.8191L850.116 26.965C852.466 27.299 854.801 27.6361 857.12 27.9754L857.287 26.8307C859.608 27.1702 861.913 27.5119 864.202 27.8565L864.03 29.0011C866.353 29.3509 868.66 29.7025 870.95 30.0574L871.126 28.9148C873.472 29.2784 875.801 29.6428 878.112 30.0117L877.93 31.1561C880.239 31.5248 882.53 31.8959 884.803 32.2698L884.99 31.1285C887.326 31.5128 889.644 31.8984 891.942 32.2881L891.749 33.4293C894.081 33.8248 896.393 34.2237 898.685 34.6246L898.883 33.4856C901.177 33.8868 903.451 34.289 905.704 34.6957L905.499 35.8356C907.853 36.2604 910.184 36.6878 912.492 37.1183L912.704 35.9815C915.017 36.4129 917.307 36.8457 919.574 37.2827L919.356 38.4203C921.672 38.8668 923.964 39.3163 926.232 39.7686L926.456 38.634C928.789 39.0993 931.095 39.5678 933.376 40.039L933.142 41.1714C935.424 41.6429 937.68 42.1178 939.909 42.5951L940.15 41.462C942.5 41.9654 944.821 42.4734 947.111 42.9832L946.86 44.1122C949.148 44.6213 951.405 45.1333 953.632 45.6484L953.891 44.5225C956.223 45.0619 958.52 45.6047 960.784 46.1506L960.513 47.2742C962.806 47.8271 965.064 48.383 967.286 48.9423L967.567 47.8209C969.881 48.4034 972.157 48.9888 974.393 49.5782L974.099 50.6974C976.389 51.3007 978.638 51.9071 980.845 52.5172L981.152 51.4023C983.457 52.0395 985.716 52.6809 987.93 53.3254L987.607 54.4352C989.881 55.0972 992.105 55.7637 994.28 56.433L994.621 55.3286C996.924 56.0373 999.171 56.7501 1001.36 57.4668L1001 58.5649C1003.24 59.296 1005.42 60.0315 1007.53 60.7702L1007.91 59.6775C1010.22 60.4823 1012.45 61.2942 1014.62 62.1078L1014.21 63.1882C1016.45 64.0305 1018.61 64.8778 1020.69 65.7284L1021.13 64.6557C1023.35 65.5642 1025.48 66.4788 1027.53 67.397L1027.05 68.4523C1029.28 69.4569 1031.41 70.4665 1033.41 71.48L1033.93 70.4464C1036.13 71.5562 1038.2 72.6717 1040.13 73.7933L1039.54 74.7952C1041.66 76.028 1043.61 77.2646 1045.38 78.5038L1046.05 77.5547C1048.11 78.9967 1049.95 80.4468 1051.55 81.9038L1050.77 82.7603C1052.61 84.4317 1054.12 86.0961 1055.29 87.749L1056.23 87.0782C1057.71 89.1553 1058.71 91.2432 1059.21 93.3395L1058.09 93.6093C1058.34 94.6724 1058.46 95.7324 1058.43 96.7904C1058.41 97.8484 1058.24 98.9015 1057.93 99.9512L1059.04 100.274C1058.44 102.344 1057.34 104.381 1055.77 106.385L1054.86 105.67C1053.61 107.264 1052.02 108.853 1050.1 110.434L1050.84 111.327C1049.17 112.705 1047.26 114.064 1045.13 115.404L1044.52 114.426C1042.68 115.578 1040.68 116.719 1038.5 117.848L1039.04 118.875C1037.06 119.902 1034.94 120.916 1032.69 121.919L1032.22 120.862C1030.17 121.777 1028 122.683 1025.72 123.579L1026.14 124.656C1024.06 125.474 1021.88 126.284 1019.62 127.084L1019.23 125.993C1017.11 126.742 1014.92 127.483 1012.64 128.216L1012.99 129.315C1010.79 130.023 1008.52 130.726 1006.18 131.418L1005.85 130.309C1003.7 130.945 1001.49 131.574 999.223 132.197L999.529 133.309C997.305 133.919 995.025 134.523 992.69 135.12L992.405 134.001C990.2 134.564 987.946 135.122 985.643 135.673L985.912 136.796C983.669 137.333 981.382 137.865 979.049 138.391L978.796 137.262C976.562 137.765 974.286 138.263 971.97 138.755L972.21 139.885C969.947 140.365 967.646 140.84 965.306 141.31L965.08 140.177C962.833 140.629 960.551 141.075 958.235 141.516L958.451 142.651C956.163 143.087 953.842 143.518 951.488 143.944L951.283 142.808C949.034 143.214 946.754 143.617 944.445 144.015L944.641 145.155C942.328 145.553 939.986 145.947 937.614 146.337L937.427 145.195C935.178 145.564 932.902 145.929 930.601 146.29L930.779 147.43C928.479 147.791 926.152 148.148 923.8 148.5L923.629 147.357C921.343 147.699 919.032 148.038 916.698 148.372L916.86 149.517C914.575 149.844 912.266 150.165 909.935 150.484L909.779 149.339C907.452 149.658 905.103 149.973 902.732 150.284L902.882 151.431C900.612 151.728 898.321 152.019 896.01 152.309L895.867 151.164C893.559 151.454 891.23 151.739 888.881 152.022L889.02 153.171C886.705 153.449 884.372 153.722 882.019 153.993L881.888 152.845C879.599 153.109 877.293 153.369 874.968 153.625L875.095 154.775C872.769 155.032 870.426 155.283 868.065 155.533L867.943 154.384C865.639 154.628 863.318 154.869 860.981 155.106L861.097 156.256C858.794 156.49 856.475 156.72 854.141 156.947L854.029 155.796C851.696 156.023 849.348 156.246 846.984 156.466L847.09 157.618C844.787 157.832 842.469 158.045 840.136 158.253L840.033 157.1C837.724 157.306 835.401 157.51 833.064 157.709L833.162 158.86C830.823 159.06 828.471 159.257 826.104 159.451L826.011 158.298C823.705 158.486 821.387 158.672 819.055 158.854L819.145 160.008C816.83 160.189 814.503 160.366 812.164 160.541L812.078 159.388C809.741 159.563 807.39 159.734 805.028 159.902L805.109 161.056C802.795 161.221 800.468 161.383 798.131 161.543L798.053 160.389C795.739 160.547 793.413 160.702 791.077 160.853L791.152 162.007C788.814 162.159 786.465 162.307 784.105 162.453L784.036 161.3C781.711 161.443 779.376 161.584 777.03 161.722L777.097 162.876C774.783 163.012 772.459 163.146 770.124 163.276L770.061 162.121C767.728 162.251 765.385 162.379 763.032 162.504L763.092 163.659C760.753 163.783 758.404 163.903 756.046 164.021L755.989 162.866C753.678 162.982 751.358 163.096 749.029 163.206L749.083 164.361C746.753 164.471 744.414 164.578 742.066 164.682L742.015 163.529C739.669 163.633 737.312 163.735 734.947 163.834L734.996 164.99C732.681 165.087 730.357 165.181 728.026 165.273L727.981 164.117C725.657 164.209 723.325 164.297 720.985 164.383L721.026 165.538C718.684 165.624 716.335 165.707 713.977 165.788L713.939 164.632C711.606 164.712 709.266 164.79 706.918 164.864L706.955 166.019C704.634 166.092 702.306 166.164 699.971 166.232L699.938 165.076C697.604 165.145 695.263 165.21 692.914 165.273L692.945 166.429C690.595 166.492 688.239 166.553 685.876 166.611L685.847 165.454C683.53 165.51 681.206 165.564 678.876 165.615L678.902 166.772C676.573 166.824 674.237 166.872 671.895 166.918L671.874 165.761C669.533 165.808 667.185 165.85 664.831 165.891L664.85 167.047C662.512 167.088 660.167 167.126 657.816 167.161L657.799 166.005C655.477 166.04 653.15 166.073 650.816 166.103L650.829 167.258C648.495 167.288 646.154 167.316 643.808 167.34L643.797 166.184C641.451 166.209 639.1 166.232 636.743 166.251L636.751 167.407C634.422 167.427 632.088 167.443 629.748 167.458L629.743 166.302C627.416 166.316 625.083 166.329 622.745 166.338L622.748 167.493C620.409 167.503 618.065 167.511 615.716 167.515L615.715 166.357C613.367 166.362 611.013 166.363 608.655 166.362L608.653 167.52C606.331 167.519 604.004 167.515 601.672 167.509L601.676 166.353C599.345 166.347 597.01 166.339 594.669 166.328L594.663 167.484C592.322 167.474 589.975 167.46 587.625 167.444L587.634 166.288C585.292 166.272 582.945 166.255 580.593 166.234L580.582 167.39C578.256 167.37 575.927 167.346 573.592 167.321L573.606 166.165C571.272 166.139 568.935 166.111 566.593 166.081L566.577 167.237C564.234 167.207 561.888 167.174 559.537 167.138L559.555 165.983C557.217 165.948 554.875 165.91 552.528 165.87L552.508 167.025C550.18 166.985 547.848 166.943 545.512 166.899L545.535 165.744C543.201 165.699 540.862 165.652 538.52 165.602L538.494 166.758C536.151 166.709 533.805 166.656 531.455 166.602L531.482 165.447C530.307 165.42 529.132 165.392 527.955 165.364C526.779 165.335 525.603 165.306 524.428 165.276L524.399 166.431C522.049 166.372 519.702 166.311 517.36 166.247L517.392 165.092C515.05 165.028 512.711 164.962 510.377 164.894L510.343 166.048C508.008 165.98 505.677 165.909 503.35 165.836L503.387 164.682C501.041 164.608 498.699 164.533 496.362 164.455L496.324 165.61C493.974 165.531 491.628 165.451 489.287 165.368L489.327 164.213C486.987 164.13 484.651 164.045 482.319 163.957L482.276 165.113C479.944 165.025 477.615 164.936 475.291 164.844L475.337 163.689C472.987 163.596 470.642 163.5 468.302 163.403L468.253 164.558C465.905 164.46 463.561 164.36 461.222 164.258L461.273 163.103C458.935 163 456.601 162.896 454.272 162.789L454.22 163.944C451.89 163.837 449.565 163.729 447.246 163.617L447.302 162.461C444.946 162.348 442.595 162.232 440.25 162.115L440.191 163.271C437.845 163.153 435.504 163.032 433.169 162.91L433.23 161.755C430.895 161.633 428.565 161.508 426.242 161.381L426.179 162.535C423.842 162.408 421.511 162.278 419.186 162.147L419.252 160.993C416.899 160.859 414.551 160.723 412.209 160.585L412.141 161.739C409.799 161.601 407.462 161.46 405.132 161.317L405.202 160.164C402.873 160.022 400.549 159.876 398.231 159.729L398.159 160.883C395.812 160.734 393.472 160.583 391.138 160.429L391.214 159.275C388.865 159.121 386.522 158.965 384.186 158.805L384.107 159.959C381.77 159.8 379.44 159.639 377.116 159.476L377.117 159.476L377.198 158.321C374.873 158.157 372.554 157.991 370.243 157.823L370.159 158.977L370.158 158.977C367.801 158.805 365.45 158.63 363.106 158.454L363.193 157.3C360.85 157.124 358.515 156.946 356.187 156.765L356.097 157.917C353.768 157.736 351.447 157.552 349.133 157.367L349.225 156.215C346.884 156.028 344.55 155.837 342.224 155.645L342.129 156.797C339.778 156.603 337.435 156.406 335.101 156.207L335.199 155.055C332.865 154.856 330.54 154.655 328.222 154.451L328.121 155.604C325.797 155.399 323.481 155.193 321.174 154.984L321.278 153.832C318.921 153.619 316.573 153.403 314.234 153.185L314.127 154.336C311.787 154.118 309.456 153.898 307.133 153.675L307.244 152.524C304.923 152.301 302.611 152.075 300.308 151.848L300.195 152.999C297.845 152.767 295.505 152.534 293.174 152.297L293.292 151.146C290.948 150.908 288.613 150.667 286.289 150.424L286.169 151.575C283.844 151.332 281.529 151.086 279.224 150.838L279.348 149.688C277.011 149.437 274.686 149.184 272.371 148.928L272.243 150.076C269.894 149.817 267.555 149.555 265.228 149.29L265.358 148.142C263.032 147.877 260.717 147.61 258.414 147.341L258.28 148.489C255.952 148.217 253.636 147.943 251.332 147.666L251.47 146.518C249.118 146.235 246.779 145.951 244.452 145.663L244.31 146.81C241.982 146.523 239.667 146.234 237.364 145.941L237.51 144.793C235.19 144.498 232.883 144.2 230.589 143.901L230.439 145.048C228.085 144.74 225.745 144.43 223.419 144.117L223.574 142.972C221.249 142.66 218.938 142.344 216.641 142.027L216.483 143.174L216.482 143.174C214.162 142.853 211.857 142.528 209.567 142.203L209.729 141.058C207.379 140.724 205.044 140.388 202.724 140.048L202.557 141.192C200.236 140.853 197.931 140.511 195.641 140.166L195.813 139.023C193.491 138.673 191.184 138.32 188.895 137.965L188.718 139.107C186.372 138.743 184.043 138.379 181.732 138.01L181.915 136.868C179.606 136.499 177.315 136.128 175.042 135.754L174.853 136.893C172.517 136.509 170.199 136.124 167.901 135.735L167.902 135.735L168.096 134.593C165.764 134.198 163.452 133.8 161.16 133.399L160.961 134.536C158.666 134.135 156.392 133.734 154.138 133.327L154.345 132.188C151.992 131.763 149.66 131.335 147.352 130.904L147.14 132.04C144.827 131.609 142.536 131.176 140.269 130.739L140.489 129.603C138.173 129.157 135.88 128.707 133.613 128.255L133.386 129.389C131.054 128.924 128.748 128.454 126.468 127.983L126.703 126.851C124.421 126.38 122.165 125.906 119.936 125.429L119.694 126.56C117.344 126.056 115.023 125.549 112.733 125.04L112.985 123.911C110.697 123.402 108.44 122.89 106.213 122.374L105.952 123.499C103.621 122.96 101.324 122.418 99.0601 121.872L99.3315 120.749C97.0389 120.196 94.7813 119.64 92.5593 119.08L92.2762 120.201C89.9625 119.618 87.687 119.033 85.4505 118.444L85.7452 117.326C83.4554 116.723 81.207 116.116 79.0001 115.506L78.6918 116.621C76.387 115.983 74.1278 115.341 71.9141 114.696L72.2379 113.588C69.964 112.926 67.7386 112.26 65.5635 111.591L65.2232 112.694C62.9201 111.985 60.6726 111.272 58.481 110.555L58.8406 109.459C56.6045 108.728 54.4275 107.992 52.3109 107.254L51.9299 108.345C49.6242 107.54 47.3901 106.729 45.2269 105.915L45.634 104.835C43.3951 103.992 41.2342 103.146 39.1535 102.295L38.7154 103.366C36.4931 102.458 34.3603 101.544 32.3188 100.626L32.7937 99.5705C30.56 98.5659 28.4379 97.5563 26.4304 96.5428L25.9092 97.5754C23.7111 96.4656 21.6461 95.3501 19.7178 94.2285L20.2998 93.2286C18.1805 91.9959 16.2333 90.7591 14.4609 89.5199L13.7972 90.4671C11.7349 89.0252 9.89858 87.5759 8.29526 86.1189L9.074 85.2625C7.23466 83.5911 5.72795 81.9267 4.55264 80.2738L3.60942 80.9436C2.13255 78.8665 1.13531 76.7785 0.632943 74.6823L1.75696 74.4135C1.534 73.4834 1.41841 72.556 1.41008 71.6299L1.41285 71.2324C1.43845 70.1744 1.60437 69.1212 1.9103 68.0716L0.800614 67.7478C1.40381 65.6787 2.50089 63.6417 4.0762 61.6387L4.98595 62.3533C6.23977 60.7592 7.82515 59.1695 9.74313 57.589L9.00766 56.6959C10.6795 55.3183 12.5829 53.9582 14.7124 52.6178L15.3295 53.5978C17.1599 52.4457 19.1642 51.3036 21.3408 50.1747L20.8078 49.1469C22.7881 48.1198 24.9046 47.1054 27.1538 46.1031L27.6254 47.1607C29.6794 46.2455 31.8471 45.3395 34.1266 44.444L33.7033 43.3671C35.7869 42.5486 37.9611 41.7382 40.2248 40.9381L40.6107 42.0298C42.73 41.2807 44.9293 40.5398 47.2064 39.8067L46.852 38.708C49.0519 37.9997 51.3227 37.2969 53.6646 36.6045L53.9923 37.7143C56.142 37.0786 58.3522 36.4493 60.6209 35.8271L60.3148 34.7129C62.5384 34.103 64.8179 33.4996 67.1525 32.903L67.44 34.0226C69.6448 33.4593 71.8991 32.901 74.2021 32.3497L73.9323 31.2256C76.1745 30.6888 78.4623 30.1573 80.7951 29.6323L81.0492 30.7608C83.2829 30.258 85.5582 29.761 87.8743 29.2691L87.6341 28.137C89.8964 27.6565 92.1976 27.1815 94.5367 26.7116L94.7653 27.8454C97.0117 27.3941 99.2936 26.948 101.61 26.5066L101.393 25.3701C103.681 24.9343 106.002 24.5041 108.356 24.0781L108.562 25.2152C110.811 24.8083 113.091 24.406 115.4 24.0081L115.203 22.8682C117.516 22.4698 119.858 22.0745 122.23 21.6852L122.417 22.8287C124.666 22.4596 126.942 22.0944 129.244 21.7337L129.065 20.5913C131.365 20.2308 133.692 19.8744 136.044 19.5224L136.215 20.6665C138.501 20.3244 140.813 19.9862 143.147 19.6522L142.983 18.5053C145.268 18.1782 147.577 17.8568 149.908 17.5376L150.066 18.6834C152.393 18.3649 154.742 18.0507 157.113 17.7401L156.963 16.5917C159.233 16.2943 161.523 16.0025 163.834 15.7126L163.978 16.8599C166.286 16.5702 168.615 16.2835 170.963 16.0012L170.825 14.852C173.139 14.5738 175.473 14.3007 177.825 14.0298L177.957 15.1788C180.246 14.9152 182.552 14.6552 184.876 14.3986L184.749 13.2467C187.075 12.9899 189.418 12.7385 191.779 12.4887L191.901 13.6384C194.205 13.3946 196.527 13.1539 198.864 12.9169L198.746 11.7663C201.049 11.5326 203.368 11.3028 205.703 11.0758L205.815 12.2273C208.148 12.0005 210.497 11.7767 212.86 11.5566L212.754 10.4043C215.057 10.1898 217.375 9.97653 219.707 9.76845L219.708 9.76945L219.811 10.9227C222.121 10.7167 224.444 10.5143 226.781 10.3146L226.682 9.16148C229.021 8.96168 231.373 8.76551 233.74 8.57213L233.834 9.72514C236.14 9.53669 238.458 9.3508 240.79 9.1685L240.699 8.01462L240.698 8.01362C243.013 7.83263 245.341 7.65593 247.68 7.48105L247.766 8.63582C250.104 8.4611 252.454 8.28911 254.816 8.12053L254.734 6.96683C257.049 6.80162 259.375 6.63841 261.713 6.47915L261.792 7.63373C264.106 7.47613 266.431 7.32209 268.767 7.17037L268.692 6.01491C271.03 5.86311 273.378 5.71473 275.737 5.56886L275.809 6.72328C278.134 6.57956 280.469 6.43958 282.815 6.30167L282.747 5.14637C285.061 5.0103 287.385 4.87682 289.719 4.74644L289.783 5.90164C292.116 5.77132 294.46 5.64429 296.813 5.5197L296.752 4.36359C299.091 4.23974 301.44 4.11876 303.798 4.0006L303.855 5.15661C306.166 5.04083 308.487 4.92819 310.816 4.81793L310.761 3.66196C313.091 3.55163 315.43 3.44408 317.778 3.33931L317.829 4.49518C320.176 4.39047 322.532 4.28848 324.897 4.18936L324.848 3.03258C327.163 2.93555 329.486 2.84045 331.817 2.7488L331.863 3.90651C334.188 3.81515 336.52 3.72598 338.86 3.64001L338.818 2.48338C341.159 2.39737 343.509 2.31529 345.866 2.23473L345.906 3.39034C348.238 3.31063 350.578 3.2339 352.926 3.15955L352.889 2.00306C355.21 1.92957 357.538 1.85918 359.873 1.79095L359.906 2.94737C362.241 2.87918 364.582 2.81282 366.931 2.74993L366.899 1.59355C369.249 1.53063 371.605 1.46944 373.969 1.41185L373.998 2.56913C376.314 2.5127 378.638 2.45876 380.968 2.40749L380.943 1.2503C383.272 1.19905 385.607 1.15023 387.948 1.10417L387.971 2.26228C390.312 2.21623 392.66 2.17253 395.014 2.13169L394.994 0.974623C397.332 0.93405 399.677 0.896816 402.028 0.861416L402.046 2.01746C404.367 1.9825 406.695 1.95048 409.029 1.9206L409.014 0.76365C411.348 0.733755 413.689 0.706186 416.035 0.681401L416.048 1.8383C418.394 1.81353 420.745 1.79112 423.102 1.77148L423.092 0.614646C425.421 0.595242 427.755 0.57855 430.095 0.564189L430.102 1.72095C432.429 1.70667 434.762 1.69526 437.1 1.686L437.095 0.528306C439.434 0.519038 441.778 0.512064 444.127 0.507846L444.129 1.66547C446.477 1.66125 448.831 1.6595 451.19 1.66036L451.19 0.502809C453.513 0.503655 455.84 0.506592 458.172 0.512385L458.168 1.67084C460.499 1.67663 462.835 1.68494 465.176 1.6957L465.181 0.537291C467.522 0.548055 469.868 0.561762 472.218 0.577525L472.211 1.73491C474.553 1.75062 476.9 1.76918 479.252 1.78988L479.262 0.632569C481.588 0.653046 483.917 0.676549 486.252 0.701935L486.239 1.85822C488.572 1.8836 490.91 1.91152 493.252 1.94182L493.266 0.784606C495.609 0.814929 497.956 0.84825 500.307 0.883535L500.29 2.04068C502.628 2.07577 504.97 2.11292 507.316 2.15295L507.336 0.996824C509.663 1.03654 511.995 1.07838 514.331 1.12298L514.31 2.27906C516.644 2.32364 518.983 2.37087 521.325 2.42035L521.349 1.26435C523.692 1.31385 526.039 1.36548 528.389 1.41992L528.362 2.57683C529.537 2.60404 530.713 2.63172 531.889 2.66017C533.066 2.68861 534.241 2.71779 535.416 2.74738L535.445 1.59052Z" stroke="#D9D9D9" stroke-width="2.31601" stroke-dasharray="6.95 6.95"/>
</svg>
