<svg width="90" height="91" viewBox="0 0 90 91" fill="none" xmlns="http://www.w3.org/2000/svg">
<path d="M38.0419 12.7878C37.9597 13.0329 37.9466 13.296 38.0042 13.548C38.0618 13.8001 38.1877 14.0314 38.3682 14.2166L40.6857 16.5917L40.1358 19.9611C40.0931 20.2218 40.1247 20.4893 40.227 20.7328C40.3293 20.9764 40.4982 21.1862 40.7142 21.3383C40.9303 21.4903 41.1848 21.5784 41.4486 21.5925C41.7124 21.6066 41.9748 21.5461 42.2058 21.418L45 19.8711L47.7942 21.418C48.0253 21.5461 48.2877 21.6066 48.5515 21.5925C48.8153 21.5784 49.0698 21.4903 49.2858 21.3383C49.5019 21.1862 49.6707 20.9764 49.773 20.7328C49.8753 20.4893 49.9069 20.2218 49.8642 19.9611L49.3158 16.5917L51.6319 14.2152C51.8121 14.0301 51.9378 13.7989 51.9953 13.547C52.0528 13.2952 52.0397 13.0323 51.9576 12.7874C51.8756 12.5425 51.7276 12.3249 51.53 12.1585C51.3324 11.9921 51.0927 11.8834 50.8374 11.8442L47.693 11.3647L46.2727 8.34125C46.1591 8.09966 45.9791 7.89539 45.7538 7.7523C45.5284 7.60922 45.267 7.53323 45 7.53323C44.7331 7.53323 44.4716 7.60922 44.2463 7.7523C44.0209 7.89539 43.8409 8.09966 43.7274 8.34125L42.3071 11.3647L39.1627 11.8442C38.9072 11.8833 38.6674 11.9921 38.4697 12.1585C38.272 12.325 38.124 12.5427 38.0419 12.7878ZM43.4742 14.0309C43.7025 13.996 43.9187 13.9053 44.1036 13.767C44.2885 13.6287 44.4365 13.4469 44.5346 13.2378L45 12.2464L45.4655 13.2378C45.5635 13.4469 45.7115 13.6287 45.8965 13.767C46.0814 13.9053 46.2975 13.996 46.5258 14.0309L47.7071 14.2109L46.8071 15.1348C46.653 15.2924 46.5382 15.4839 46.4717 15.694C46.4053 15.904 46.3891 16.1268 46.4246 16.3442L46.6214 17.555L45.6807 17.0347C45.4723 16.9196 45.2381 16.8592 45 16.8592C44.762 16.8592 44.5278 16.9196 44.3194 17.0347L43.3772 17.555L43.5755 16.3428C43.6109 16.1257 43.5948 15.9033 43.5287 15.6935C43.4625 15.4837 43.348 15.2923 43.1944 15.1348L42.2944 14.2109L43.4742 14.0309ZM43.5938 1.90625H46.4063V6.125H43.5938V1.90625ZM34.2746 8.62672L36.038 6.43578L39.3244 9.08234L37.5596 11.2733L34.2746 8.62672ZM50.6771 9.08234L53.9621 6.43578L55.7269 8.62672L52.4405 11.2733L50.6771 9.08234ZM45 89.0937C52.9545 89.1076 60.6075 86.0516 66.3646 80.5625C72.1216 75.0734 75.5387 67.5747 75.9038 59.6286C75.9127 59.4384 75.883 59.2484 75.8163 59.0701C75.7497 58.8918 75.6475 58.7289 75.516 58.5912C75.3845 58.4535 75.2265 58.344 75.0514 58.2692C74.8763 58.1945 74.6879 58.156 74.4975 58.1562H64.6875V49.1816L66.7224 48.1648C66.9561 48.048 67.1527 47.8684 67.2901 47.6461C67.4274 47.4238 67.5001 47.1676 67.5 46.9062V39.875C67.4963 38.5396 67.1121 37.233 66.3923 36.1082C65.6725 34.9834 64.647 34.0871 63.436 33.5244C64.2402 32.5373 64.6819 31.3045 64.6875 30.0312C64.6875 28.5394 64.0949 27.1087 63.04 26.0538C61.9851 24.9989 60.5544 24.4062 59.0625 24.4062C57.5707 24.4062 56.1399 24.9989 55.0851 26.0538C54.0302 27.1087 53.4375 28.5394 53.4375 30.0312C53.4431 31.3045 53.8848 32.5373 54.6891 33.5244C53.6374 34.0188 52.7244 34.7657 52.0313 35.6984C51.3383 34.7652 50.4253 34.0178 49.3735 33.523C50.1774 32.5363 50.6191 31.304 50.625 30.0312C50.625 28.5394 50.0324 27.1087 48.9775 26.0538C47.9226 24.9989 46.4919 24.4062 45 24.4062C43.5082 24.4062 42.0774 24.9989 41.0226 26.0538C39.9677 27.1087 39.375 28.5394 39.375 30.0312C39.3806 31.3045 39.8223 32.5373 40.6266 33.5244C39.5749 34.0188 38.6619 34.7657 37.9688 35.6984C37.2758 34.7652 36.3628 34.0178 35.311 33.523C36.1149 32.5363 36.5566 31.304 36.5625 30.0312C36.5625 28.5394 35.9699 27.1087 34.915 26.0538C33.8601 24.9989 32.4294 24.4062 30.9375 24.4062C29.4457 24.4062 28.0149 24.9989 26.9601 26.0538C25.9052 27.1087 25.3125 28.5394 25.3125 30.0312C25.3181 31.3045 25.7598 32.5373 26.5641 33.5244C25.3531 34.0871 24.3276 34.9834 23.6078 36.1082C22.888 37.233 22.5037 38.5396 22.5 39.875V46.9062C22.4999 47.1676 22.5726 47.4238 22.71 47.6461C22.8473 47.8684 23.0439 48.048 23.2777 48.1648L25.3125 49.1816V58.1562H15.5011C15.3109 58.1562 15.1226 58.1948 14.9477 58.2697C14.7728 58.3445 14.6149 58.4541 14.4836 58.5917C14.3522 58.7294 14.2502 58.8922 14.1836 59.0704C14.1171 59.2487 14.0873 59.4386 14.0963 59.6286C14.4614 67.5747 17.8784 75.0734 23.6355 80.5625C29.3925 86.0516 37.0456 89.1076 45 89.0937ZM23.0541 75.7456C25.0347 74.7105 27.1046 73.8562 29.2388 73.1933C30.3152 76.2701 31.9042 79.1428 33.9385 81.6898C33.134 82.0282 32.3561 82.4264 31.6111 82.8809C28.3114 81.0971 25.4019 78.671 23.0541 75.7456ZM29.9728 61.2162C29.9728 61.1333 29.9771 61.0517 29.9785 60.9687H43.5938V68.1223C39.3771 68.1969 35.1818 68.7403 31.0852 69.7423C30.3462 66.9606 29.9732 64.0945 29.9728 61.2162ZM37.9688 48.4784L39.375 49.1816V58.1562H36.5625V49.1816L37.9688 48.4784ZM52.0313 48.4784L53.4375 49.1816V58.1562H50.625V49.1816L52.0313 48.4784ZM58.3777 60.9687C58.3777 61.0531 58.3847 61.1333 58.3847 61.2162C58.385 63.9731 58.0435 66.7194 57.368 69.3922C53.763 68.6197 50.0924 68.1945 46.4063 68.1223V60.9687H58.3777ZM46.4063 70.9348C49.8127 71.0122 53.2045 71.4053 56.5383 72.1091C55.5333 75.0417 54.009 77.7696 52.0383 80.1626L52.47 80.5269C50.4806 80.0552 48.4495 79.7801 46.4063 79.7056V70.9348ZM43.5938 70.9348V79.7056C41.312 79.785 39.0461 80.1184 36.8382 80.6998C34.6931 78.2865 33.0305 75.4844 31.9402 72.4452C35.7589 71.5231 39.6662 71.0168 43.5938 70.9348ZM34.8047 84.3786C38.0425 83.0717 41.5088 82.4248 45 82.4759C48.4913 82.4248 51.9575 83.0717 55.1953 84.3786C48.6351 86.915 41.365 86.915 34.8047 84.3786ZM58.3875 82.8809C57.2486 82.1922 56.0394 81.627 54.7805 81.1948C56.7354 78.6573 58.2582 75.8146 59.2875 72.7812C61.9384 73.4943 64.5058 74.4881 66.946 75.7456C64.5981 78.671 61.6873 81.0971 58.3875 82.8809ZM68.6152 73.4478C65.9115 72.0049 63.0537 70.8714 60.0961 70.0686C60.8275 67.1746 61.1973 64.2012 61.1972 61.2162C61.1972 61.1333 61.1916 61.0517 61.1902 60.9687H72.9858C72.5479 65.4181 71.0491 69.6975 68.6152 73.4478ZM59.0625 27.2187C59.6188 27.2187 60.1626 27.3837 60.6251 27.6927C61.0876 28.0018 61.4481 28.441 61.6609 28.955C61.8738 29.4689 61.9295 30.0344 61.821 30.5799C61.7125 31.1255 61.4446 31.6266 61.0513 32.02C60.6579 32.4133 60.1568 32.6812 59.6112 32.7897C59.0656 32.8982 58.5001 32.8425 57.9862 32.6297C57.4723 32.4168 57.0331 32.0563 56.724 31.5938C56.415 31.1313 56.25 30.5875 56.25 30.0312C56.2508 29.2856 56.5473 28.5706 57.0746 28.0433C57.6019 27.516 58.3168 27.2195 59.0625 27.2187ZM57.6563 35.6562H60.4688C61.5873 35.6574 62.6597 36.1022 63.4506 36.8931C64.2416 37.6841 64.6864 38.7565 64.6875 39.875V46.0372L62.6527 47.0539C62.4189 47.1707 62.2223 47.3504 62.085 47.5727C61.9476 47.795 61.8749 48.0512 61.875 48.3125V58.1562H56.25V48.3125C56.2501 48.0512 56.1775 47.795 56.0401 47.5727C55.9027 47.3504 55.7061 47.1707 55.4724 47.0539L53.4375 46.0372V39.875C53.4386 38.7565 53.8835 37.6841 54.6744 36.8931C55.4653 36.1022 56.5377 35.6574 57.6563 35.6562ZM45 27.2187C45.5563 27.2187 46.1001 27.3837 46.5626 27.6927C47.0251 28.0018 47.3856 28.441 47.5984 28.955C47.8113 29.4689 47.867 30.0344 47.7585 30.5799C47.65 31.1255 47.3821 31.6266 46.9888 32.02C46.5954 32.4133 46.0943 32.6812 45.5487 32.7897C45.0031 32.8982 44.4376 32.8425 43.9237 32.6297C43.4098 32.4168 42.9706 32.0563 42.6615 31.5938C42.3525 31.1313 42.1875 30.5875 42.1875 30.0312C42.1883 29.2856 42.4848 28.5706 43.0121 28.0433C43.5394 27.516 44.2543 27.2195 45 27.2187ZM43.5938 35.6562H46.4063C47.5248 35.6574 48.5972 36.1022 49.3881 36.8931C50.1791 37.6841 50.6239 38.7565 50.625 39.875V46.0372L48.5902 47.0539C48.3564 47.1707 48.1598 47.3504 48.0225 47.5727C47.8851 47.795 47.8124 48.0512 47.8125 48.3125V58.1562H42.1875V48.3125C42.1876 48.0512 42.115 47.795 41.9776 47.5727C41.8402 47.3504 41.6436 47.1707 41.4099 47.0539L39.375 46.0372V39.875C39.3761 38.7565 39.821 37.6841 40.6119 36.8931C41.4028 36.1022 42.4752 35.6574 43.5938 35.6562ZM30.9375 27.2187C31.4938 27.2187 32.0376 27.3837 32.5001 27.6927C32.9626 28.0018 33.3231 28.441 33.5359 28.955C33.7488 29.4689 33.8045 30.0344 33.696 30.5799C33.5875 31.1255 33.3196 31.6266 32.9263 32.02C32.5329 32.4133 32.0318 32.6812 31.4862 32.7897C30.9406 32.8982 30.3751 32.8425 29.8612 32.6297C29.3473 32.4168 28.9081 32.0563 28.599 31.5938C28.29 31.1313 28.125 30.5875 28.125 30.0312C28.1258 29.2856 28.4223 28.5706 28.9496 28.0433C29.4769 27.516 30.1918 27.2195 30.9375 27.2187ZM27.3474 47.0539L25.3125 46.0372V39.875C25.3136 38.7565 25.7585 37.6841 26.5494 36.8931C27.3403 36.1022 28.4127 35.6574 29.5313 35.6562H32.3438C33.4623 35.6574 34.5347 36.1022 35.3257 36.8931C36.1166 37.6841 36.5614 38.7565 36.5625 39.875V46.0372L34.5277 47.0539C34.2939 47.1707 34.0973 47.3504 33.96 47.5727C33.8226 47.795 33.7499 48.0512 33.75 48.3125V58.1562H28.125V48.3125C28.1252 48.0512 28.0525 47.795 27.9151 47.5727C27.7777 47.3504 27.5811 47.1707 27.3474 47.0539ZM27.1646 60.9687C27.1646 61.0531 27.1589 61.1333 27.1589 61.2162C27.1607 64.3487 27.572 67.4675 28.3824 70.4933C25.9604 71.2512 23.6171 72.2406 21.3849 73.4478C18.9515 69.6974 17.4531 65.418 17.0157 60.9687H27.1646Z" fill="url(#paint0_linear_1_4294)"/>
<defs>
<linearGradient id="paint0_linear_1_4294" x1="14.0947" y1="49.0733" x2="75.9053" y2="49.0733" gradientUnits="userSpaceOnUse">
<stop stop-color="#864EFF"/>
<stop offset="1" stop-color="#502F99"/>
</linearGradient>
</defs>
</svg>
