<svg width="61" height="60" viewBox="0 0 61 60" fill="none" xmlns="http://www.w3.org/2000/svg">
<rect x="0.928571" y="0.428571" width="59.1429" height="59.1429" rx="13.2857" fill="#FAF7FF"/>
<rect x="0.928571" y="0.428571" width="59.1429" height="59.1429" rx="13.2857" stroke="url(#paint0_linear_1_4220)" stroke-width="0.857143"/>
<path d="M48.9271 36.8199C48.5275 36.1527 46.8903 34.17 42.6012 36.6678L35.1525 41.0064C34.8454 41.1852 34.534 41.32 34.2121 41.4118C34.3199 41.2059 34.4044 40.9886 34.4637 40.7639C34.8557 39.3007 33.9874 37.7736 32.4869 37.2871C32.4551 37.2768 32.4227 37.2687 32.3898 37.2627C30.2557 36.8778 28.1463 36.1152 26.4514 35.5025C25.8609 35.289 25.3032 35.0874 24.8282 34.9334C22.8908 34.3048 21.1467 35.0785 19.6963 35.9183L14.2258 39.0856L13.7439 38.2341C13.5024 37.8076 13.1083 37.5002 12.634 37.3688C12.16 37.2374 11.6637 37.298 11.2372 37.5393L9.14733 38.7221C8.26471 39.2217 7.95311 40.3461 8.45257 41.2287L14.597 52.0855C14.8384 52.512 15.2325 52.8193 15.7068 52.9507C15.8708 52.9962 16.0374 53.0187 16.2028 53.0187C16.5158 53.0187 16.8246 52.9382 17.1037 52.7803L19.1937 51.5974C20.0763 51.0979 20.388 49.9735 19.8884 49.0908L19.2948 48.0419L20.4587 47.37L29.9664 49.9175C30.5 50.0605 31.0308 50.1316 31.553 50.1315C32.6091 50.1315 33.6295 49.8407 34.5621 49.2665L48.0799 40.9428C49.3479 40.162 49.7518 38.1969 48.9271 36.8199ZM18.4621 50.3049L16.372 51.4878C16.2624 51.5499 16.1567 51.5343 16.1033 51.5196C16.0501 51.5049 15.9514 51.4637 15.8894 51.3541L9.745 40.4973C9.65041 40.3302 9.71177 40.1091 9.87875 40.0146L11.9687 38.8318C12.0208 38.8022 12.0798 38.7866 12.1397 38.7868C12.1798 38.7868 12.2137 38.7935 12.2374 38.8001C12.2907 38.8148 12.3892 38.856 12.4513 38.9656L18.5958 49.8223C18.6904 49.9894 18.6291 50.2104 18.4621 50.3049ZM31.1618 42.8091L32.0882 42.9597C33.4929 43.1843 34.7397 42.9652 35.8997 42.2897L43.3486 37.9512C45.4491 36.7277 47.0583 36.59 47.6529 37.5829C48.0602 38.2628 47.8826 39.3202 47.301 39.6782L33.7833 48.0019C32.7312 48.6496 31.5764 48.8115 30.3507 48.483L20.5458 45.8558C20.3556 45.805 20.1529 45.8316 19.9824 45.9299L18.5631 46.7493L14.9573 40.378L20.4403 37.2034C21.6663 36.4936 22.9908 35.8983 24.37 36.3458C24.8215 36.4923 25.3428 36.6807 25.9464 36.899C27.6798 37.5257 29.8336 38.3043 32.0718 38.7142C32.8056 38.9737 33.216 39.6819 33.029 40.3793C32.7829 41.298 32.0122 41.4118 31.3978 41.3417C30.3057 41.1168 29.2662 40.8202 28.1664 40.5061C27.643 40.3567 27.1017 40.202 26.5451 40.0529C26.4509 40.0276 26.3527 40.0212 26.256 40.0339C26.1593 40.0467 26.0661 40.0783 25.9816 40.1271C25.8972 40.1758 25.8231 40.2407 25.7638 40.3181C25.7044 40.3955 25.6609 40.4838 25.6356 40.578C25.6104 40.6722 25.604 40.7704 25.6167 40.8671C25.6294 40.9638 25.6611 41.057 25.7098 41.1414C25.7586 41.2259 25.8235 41.2999 25.9009 41.3593C25.9782 41.4186 26.0665 41.4622 26.1607 41.4874C26.7056 41.6334 27.2409 41.7863 27.7585 41.9341C28.8971 42.2592 29.9726 42.5663 31.1321 42.8034M12.535 40.8576C12.5492 40.9546 12.5441 41.0534 12.5201 41.1484C12.4961 41.2434 12.4536 41.3328 12.395 41.4113C12.3365 41.4899 12.2631 41.5562 12.1789 41.6064C12.0947 41.6566 12.0015 41.6897 11.9045 41.7039C11.8076 41.718 11.7088 41.713 11.6138 41.689C11.5188 41.665 11.4294 41.6225 11.3508 41.5639C11.2722 41.5054 11.206 41.4319 11.1558 41.3478C11.1056 41.2636 11.0725 41.1704 11.0583 41.0734C11.033 40.8792 11.0852 40.6828 11.2034 40.5266C11.3217 40.3705 11.4966 40.2671 11.6904 40.2388C11.8842 40.2104 12.0814 40.2595 12.2394 40.3752C12.3974 40.491 12.5036 40.6643 12.535 40.8576ZM23.4875 18.5789C23.831 19.2489 24.0035 19.5851 24.0528 19.8647C24.1021 20.1442 24.055 20.5191 23.9615 21.2661C23.9379 21.454 23.9116 21.6633 23.8835 21.8985C23.7288 23.1922 24.4296 24.406 25.6273 24.919C25.845 25.0123 26.0394 25.0941 26.2139 25.1677L26.3063 25.2067L23.5464 31.1346C23.4891 31.2576 23.4666 31.394 23.4814 31.5289C23.4962 31.6637 23.5477 31.792 23.6302 31.8997C23.7128 32.0074 23.8233 32.0904 23.9497 32.1397C24.0761 32.1891 24.2136 32.2028 24.3473 32.1794L27.3809 31.6494L28.9281 34.3121C28.9963 34.4294 29.0954 34.5258 29.2145 34.5908C29.3336 34.6559 29.4683 34.687 29.6039 34.6808C29.7394 34.6747 29.8707 34.6315 29.9835 34.556C30.0962 34.4804 30.1861 34.3754 30.2434 34.2524L32.9832 28.3677L32.929 28.3426C33.3982 28.2006 33.6749 28.1293 33.9019 28.1293C34.1857 28.1293 34.5468 28.2406 35.2662 28.4627L35.5045 28.5361L37.4818 33.1266C37.5354 33.2512 37.6222 33.3588 37.7327 33.4376C37.8433 33.5164 37.9733 33.5633 38.1086 33.5734C38.2439 33.5835 38.3795 33.5563 38.5004 33.4947C38.6214 33.4332 38.7232 33.3397 38.7947 33.2243L40.4185 30.6077L43.4353 31.2256C43.5683 31.2529 43.7061 31.2431 43.834 31.1975C43.9618 31.1519 44.0746 31.0721 44.1603 30.9669C44.246 30.8616 44.3011 30.7349 44.3198 30.6005C44.3385 30.466 44.32 30.3291 44.2663 30.2044L42.019 24.9865C42.0715 24.9641 42.1241 24.9417 42.1766 24.9192C43.3742 24.4063 44.075 23.1924 43.9204 21.8987C43.8923 21.6635 43.8661 21.4542 43.8425 21.2663C43.7488 20.5193 43.7018 20.1444 43.7511 19.8649C43.8004 19.5854 43.9728 19.2491 44.3163 18.5792C44.4027 18.4107 44.4989 18.223 44.6059 18.0116C45.1937 16.8489 44.9502 15.4685 44.0003 14.577C43.8454 14.4317 43.69 14.2869 43.5342 14.1426C42.9823 13.6305 42.7052 13.3736 42.5633 13.1277C42.4213 12.8819 42.3373 12.5135 42.1699 11.7796C42.1278 11.5949 42.0809 11.3892 42.0268 11.1586C41.7297 9.88999 40.6559 8.98908 39.355 8.91677C39.1185 8.90359 38.9079 8.8932 38.7188 8.88373C37.9668 8.84632 37.5894 8.82748 37.3227 8.73039C37.0559 8.6333 36.7547 8.40515 36.1547 7.95052C36.0037 7.83616 35.8356 7.70882 35.646 7.5668C34.603 6.786 33.2014 6.786 32.1584 7.5668C31.9687 7.70882 31.8006 7.83616 31.6496 7.95052C31.0495 8.40515 30.7484 8.6333 30.4817 8.73039C30.2149 8.82748 29.8376 8.84632 29.0856 8.88373C28.8964 8.8932 28.6857 8.90359 28.4493 8.91677C27.1484 8.98917 26.0747 9.89008 25.7776 11.1586C25.7235 11.3892 25.6767 11.5948 25.6344 11.7795C25.467 12.5135 25.383 12.8818 25.241 13.1277C25.0991 13.3735 24.822 13.6305 24.2702 14.1425C24.1143 14.2869 23.9589 14.4317 23.8039 14.5769C22.8539 15.4685 22.6106 16.8488 23.1983 18.0115C23.294 18.201 23.3904 18.3901 23.4875 18.5789ZM29.4975 32.3358L28.405 30.4557C28.3287 30.3244 28.214 30.2197 28.0764 30.1556C27.9387 30.0915 27.7847 30.0712 27.6352 30.0973L25.4932 30.4716L27.6105 25.9239C27.7857 26.1191 27.9813 26.4216 28.304 26.9215C28.4068 27.0807 28.5212 27.2579 28.6509 27.4562C29.2018 28.2986 30.113 28.7762 31.0741 28.7762C31.1013 28.7762 31.1288 28.774 31.1561 28.7732L29.4975 32.3358ZM40.2094 29.0488C40.0606 29.0184 39.9061 29.0342 39.7667 29.0943C39.6272 29.1544 39.5095 29.2557 39.4295 29.3847L38.283 31.2323L37.2072 28.7346C37.9859 28.6039 38.6944 28.1573 39.1528 27.4562C39.2689 27.2784 39.3845 27.1002 39.4996 26.9217C39.908 26.2892 40.1129 25.9718 40.3304 25.7893C40.4152 25.7181 40.5205 25.6522 40.6581 25.5811L42.3395 29.4851L40.2094 29.0488ZM24.8199 15.6597C24.9904 15.4997 25.1429 15.3582 25.28 15.2311C26.598 14.0084 26.6822 13.8625 27.0821 12.1097C27.1237 11.9275 27.17 11.7247 27.2233 11.4971C27.3711 10.8663 27.8847 10.4354 28.5315 10.3994C28.7649 10.3864 28.9726 10.3761 29.1593 10.3667C30.955 10.2773 31.1132 10.2197 32.5463 9.13397C32.6951 9.0211 32.8611 8.89542 33.0482 8.75536C33.3076 8.56118 33.6048 8.46418 33.9021 8.46418C34.1993 8.46418 34.4965 8.56118 34.7559 8.75536C34.9236 8.88097 35.0909 9.00715 35.2578 9.13388C36.6908 10.2196 36.8491 10.2771 38.6448 10.3666C38.8315 10.3759 39.0392 10.3862 39.2725 10.3993C39.9195 10.4353 40.433 10.8662 40.5807 11.497C40.634 11.7246 40.6803 11.9275 40.7219 12.1097C41.1218 13.8624 41.206 14.0083 42.5241 15.231C42.6778 15.3734 42.8311 15.5163 42.984 15.6596C43.4565 16.103 43.5729 16.7631 43.2805 17.3414C43.175 17.5499 43.0801 17.7351 42.9949 17.9014C42.1745 19.5012 42.1453 19.6671 42.369 21.451C42.3922 21.6363 42.4181 21.8428 42.4459 22.0748C42.5228 22.7181 42.1876 23.2986 41.592 23.5537C41.3772 23.6457 41.1855 23.7265 41.0132 23.7991C39.3564 24.4973 39.2274 24.6055 38.2521 26.1159C38.1386 26.292 38.0245 26.4678 37.9099 26.6432C37.5554 27.1854 36.9256 27.4146 36.3052 27.2273C36.0815 27.1597 35.8827 27.0984 35.7042 27.0433C33.9864 26.5133 33.8179 26.5132 32.0997 27.0433C31.9212 27.0984 31.7224 27.1597 31.4987 27.2273C30.8787 27.4147 30.2485 27.1855 29.8939 26.6432C29.7793 26.4678 29.6653 26.2919 29.5517 26.1158C28.5765 24.6055 28.4474 24.4972 26.7906 23.7991C26.6184 23.7265 26.4267 23.6458 26.2119 23.5537C25.6162 23.2986 25.2811 22.7181 25.358 22.0747C25.3858 21.8427 25.4117 21.6361 25.435 21.4508C25.6587 19.6669 25.6294 19.5011 24.809 17.9012C24.7238 17.7349 24.6288 17.5498 24.5234 17.3413C24.2311 16.7632 24.3475 16.1031 24.8199 15.6597ZM33.9018 24.6869C37.6562 24.6869 40.7106 21.6325 40.7106 17.8781C40.7106 14.1238 37.6562 11.0694 33.9018 11.0694C30.1474 11.0694 27.0931 14.1239 27.0931 17.8781C27.0931 21.6325 30.1475 24.6869 33.9018 24.6869ZM33.9018 12.5545C36.8372 12.5545 39.2255 14.9426 39.2255 17.8781C39.2255 20.8135 36.8373 23.2017 33.9018 23.2017C30.9663 23.2017 28.5782 20.8136 28.5782 17.8781C28.5782 14.9425 30.9664 12.5545 33.9018 12.5545ZM32.0115 20.5094L30.1006 18.5983C30.0316 18.5294 29.9769 18.4475 29.9396 18.3575C29.9023 18.2674 29.8831 18.1708 29.8831 18.0733C29.8831 17.9758 29.9023 17.8792 29.9396 17.7891C29.9769 17.6991 30.0316 17.6172 30.1006 17.5483C30.1695 17.4793 30.2514 17.4246 30.3414 17.3873C30.4315 17.35 30.5281 17.3308 30.6256 17.3308C30.7231 17.3308 30.8197 17.35 30.9097 17.3873C30.9998 17.4246 31.0817 17.4793 31.1506 17.5483L32.5614 18.9591L36.6791 15.2222C36.8249 15.0898 37.0174 15.0209 37.2141 15.0304C37.4108 15.0399 37.5957 15.1272 37.728 15.2731C37.8604 15.4189 37.9294 15.6114 37.9198 15.8081C37.9103 16.0048 37.823 16.1897 37.6771 16.322L33.0356 20.5343C32.8991 20.6584 32.7212 20.7271 32.5367 20.727C32.4391 20.7271 32.3425 20.7079 32.2524 20.6705C32.1623 20.6332 32.0804 20.5784 32.0115 20.5094Z" fill="url(#paint1_linear_1_4220)"/>
<defs>
<linearGradient id="paint0_linear_1_4220" x1="30.5" y1="0" x2="30.5" y2="60" gradientUnits="userSpaceOnUse">
<stop stop-color="#BDA0FC"/>
<stop offset="0.653846" stop-color="#E8DEF8"/>
</linearGradient>
<linearGradient id="paint1_linear_1_4220" x1="8.21436" y1="31.8867" x2="49.3572" y2="31.8867" gradientUnits="userSpaceOnUse">
<stop stop-color="#864EFF"/>
<stop offset="1" stop-color="#502F99"/>
</linearGradient>
</defs>
</svg>
