<svg width="30" height="31" viewBox="0 0 30 31" fill="none" xmlns="http://www.w3.org/2000/svg">
<g clip-path="url(#clip0_2866_42582)">
<path d="M12.3974 3.78916C12.3772 3.68228 12.4002 3.57174 12.4614 3.48184C12.5227 3.39195 12.6171 3.33006 12.724 3.3098C14.2212 3.02615 15.7823 3.02709 17.2712 3.30922C17.3245 3.31893 17.3752 3.33908 17.4206 3.36849C17.466 3.39791 17.5052 3.43601 17.5358 3.48061C17.5664 3.52521 17.5879 3.57542 17.599 3.62836C17.6101 3.68129 17.6106 3.73591 17.6006 3.78906C17.5905 3.8422 17.57 3.89283 17.5403 3.93803C17.5106 3.98323 17.4722 4.02211 17.4274 4.05242C17.3826 4.08273 17.3323 4.10388 17.2793 4.11465C17.2263 4.12542 17.1716 4.1256 17.1186 4.11518C15.7301 3.85203 14.2734 3.85103 12.8767 4.11576C12.7698 4.13599 12.6593 4.11294 12.5694 4.0517C12.4795 3.99046 12.4176 3.89603 12.3973 3.78916H12.3974ZM26.449 17.8401C26.5559 17.8603 26.6664 17.8373 26.7563 17.776C26.8462 17.7148 26.9081 17.6204 26.9284 17.5135C27.2125 16.011 27.2123 14.4686 26.9278 12.9662C26.9075 12.8593 26.8456 12.7649 26.7557 12.7036C26.6658 12.6424 26.5553 12.6193 26.4484 12.6396C26.3415 12.6599 26.2471 12.7217 26.1858 12.8116C26.1246 12.9015 26.1015 13.0121 26.1218 13.119C26.2539 13.8163 26.3209 14.5299 26.3209 15.2399C26.3209 15.9499 26.2541 16.6655 26.1223 17.3608C26.1021 17.4677 26.1251 17.5782 26.1864 17.6681C26.2476 17.758 26.3421 17.8199 26.449 17.8402L26.449 17.8401ZM17.1186 26.364C15.7223 26.6287 14.2659 26.6277 12.8767 26.3646C12.8236 26.3541 12.769 26.3543 12.716 26.3651C12.663 26.3759 12.6126 26.397 12.5678 26.4273C12.523 26.4576 12.4847 26.4965 12.455 26.5417C12.4252 26.5869 12.4048 26.6375 12.3947 26.6907C12.3846 26.7438 12.3852 26.7985 12.3963 26.8514C12.4074 26.9043 12.4289 26.9545 12.4595 26.9991C12.4901 27.0437 12.5293 27.0818 12.5746 27.1113C12.62 27.1407 12.6708 27.1608 12.724 27.1705C13.4697 27.3118 14.2346 27.3834 14.9976 27.3834C15.7606 27.3834 16.5238 27.3116 17.2713 27.1699C17.3242 27.1598 17.3747 27.1395 17.4197 27.11C17.4648 27.0804 17.5036 27.0423 17.5339 26.9978C17.5642 26.9533 17.5855 26.9033 17.5964 26.8505C17.6074 26.7978 17.6079 26.7434 17.5979 26.6905C17.5878 26.6376 17.5675 26.5872 17.538 26.5421C17.5084 26.497 17.4703 26.4583 17.4258 26.4279C17.3813 26.3976 17.3313 26.3763 17.2785 26.3654C17.2258 26.3544 17.1714 26.3539 17.1185 26.3639L17.1186 26.364ZM3.54631 12.6396C3.43943 12.6194 3.3289 12.6425 3.23901 12.7037C3.14913 12.765 3.08724 12.8594 3.06695 12.9663C2.78298 14.4688 2.7832 16.0111 3.0676 17.5135C3.0879 17.6204 3.14979 17.7148 3.23968 17.776C3.32956 17.8373 3.44008 17.8603 3.54695 17.8401C3.59988 17.8301 3.65031 17.8097 3.69537 17.7802C3.74043 17.7507 3.77923 17.7126 3.80957 17.6681C3.8399 17.6236 3.86117 17.5735 3.87216 17.5208C3.88315 17.4681 3.88364 17.4137 3.87361 17.3608C3.74143 16.6632 3.67445 15.9496 3.67445 15.2398C3.67445 14.53 3.74125 13.8146 3.87303 13.1189C3.89326 13.012 3.87022 12.9015 3.80896 12.8116C3.7477 12.7217 3.65318 12.6599 3.54631 12.6396ZM29.6455 21.7614C29.4058 22.2156 28.783 22.5215 28.1009 22.1938L25.6397 20.9793C25.5684 20.9441 25.5097 20.9304 25.4301 20.9304H23.6621C23.5283 20.9304 23.4218 20.9745 23.3271 21.0692L22.5096 21.8868C22.9032 21.6997 23.3721 21.6433 23.865 21.7336C24.8211 21.9089 25.6726 22.6207 25.9356 23.4647C26.1647 24.2001 25.9486 24.9474 25.3268 25.5691C24.8676 26.0284 24.3381 26.2666 23.7958 26.2666C23.6155 26.2666 23.4337 26.2402 23.2526 26.1869C22.4134 25.9397 21.7121 25.1363 21.5075 24.1876C21.3952 23.6671 21.4462 23.1685 21.6443 22.7521L20.827 23.5694C20.7323 23.664 20.6883 23.7704 20.6883 23.9043V25.6723C20.6883 25.7519 20.7019 25.8106 20.7372 25.8819L21.9497 28.3391C22.2793 29.0252 21.9733 29.648 21.5192 29.8878C21.3796 29.9615 21.2173 30.0033 21.0465 30.0034C20.6631 30.0034 20.2367 29.7926 19.9257 29.2575L18.4988 26.9346C18.316 26.6369 18.2208 26.3214 18.1996 25.9428L17.9099 23.392C17.9089 23.3836 17.9083 23.3751 17.9079 23.3667C17.8961 23.1373 17.815 22.9548 17.6526 22.7925L16.0112 21.151C15.3405 21.2657 14.6551 21.2657 13.9843 21.151L12.3428 22.7924C12.1804 22.9548 12.0994 23.1373 12.0876 23.3667C12.0872 23.3751 12.0865 23.3836 12.0855 23.392L11.7958 25.9428C11.7746 26.3215 11.6794 26.637 11.4967 26.9346L10.0698 29.2573C9.75894 29.7925 9.33238 30.0034 8.949 30.0034C8.77814 30.0034 8.61584 29.9615 8.47621 29.8878C8.02211 29.648 7.71625 29.0252 8.04391 28.343L9.25838 25.882C9.29359 25.8107 9.30725 25.752 9.30725 25.6724V23.9044C9.30725 23.7705 9.26318 23.6641 9.16856 23.5695L8.35088 22.7518C8.53797 23.1454 8.59445 23.6143 8.5041 24.1072C8.32891 25.0634 7.61705 25.9148 6.77307 26.1778C6.58164 26.2375 6.38939 26.267 6.19873 26.267C5.65709 26.267 5.12846 26.0289 4.66867 25.5692C4.05654 24.957 3.83717 24.2203 4.05086 23.4948C4.29807 22.6556 5.10156 21.9543 6.05019 21.7497C6.57062 21.6375 7.06932 21.6884 7.48562 21.8865L6.66836 21.0693C6.57373 20.9746 6.46727 20.9305 6.33338 20.9305H4.56537C4.48586 20.9305 4.42709 20.9442 4.35578 20.9794L1.89859 22.192C1.2127 22.5215 0.589726 22.2156 0.349961 21.7615C0.110898 21.3086 0.206699 20.6176 0.980195 20.168L3.30314 18.7412C3.6008 18.5583 3.91633 18.463 4.29508 18.4419L6.84578 18.1522C6.85422 18.1512 6.86266 18.1505 6.87115 18.1501C7.10049 18.1384 7.28289 18.0573 7.44537 17.8948L9.08676 16.2534C8.97206 15.5826 8.97206 14.8972 9.08676 14.2263L7.44537 12.585C7.28295 12.4226 7.10049 12.3414 6.87115 12.3297C6.86267 12.3293 6.85421 12.3286 6.84578 12.3276L4.29508 12.0379C3.91639 12.0167 3.60086 11.9215 3.30314 11.7386L0.980312 10.3118C0.20664 9.86234 0.110898 9.17117 0.349961 8.7183C0.589668 8.26414 1.21246 7.95828 1.89461 8.28594L4.35572 9.50041C4.42703 9.53563 4.4858 9.54934 4.56537 9.54934H6.33338C6.46721 9.54934 6.57367 9.50527 6.66824 9.41064L7.48498 8.59391C7.21533 8.72182 6.91047 8.78856 6.58662 8.78856C6.43803 8.78856 6.28539 8.77461 6.13053 8.74619C5.17445 8.57094 4.32297 7.85914 4.05994 7.01516C3.83084 6.2798 4.04693 5.53244 4.66867 4.91076C5.2808 4.29863 6.01756 4.07937 6.74289 4.29295C7.58207 4.54016 8.28344 5.34359 8.4881 6.29228C8.60037 6.81271 8.54939 7.31135 8.35129 7.72766L9.1685 6.91045C9.26324 6.81576 9.3073 6.70935 9.3073 6.57553V4.80758C9.3073 4.72795 9.29359 4.66918 9.25844 4.59799L8.04584 2.14074C7.71631 1.45473 8.02217 0.831875 8.47627 0.592168C8.9292 0.353164 9.62037 0.448847 10.0698 1.22252L11.4967 3.54529C11.6795 3.84301 11.7748 4.15853 11.7959 4.53723L12.0856 7.08793C12.0866 7.09637 12.0872 7.1048 12.0876 7.11324C12.0994 7.34264 12.1805 7.5251 12.3429 7.68746L13.9843 9.32885C14.6551 9.21404 15.3406 9.21404 16.0114 9.32885L17.6528 7.68746C17.8151 7.52504 17.8962 7.34258 17.9079 7.1133C17.9083 7.1048 17.909 7.09637 17.91 7.08793L18.1997 4.53717C18.2208 4.15853 18.3161 3.84301 18.4989 3.54529L19.9258 1.22252C20.3753 0.448847 21.0662 0.353105 21.5193 0.592109C21.9734 0.831816 22.2793 1.45467 21.9517 2.13676L20.7372 4.59787C20.7019 4.66918 20.6883 4.72795 20.6883 4.80746V6.57547C20.6883 6.70935 20.7323 6.81576 20.827 6.91033L21.6446 7.72795C21.4575 7.33437 21.4011 6.86545 21.4914 6.3725C21.6666 5.41643 22.3785 4.56494 23.2224 4.30197C23.9578 4.07299 24.7052 4.28902 25.3268 4.91064C25.9389 5.52277 26.1583 6.25941 25.9446 6.98492C25.6974 7.82416 24.8939 8.52547 23.9453 8.73008C23.769 8.76863 23.589 8.78831 23.4085 8.78879C23.0852 8.78879 22.7802 8.72193 22.5099 8.59326L23.3272 9.41053C23.4218 9.50521 23.5283 9.54928 23.6621 9.54928H25.4302C25.5097 9.54928 25.5685 9.53557 25.6398 9.50041L28.097 8.28787C28.7831 7.95834 29.4059 8.26426 29.6456 8.71836C29.8847 9.17123 29.7889 9.8624 29.0153 10.3119L26.6924 11.7387C26.3948 11.9216 26.0792 12.0168 25.7004 12.0379L23.1497 12.3276C23.1413 12.3286 23.1329 12.3293 23.1244 12.3297C22.8951 12.3415 22.7126 12.4226 22.5503 12.585L20.9088 14.2263C21.0235 14.8972 21.0235 15.5826 20.9088 16.2534L22.5501 17.8947C22.7126 18.0571 22.895 18.1382 23.1244 18.15C23.1329 18.1504 23.1413 18.1511 23.1497 18.1521L25.7004 18.4418C26.0792 18.463 26.3948 18.5582 26.6924 18.7411L29.0153 20.1679C29.7889 20.6173 29.8847 21.3085 29.6456 21.7614L29.6455 21.7614ZM22.5913 7.66572C22.8688 7.93467 23.2996 8.03029 23.7723 7.92828C24.4258 7.7873 24.9955 7.30408 25.1578 6.75318C25.2863 6.31672 25.1481 5.89197 24.7468 5.49072C24.4423 5.18621 24.1244 5.0331 23.7983 5.0331C23.6886 5.0331 23.5779 5.05045 23.4665 5.08514C22.9102 5.25846 22.4189 5.86209 22.2982 6.52045C22.2118 6.99207 22.3159 7.39883 22.5913 7.66572ZM7.42352 7.64627C7.69246 7.36883 7.7882 6.93828 7.68607 6.46514C7.54516 5.81176 7.06187 5.24205 6.51092 5.07975C6.40912 5.04928 6.30347 5.03363 6.19721 5.03328C5.87084 5.03328 5.55291 5.18633 5.24846 5.49078C4.84152 5.89777 4.70506 6.32855 4.84293 6.77111C5.01625 7.3274 5.61988 7.81871 6.27818 7.93936C6.74998 8.02584 7.1565 7.92172 7.42346 7.64633L7.42352 7.64627ZM7.69715 23.9593C7.78357 23.4877 7.67945 23.0809 7.40406 22.814C7.19939 22.6156 6.91146 22.5115 6.58457 22.5115C6.46832 22.5115 6.34715 22.5247 6.22305 22.5515C5.56961 22.6924 4.9999 23.1756 4.83754 23.7266C4.70898 24.163 4.84727 24.5878 5.24857 24.989C5.65557 25.3961 6.08652 25.5325 6.52891 25.3946C7.0852 25.2212 7.5765 24.6176 7.69715 23.9593ZM22.5718 22.8335C22.3029 23.1109 22.2072 23.5414 22.3093 24.0146C22.4502 24.668 22.9335 25.2377 23.4844 25.4C23.9209 25.5286 24.3456 25.3903 24.7468 24.989C25.1539 24.582 25.2903 24.1512 25.1525 23.7087C24.9791 23.1524 24.3754 22.6611 23.7172 22.5404C23.6138 22.5211 23.5088 22.5112 23.4036 22.5108C23.0662 22.5108 22.7774 22.6212 22.5718 22.8335ZM20.1583 14.8297C20.0617 13.603 19.5357 12.4953 18.7309 11.657C18.4664 11.8677 18.1846 12.0557 17.8885 12.2189C18.1424 12.9889 18.3004 13.875 18.3357 14.8297H20.1583ZM15.4078 12.1256C15.8992 12.0869 16.3826 11.9781 16.8432 11.8024C16.4682 10.9854 15.9657 10.4081 15.4078 10.2152V12.1256ZM13.1522 11.8023C13.6125 11.9789 14.0959 12.0879 14.5875 12.126V10.2152C14.0296 10.4081 13.5272 10.9855 13.1522 11.8023ZM12.4808 14.8297H14.5875V12.9485C13.9959 12.909 13.4137 12.7809 12.8602 12.5684C12.6501 13.2397 12.515 14.0108 12.4809 14.8297H12.4808ZM12.4808 15.65C12.5149 16.4687 12.65 17.2397 12.86 17.9109C13.4139 17.6996 13.996 17.5718 14.5874 17.5316V15.65H12.4808ZM13.1521 18.6773C13.5272 19.4942 14.0296 20.0715 14.5875 20.2645V18.354C14.0961 18.3928 13.6127 18.5016 13.1521 18.6773ZM16.8432 18.6773C16.3826 18.5016 15.8992 18.3928 15.4078 18.354V20.2645C15.9657 20.0716 16.4682 19.4942 16.8432 18.6773ZM17.1353 17.9108C17.3453 17.2396 17.4804 16.4687 17.5145 15.6499H15.4077V17.5315C15.9992 17.5717 16.5814 17.6996 17.1353 17.9108ZM17.5145 14.8296C17.4804 14.0109 17.3453 13.2399 17.1353 12.5687C16.5814 12.78 15.9992 12.9078 15.4078 12.9481V14.8296H17.5145L17.5145 14.8296ZM18.107 11.1034C17.7645 10.8451 17.3913 10.6305 16.9959 10.4643C17.2148 10.7485 17.4127 11.079 17.5852 11.4488C17.766 11.3443 17.9402 11.2289 18.107 11.1034H18.107ZM12.9995 10.4643C11.2541 11.1973 9.99209 12.8602 9.83699 14.8297H11.6596C11.7266 13.0205 12.234 11.4578 12.9995 10.4643ZM9.83699 15.65C9.93361 16.8767 10.4597 17.9844 11.2645 18.8227C11.5289 18.6119 11.8107 18.424 12.1069 18.2608C11.853 17.4908 11.6949 16.6047 11.6596 15.65H9.83699ZM11.8884 19.3763C12.2308 19.6345 12.6041 19.8492 12.9995 20.0154C12.7806 19.7312 12.5826 19.4006 12.4101 19.0308C12.2294 19.1353 12.0551 19.2507 11.8884 19.3763ZM16.9959 20.0154C17.3913 19.8492 17.7645 19.6345 18.107 19.3763C17.9402 19.2507 17.7659 19.1353 17.5851 19.0308C17.4127 19.4006 17.2148 19.7312 16.9959 20.0154ZM20.1583 15.65H18.3357C18.3003 16.6047 18.1423 17.4907 17.8884 18.2608C18.1846 18.424 18.4664 18.6119 18.7308 18.8227C19.5356 17.9844 20.0617 16.8767 20.1583 15.65ZM16.9357 9.56416C18.6862 10.1635 20.0739 11.5513 20.6733 13.3017L21.9701 12.0049C22.2728 11.7022 22.6425 11.5361 23.0689 11.5112L25.6199 11.2215C25.6283 11.2205 25.6367 11.2198 25.6452 11.2194C25.8939 11.2067 26.0786 11.1529 26.2629 11.0397L28.5903 9.6101L28.5999 9.60436C28.8726 9.44691 28.9983 9.24939 28.92 9.10121C28.8595 8.98643 28.6884 8.91365 28.4559 9.02539L26.0027 10.2361C25.818 10.3272 25.6361 10.3696 25.4301 10.3696H23.6621C23.3114 10.3696 22.995 10.2386 22.7471 9.99061L20.2469 7.49041C19.999 7.2425 19.8679 6.92615 19.8679 6.57547V4.80746C19.8679 4.60139 19.9104 4.41939 20.0015 4.23477L21.214 1.77769C21.3238 1.54918 21.2511 1.37814 21.1363 1.3175C20.9882 1.23939 20.7906 1.3649 20.6331 1.63766C20.6313 1.64088 20.6293 1.64409 20.6274 1.64727L19.1978 3.97455C19.0846 4.15894 19.0308 4.34363 19.0182 4.59225C19.0177 4.60074 19.017 4.60918 19.0161 4.61762L18.7263 7.16855C18.7015 7.59494 18.5354 7.96461 18.2327 8.26742L16.9358 9.56422L16.9357 9.56416ZM9.32195 13.3017C9.92131 11.5513 11.309 10.1636 13.0595 9.56416L11.7627 8.26736C11.4599 7.96461 11.2938 7.59494 11.2689 7.1685L10.9792 4.6175C10.9782 4.60907 10.9776 4.60061 10.9772 4.59213C10.9645 4.34357 10.9107 4.15883 10.7975 3.97443L9.36789 1.64715C9.36595 1.64397 9.36405 1.64077 9.36221 1.63754C9.20471 1.36484 9.00742 1.23928 8.85894 1.31738C8.74416 1.37797 8.6715 1.54906 8.78312 1.78144L9.99379 4.23471C10.0849 4.41922 10.1273 4.60121 10.1273 4.80734V6.57535C10.1273 6.92598 9.99631 7.24238 9.74828 7.49035L7.24809 9.99055C7.00023 10.2385 6.68383 10.3695 6.3332 10.3695H4.56514C4.359 10.3695 4.17707 10.327 3.9925 10.2359L1.53537 9.0234C1.30697 8.91365 1.13576 8.98631 1.07518 9.10115C0.996953 9.24934 1.12264 9.44686 1.39533 9.6043L1.40494 9.61004L3.73229 11.0396C3.91662 11.1529 4.10137 11.2066 4.34992 11.2193C4.35842 11.2197 4.36686 11.2204 4.37529 11.2214L6.92629 11.5111C7.35262 11.536 7.72229 11.702 8.0251 12.0048L9.32195 13.3016V13.3017ZM13.0595 20.9155C11.3091 20.3161 9.92137 18.9283 9.32195 17.1779L8.02516 18.4748C7.72228 18.7776 7.35262 18.9436 6.92629 18.9685L4.37529 19.2582C4.36686 19.2592 4.3584 19.2599 4.34992 19.2603C4.10137 19.273 3.91662 19.3268 3.73229 19.44L1.40494 20.8696L1.39533 20.8753C1.12264 21.0328 0.996953 21.2303 1.07518 21.3785C1.1357 21.4932 1.30674 21.5659 1.5393 21.4543L3.9925 20.2436C4.17713 20.1525 4.35912 20.11 4.56508 20.11H6.33309C6.68377 20.11 7.00023 20.2411 7.24809 20.4891L9.74822 22.9892C9.99613 23.2371 10.1273 23.5535 10.1273 23.9042V25.6722C10.1273 25.8784 10.0848 26.0603 9.99367 26.2449L8.78119 28.702C8.67144 28.9305 8.7441 29.1016 8.85889 29.1622C9.00707 29.2404 9.20459 29.1147 9.36215 28.842C9.36397 28.8388 9.36584 28.8356 9.36783 28.8324L10.7974 26.5051C10.9107 26.3208 10.9644 26.1361 10.9771 25.8874C10.9775 25.8789 10.9782 25.8705 10.9792 25.8621L11.2688 23.3111C11.2937 22.8846 11.4598 22.515 11.7626 22.2122L13.0594 20.9154L13.0595 20.9155ZM28.5999 20.8753C28.5967 20.8735 28.5935 20.8715 28.5903 20.8696L26.2629 19.44C26.0786 19.3268 25.8938 19.273 25.6452 19.2603C25.6368 19.2599 25.6283 19.2592 25.6199 19.2582L23.0689 18.9685C22.6425 18.9436 22.2728 18.7776 21.9701 18.4748L20.6733 17.178C20.0739 18.9284 18.6861 20.3162 16.9357 20.9155L18.2325 22.2123C18.5353 22.5151 18.7013 22.8847 18.7262 23.3112L19.0159 25.8622C19.0169 25.8706 19.0176 25.8791 19.018 25.8875C19.0308 26.1361 19.0846 26.3209 19.1978 26.5052L20.6273 28.8325L20.6331 28.8421C20.7906 29.1149 20.9881 29.2405 21.1362 29.1623C21.251 29.1017 21.3237 28.9306 21.2121 28.6982L20.0014 26.245C19.9103 26.0603 19.8678 25.8784 19.8678 25.6723V23.9043C19.8678 23.5537 19.9989 23.2373 20.2469 22.9893L22.7471 20.4891C22.995 20.2412 23.3114 20.1102 23.662 20.1102H25.4301C25.6363 20.1102 25.8182 20.1527 26.0027 20.2439L28.4598 21.4563C28.6882 21.566 28.8594 21.4934 28.92 21.3786C28.9983 21.2304 28.8726 21.0329 28.5999 20.8754V20.8753Z" fill="#A2A2A2"/>
</g>
<defs>
<clipPath id="clip0_2866_42582">
<rect width="30" height="30" fill="white" transform="translate(0 0.242188)"/>
</clipPath>
</defs>
</svg>
