<svg width="30" height="30" viewBox="0 0 30 30" fill="none" xmlns="http://www.w3.org/2000/svg">
<g clip-path="url(#clip0_2662_44758)">
<path d="M12.3974 3.54697C12.3772 3.4401 12.4002 3.32955 12.4614 3.23965C12.5227 3.14976 12.6171 3.08787 12.724 3.06762C14.2212 2.78396 15.7823 2.7849 17.2712 3.06703C17.3245 3.07675 17.3752 3.09689 17.4206 3.1263C17.466 3.15572 17.5052 3.19382 17.5358 3.23842C17.5664 3.28302 17.5879 3.33323 17.599 3.38617C17.6101 3.43911 17.6106 3.49372 17.6006 3.54687C17.5905 3.60002 17.57 3.65065 17.5403 3.69585C17.5106 3.74104 17.4722 3.77992 17.4274 3.81023C17.3826 3.84054 17.3323 3.86169 17.2793 3.87246C17.2263 3.88323 17.1716 3.88341 17.1186 3.87299C15.7301 3.60984 14.2734 3.60885 12.8767 3.87357C12.7698 3.8938 12.6593 3.87076 12.5694 3.80951C12.4795 3.74827 12.4176 3.65384 12.3973 3.54697H12.3974ZM26.449 17.5979C26.5559 17.6181 26.6664 17.5951 26.7563 17.5338C26.8462 17.4726 26.9081 17.3782 26.9284 17.2713C27.2125 15.7689 27.2123 14.2264 26.9278 12.724C26.9075 12.6172 26.8456 12.5227 26.7557 12.4614C26.6658 12.4002 26.5553 12.3772 26.4484 12.3974C26.3415 12.4177 26.2471 12.4796 26.1858 12.5695C26.1246 12.6594 26.1015 12.7699 26.1218 12.8768C26.2539 13.5741 26.3209 14.2877 26.3209 14.9977C26.3209 15.7077 26.2541 16.4234 26.1223 17.1186C26.1021 17.2255 26.1251 17.3361 26.1864 17.426C26.2476 17.5158 26.3421 17.5777 26.449 17.598L26.449 17.5979ZM17.1186 26.1218C15.7223 26.3865 14.2659 26.3855 12.8767 26.1224C12.8236 26.112 12.769 26.1121 12.716 26.1229C12.663 26.1337 12.6126 26.1548 12.5678 26.1851C12.523 26.2155 12.4847 26.2543 12.455 26.2995C12.4252 26.3447 12.4048 26.3954 12.3947 26.4485C12.3846 26.5016 12.3852 26.5563 12.3963 26.6092C12.4074 26.6621 12.4289 26.7124 12.4595 26.757C12.4901 26.8015 12.5293 26.8397 12.5746 26.8691C12.62 26.8985 12.6708 26.9186 12.724 26.9283C13.4697 27.0696 14.2346 27.1412 14.9976 27.1412C15.7606 27.1412 16.5238 27.0694 17.2713 26.9277C17.3242 26.9177 17.3747 26.8973 17.4197 26.8678C17.4648 26.8383 17.5036 26.8002 17.5339 26.7556C17.5642 26.7111 17.5855 26.6611 17.5964 26.6083C17.6074 26.5556 17.6079 26.5012 17.5979 26.4483C17.5878 26.3954 17.5675 26.345 17.538 26.2999C17.5084 26.2549 17.4703 26.2161 17.4258 26.1857C17.3813 26.1554 17.3313 26.1342 17.2785 26.1232C17.2258 26.1122 17.1714 26.1117 17.1185 26.1217L17.1186 26.1218ZM3.54631 12.3974C3.43943 12.3772 3.3289 12.4003 3.23901 12.4615C3.14913 12.5228 3.08724 12.6172 3.06695 12.7241C2.78298 14.2266 2.7832 15.7689 3.0676 17.2713C3.0879 17.3782 3.14979 17.4726 3.23968 17.5338C3.32956 17.5951 3.44008 17.6181 3.54695 17.5979C3.59988 17.5879 3.65031 17.5676 3.69537 17.538C3.74043 17.5085 3.77923 17.4704 3.80957 17.4259C3.8399 17.3814 3.86117 17.3313 3.87216 17.2786C3.88315 17.2259 3.88364 17.1715 3.87361 17.1186C3.74143 16.421 3.67445 15.7075 3.67445 14.9977C3.67445 14.2879 3.74125 13.5724 3.87303 12.8767C3.89326 12.7699 3.87022 12.6593 3.80896 12.5694C3.7477 12.4796 3.65318 12.4177 3.54631 12.3974ZM29.6455 21.5193C29.4058 21.9734 28.783 22.2793 28.1009 21.9516L25.6397 20.7371C25.5684 20.7019 25.5097 20.6882 25.4301 20.6882H23.6621C23.5283 20.6882 23.4218 20.7323 23.3271 20.827L22.5096 21.6446C22.9032 21.4575 23.3721 21.4011 23.865 21.4914C24.8211 21.6667 25.6726 22.3785 25.9356 23.2225C26.1647 23.9579 25.9486 24.7052 25.3268 25.3269C24.8676 25.7862 24.3381 26.0244 23.7958 26.0244C23.6155 26.0244 23.4337 25.998 23.2526 25.9447C22.4134 25.6975 21.7121 24.8941 21.5075 23.9454C21.3952 23.425 21.4462 22.9263 21.6443 22.51L20.827 23.3272C20.7323 23.4219 20.6883 23.5283 20.6883 23.6621V25.4302C20.6883 25.5097 20.7019 25.5684 20.7372 25.6397L21.9497 28.0969C22.2793 28.783 21.9733 29.4059 21.5192 29.6456C21.3796 29.7193 21.2173 29.7611 21.0465 29.7612C20.6631 29.7612 20.2367 29.5504 19.9257 29.0153L18.4988 26.6924C18.316 26.3947 18.2208 26.0793 18.1996 25.7006L17.9099 23.1498C17.9089 23.1414 17.9083 23.1329 17.9079 23.1245C17.8961 22.8951 17.815 22.7126 17.6526 22.5503L16.0112 20.9088C15.3405 21.0235 14.6551 21.0235 13.9843 20.9088L12.3428 22.5502C12.1804 22.7126 12.0994 22.8951 12.0876 23.1245C12.0872 23.1329 12.0865 23.1414 12.0855 23.1498L11.7958 25.7006C11.7746 26.0793 11.6794 26.3948 11.4967 26.6924L10.0698 29.0152C9.75894 29.5504 9.33238 29.7612 8.949 29.7612C8.77814 29.7612 8.61584 29.7193 8.47621 29.6456C8.02211 29.4059 7.71625 28.783 8.04391 28.1009L9.25838 25.6398C9.29359 25.5686 9.30725 25.5098 9.30725 25.4302V23.6622C9.30725 23.5283 9.26318 23.4219 9.16856 23.3273L8.35088 22.5096C8.53797 22.9032 8.59445 23.3721 8.5041 23.8651C8.32891 24.8212 7.61705 25.6726 6.77307 25.9356C6.58164 25.9953 6.38939 26.0248 6.19873 26.0248C5.65709 26.0248 5.12846 25.7868 4.66867 25.327C4.05654 24.7148 3.83717 23.9781 4.05086 23.2526C4.29807 22.4135 5.10156 21.7121 6.05019 21.5075C6.57062 21.3953 7.06932 21.4463 7.48562 21.6444L6.66836 20.8271C6.57373 20.7324 6.46727 20.6883 6.33338 20.6883H4.56537C4.48586 20.6883 4.42709 20.7021 4.35578 20.7372L1.89859 21.9498C1.2127 22.2793 0.589726 21.9734 0.349961 21.5193C0.110898 21.0664 0.206699 20.3754 0.980195 19.9259L3.30314 18.499C3.6008 18.3161 3.91633 18.2208 4.29508 18.1997L6.84578 17.91C6.85422 17.909 6.86266 17.9084 6.87115 17.9079C7.10049 17.8962 7.28289 17.8151 7.44537 17.6527L9.08676 16.0112C8.97206 15.3404 8.97206 14.655 9.08676 13.9842L7.44537 12.3428C7.28295 12.1804 7.10049 12.0993 6.87115 12.0875C6.86267 12.0871 6.85421 12.0864 6.84578 12.0854L4.29508 11.7957C3.91639 11.7745 3.60086 11.6793 3.30314 11.4964L0.980312 10.0696C0.20664 9.62016 0.110898 8.92898 0.349961 8.47611C0.589668 8.02195 1.21246 7.71609 1.89461 8.04375L4.35572 9.25822C4.42703 9.29344 4.4858 9.30715 4.56537 9.30715H6.33338C6.46721 9.30715 6.57367 9.26309 6.66824 9.16846L7.48498 8.35172C7.21533 8.47963 6.91047 8.54637 6.58662 8.54637C6.43803 8.54637 6.28539 8.53242 6.13053 8.504C5.17445 8.32875 4.32297 7.61695 4.05994 6.77297C3.83084 6.03762 4.04693 5.29025 4.66867 4.66857C5.2808 4.05645 6.01756 3.83719 6.74289 4.05076C7.58207 4.29797 8.28344 5.10141 8.4881 6.0501C8.60037 6.57053 8.54939 7.06916 8.35129 7.48547L9.1685 6.66826C9.26324 6.57357 9.3073 6.46717 9.3073 6.33334V4.56539C9.3073 4.48576 9.29359 4.42699 9.25844 4.3558L8.04584 1.89855C7.71631 1.21254 8.02217 0.589687 8.47627 0.34998C8.9292 0.110976 9.62037 0.20666 10.0698 0.980332L11.4967 3.30311C11.6795 3.60082 11.7748 3.91635 11.7959 4.29504L12.0856 6.84574C12.0866 6.85418 12.0872 6.86262 12.0876 6.87105C12.0994 7.10045 12.1805 7.28291 12.3429 7.44527L13.9843 9.08666C14.6551 8.97186 15.3406 8.97186 16.0114 9.08666L17.6528 7.44527C17.8151 7.28285 17.8962 7.10039 17.9079 6.87111C17.9083 6.86262 17.909 6.85418 17.91 6.84574L18.1997 4.29498C18.2208 3.91635 18.3161 3.60082 18.4989 3.30311L19.9258 0.980332C20.3753 0.20666 21.0662 0.110918 21.5193 0.349921C21.9734 0.589629 22.2793 1.21248 21.9517 1.89457L20.7372 4.35568C20.7019 4.42699 20.6883 4.48576 20.6883 4.56527V6.33328C20.6883 6.46717 20.7323 6.57357 20.827 6.66814L21.6446 7.48576C21.4575 7.09219 21.4011 6.62326 21.4914 6.13031C21.6666 5.17424 22.3785 4.32275 23.2224 4.05978C23.9578 3.8308 24.7052 4.04684 25.3268 4.66846C25.9389 5.28059 26.1583 6.01723 25.9446 6.74273C25.6974 7.58197 24.8939 8.28328 23.9453 8.48789C23.769 8.52644 23.589 8.54612 23.4085 8.5466C23.0852 8.5466 22.7802 8.47975 22.5099 8.35107L23.3272 9.16834C23.4218 9.26303 23.5283 9.30709 23.6621 9.30709H25.4302C25.5097 9.30709 25.5685 9.29338 25.6398 9.25822L28.097 8.04568C28.7831 7.71615 29.4059 8.02207 29.6456 8.47617C29.8847 8.92904 29.7889 9.62022 29.0153 10.0697L26.6924 11.4965C26.3948 11.6794 26.0792 11.7746 25.7004 11.7957L23.1497 12.0854C23.1413 12.0864 23.1329 12.0871 23.1244 12.0875C22.8951 12.0993 22.7126 12.1804 22.5503 12.3428L20.9088 13.9842C21.0235 14.655 21.0235 15.3404 20.9088 16.0112L22.5501 17.6525C22.7126 17.8149 22.895 17.8961 23.1244 17.9078C23.1329 17.9082 23.1413 17.9089 23.1497 17.9099L25.7004 18.1996C26.0792 18.2208 26.3948 18.3161 26.6924 18.4989L29.0153 19.9257C29.7889 20.3752 29.8847 21.0663 29.6456 21.5192L29.6455 21.5193ZM22.5913 7.42353C22.8688 7.69248 23.2996 7.7881 23.7723 7.68609C24.4258 7.54512 24.9955 7.06189 25.1578 6.511C25.2863 6.07453 25.1481 5.64978 24.7468 5.24853C24.4423 4.94402 24.1244 4.79092 23.7983 4.79092C23.6886 4.79092 23.5779 4.80826 23.4665 4.84295C22.9102 5.01627 22.4189 5.6199 22.2982 6.27826C22.2118 6.74988 22.3159 7.15664 22.5913 7.42353ZM7.42352 7.40408C7.69246 7.12664 7.7882 6.69609 7.68607 6.22295C7.54516 5.56957 7.06187 4.99986 6.51092 4.83756C6.40912 4.80709 6.30347 4.79144 6.19721 4.79109C5.87084 4.79109 5.55291 4.94414 5.24846 5.24859C4.84152 5.65559 4.70506 6.08637 4.84293 6.52893C5.01625 7.08521 5.61988 7.57652 6.27818 7.69717C6.74998 7.78365 7.1565 7.67953 7.42346 7.40414L7.42352 7.40408ZM7.69715 23.7171C7.78357 23.2455 7.67945 22.8387 7.40406 22.5718C7.19939 22.3734 6.91146 22.2693 6.58457 22.2693C6.46832 22.2693 6.34715 22.2825 6.22305 22.3093C5.56961 22.4503 4.9999 22.9334 4.83754 23.4844C4.70898 23.9208 4.84727 24.3456 5.24857 24.7468C5.65557 25.1539 6.08652 25.2903 6.52891 25.1524C7.0852 24.979 7.5765 24.3754 7.69715 23.7171ZM22.5718 22.5913C22.3029 22.8687 22.2072 23.2992 22.3093 23.7724C22.4502 24.4258 22.9335 24.9955 23.4844 25.1578C23.9209 25.2864 24.3456 25.1481 24.7468 24.7468C25.1539 24.3398 25.2903 23.9091 25.1525 23.4665C24.9791 22.9102 24.3754 22.4189 23.7172 22.2983C23.6138 22.2789 23.5088 22.269 23.4036 22.2686C23.0662 22.2686 22.7774 22.3791 22.5718 22.5913ZM20.1583 14.5875C20.0617 13.3608 19.5357 12.2531 18.7309 11.4148C18.4664 11.6256 18.1846 11.8135 17.8885 11.9767C18.1424 12.7467 18.3004 13.6328 18.3357 14.5875H20.1583ZM15.4078 11.8835C15.8992 11.8447 16.3826 11.7359 16.8432 11.5602C16.4682 10.7432 15.9657 10.1659 15.4078 9.97301V11.8835ZM13.1522 11.5601C13.6125 11.7367 14.0959 11.8457 14.5875 11.8838V9.97301C14.0296 10.166 13.5272 10.7433 13.1522 11.5601ZM12.4808 14.5875H14.5875V12.7063C13.9959 12.6668 13.4137 12.5387 12.8602 12.3263C12.6501 12.9975 12.515 13.7686 12.4809 14.5875H12.4808ZM12.4808 15.4078C12.5149 16.2265 12.65 16.9975 12.86 17.6687C13.4139 17.4575 13.996 17.3296 14.5874 17.2894V15.4078H12.4808ZM13.1521 18.4351C13.5272 19.252 14.0296 19.8294 14.5875 20.0223V18.1119C14.0961 18.1506 13.6127 18.2594 13.1521 18.4351ZM16.8432 18.4351C16.3826 18.2594 15.8992 18.1506 15.4078 18.1119V20.0223C15.9657 19.8294 16.4682 19.252 16.8432 18.4351ZM17.1353 17.6687C17.3453 16.9975 17.4804 16.2265 17.5145 15.4078H15.4077V17.2893C15.9992 17.3295 16.5814 17.4574 17.1353 17.6687ZM17.5145 14.5874C17.4804 13.7687 17.3453 12.9977 17.1353 12.3265C16.5814 12.5378 15.9992 12.6656 15.4078 12.7059V14.5874H17.5145L17.5145 14.5874ZM18.107 10.8612C17.7645 10.6029 17.3913 10.3883 16.9959 10.2221C17.2148 10.5063 17.4127 10.8369 17.5852 11.2066C17.766 11.1021 17.9402 10.9868 18.107 10.8612H18.107ZM12.9995 10.2221C11.2541 10.9551 9.99209 12.618 9.83699 14.5875H11.6596C11.7266 12.7784 12.234 11.2156 12.9995 10.2221ZM9.83699 15.4078C9.93361 16.6345 10.4597 17.7422 11.2645 18.5805C11.5289 18.3698 11.8107 18.1818 12.1069 18.0186C11.853 17.2486 11.6949 16.3625 11.6596 15.4078H9.83699ZM11.8884 19.1341C12.2308 19.3923 12.6041 19.607 12.9995 19.7732C12.7806 19.489 12.5826 19.1584 12.4101 18.7886C12.2294 18.8931 12.0551 19.0085 11.8884 19.1341ZM16.9959 19.7732C17.3913 19.607 17.7645 19.3923 18.107 19.1341C17.9402 19.0085 17.7659 18.8931 17.5851 18.7886C17.4127 19.1584 17.2148 19.489 16.9959 19.7732ZM20.1583 15.4078H18.3357C18.3003 16.3625 18.1423 17.2485 17.8884 18.0186C18.1846 18.1818 18.4664 18.3698 18.7308 18.5805C19.5356 17.7422 20.0617 16.6345 20.1583 15.4078ZM16.9357 9.32197C18.6862 9.92133 20.0739 11.3091 20.6733 13.0596L21.9701 11.7628C22.2728 11.46 22.6425 11.2939 23.0689 11.269L25.6199 10.9793C25.6283 10.9783 25.6367 10.9777 25.6452 10.9772C25.8939 10.9645 26.0786 10.9107 26.2629 10.7975L28.5903 9.36791L28.5999 9.36217C28.8726 9.20473 28.9983 9.00721 28.92 8.85902C28.8595 8.74424 28.6884 8.67146 28.4559 8.7832L26.0027 9.99387C25.818 10.085 25.6361 10.1275 25.4301 10.1275H23.6621C23.3114 10.1275 22.995 9.99639 22.7471 9.74842L20.2469 7.24822C19.999 7.00031 19.8679 6.68396 19.8679 6.33328V4.56527C19.8679 4.3592 19.9104 4.17721 20.0015 3.99258L21.214 1.53551C21.3238 1.30699 21.2511 1.13596 21.1363 1.07531C20.9882 0.997207 20.7906 1.12271 20.6331 1.39547C20.6313 1.3987 20.6293 1.4019 20.6274 1.40508L19.1978 3.73236C19.0846 3.91676 19.0308 4.10144 19.0182 4.35006C19.0177 4.35855 19.017 4.36699 19.0161 4.37543L18.7263 6.92637C18.7015 7.35275 18.5354 7.72242 18.2327 8.02523L16.9358 9.32203L16.9357 9.32197ZM9.32195 13.0595C9.92131 11.3091 11.309 9.92139 13.0595 9.32197L11.7627 8.02518C11.4599 7.72242 11.2938 7.35275 11.2689 6.92631L10.9792 4.37531C10.9782 4.36688 10.9776 4.35842 10.9772 4.34994C10.9645 4.10139 10.9107 3.91664 10.7975 3.73225L9.36789 1.40496C9.36595 1.40179 9.36405 1.39858 9.36221 1.39535C9.20471 1.12266 9.00742 0.997089 8.85894 1.07519C8.74416 1.13578 8.6715 1.30687 8.78312 1.53926L9.99379 3.99252C10.0849 4.17703 10.1273 4.35902 10.1273 4.56516V6.33316C10.1273 6.68379 9.99631 7.00019 9.74828 7.24816L7.24809 9.74836C7.00023 9.99627 6.68383 10.1273 6.3332 10.1273H4.56514C4.359 10.1273 4.17707 10.0848 3.9925 9.99369L1.53537 8.78121C1.30697 8.67146 1.13576 8.74412 1.07518 8.85896C0.996953 9.00715 1.12264 9.20467 1.39533 9.36211L1.40494 9.36785L3.73229 10.7974C3.91662 10.9107 4.10137 10.9644 4.34992 10.9771C4.35842 10.9775 4.36686 10.9782 4.37529 10.9792L6.92629 11.2689C7.35262 11.2938 7.72229 11.4598 8.0251 11.7626L9.32195 13.0594V13.0595ZM13.0595 20.6733C11.3091 20.0739 9.92137 18.6861 9.32195 16.9358L8.02516 18.2326C7.72228 18.5354 7.35262 18.7014 6.92629 18.7263L4.37529 19.016C4.36686 19.017 4.3584 19.0177 4.34992 19.0181C4.10137 19.0308 3.91662 19.0846 3.73229 19.1978L1.40494 20.6274L1.39533 20.6331C1.12264 20.7906 0.996953 20.9881 1.07518 21.1363C1.1357 21.251 1.30674 21.3237 1.5393 21.2121L3.9925 20.0014C4.17713 19.9103 4.35912 19.8679 4.56508 19.8679H6.33309C6.68377 19.8679 7.00023 19.9989 7.24809 20.2469L9.74822 22.747C9.99613 22.9949 10.1273 23.3113 10.1273 23.662V25.43C10.1273 25.6362 10.0848 25.8181 9.99367 26.0027L8.78119 28.4598C8.67144 28.6883 8.7441 28.8594 8.85889 28.92C9.00707 28.9982 9.20459 28.8725 9.36215 28.5998C9.36397 28.5966 9.36584 28.5935 9.36783 28.5902L10.7974 26.2629C10.9107 26.0786 10.9644 25.8939 10.9771 25.6452C10.9775 25.6368 10.9782 25.6283 10.9792 25.6199L11.2688 23.0689C11.2937 22.6424 11.4598 22.2728 11.7626 21.97L13.0594 20.6732L13.0595 20.6733ZM28.5999 20.6331C28.5967 20.6313 28.5935 20.6294 28.5903 20.6274L26.2629 19.1978C26.0786 19.0846 25.8938 19.0308 25.6452 19.0181C25.6368 19.0177 25.6283 19.017 25.6199 19.016L23.0689 18.7263C22.6425 18.7014 22.2728 18.5354 21.9701 18.2326L20.6733 16.9358C20.0739 18.6862 18.6861 20.074 16.9357 20.6733L18.2325 21.9701C18.5353 22.2729 18.7013 22.6426 18.7262 23.069L19.0159 25.62C19.0169 25.6284 19.0176 25.6369 19.018 25.6453C19.0308 25.8939 19.0846 26.0787 19.1978 26.263L20.6273 28.5904L20.6331 28.6C20.7906 28.8727 20.9881 28.9983 21.1362 28.9201C21.251 28.8595 21.3237 28.6884 21.2121 28.456L20.0014 26.0028C19.9103 25.8181 19.8678 25.6362 19.8678 25.4302V23.6621C19.8678 23.3115 19.9989 22.9951 20.2469 22.7471L22.7471 20.247C22.995 19.999 23.3114 19.868 23.662 19.868H25.4301C25.6363 19.868 25.8182 19.9105 26.0027 20.0017L28.4598 21.2142C28.6882 21.3238 28.8594 21.2512 28.92 21.1364C28.9983 20.9882 28.8726 20.7907 28.5999 20.6333V20.6331Z" fill="url(#paint0_linear_2662_44758)"/>
</g>
<defs>
<linearGradient id="paint0_linear_2662_44758" x1="0.234375" y1="16.2079" x2="29.7612" y2="16.2079" gradientUnits="userSpaceOnUse">
<stop stop-color="#864EFF"/>
<stop offset="1" stop-color="#502F99"/>
</linearGradient>
<clipPath id="clip0_2662_44758">
<rect width="30" height="30" fill="white"/>
</clipPath>
</defs>
</svg>
