<svg width="90" height="91" viewBox="0 0 90 91" fill="none" xmlns="http://www.w3.org/2000/svg">
<path d="M83.4803 76.1318C83.4486 76.1177 83.4152 76.1054 83.3818 76.0931L77.3438 74.0259V70.8091C78.2169 70.1549 78.9256 69.3062 79.4138 68.3305C79.9019 67.3547 80.1562 66.2787 80.1563 65.1876V59.5626C80.1563 57.6978 79.4155 55.9094 78.0968 54.5908C76.7782 53.2722 74.9898 52.5314 73.125 52.5314C71.2602 52.5314 69.4718 53.2722 68.1532 54.5908C66.8345 55.9094 66.0938 57.6978 66.0938 59.5626V65.1876C66.0938 66.2787 66.3481 67.3547 66.8362 68.3305C67.3244 69.3062 68.0331 70.1549 68.9063 70.8091V74.0259L62.8682 76.0931C62.8348 76.1054 62.8014 76.1177 62.7697 76.1318C61.6974 76.5906 60.7319 77.267 59.9344 78.1181C59.536 77.0498 58.9247 76.0735 58.1375 75.2486C57.3504 74.4236 56.4038 73.7673 55.3553 73.3193C55.3236 73.3052 55.2902 73.2929 55.2568 73.2806L49.2188 71.2134V67.9966C50.0919 67.3424 50.8006 66.4937 51.2888 65.518C51.777 64.5422 52.0312 63.4662 52.0313 62.3751V56.7501C52.0313 54.8853 51.2905 53.0969 49.9719 51.7783C48.6532 50.4597 46.8648 49.7189 45 49.7189C43.1352 49.7189 41.3468 50.4597 40.0282 51.7783C38.7095 53.0969 37.9688 54.8853 37.9688 56.7501V62.3751C37.9688 63.4662 38.2231 64.5422 38.7112 65.518C39.1994 66.4937 39.9081 67.3424 40.7813 67.9966V71.2134L34.7432 73.2806C34.7098 73.2929 34.6764 73.3052 34.6447 73.3193C33.5962 73.7673 32.6496 74.4236 31.8625 75.2486C31.0753 76.0735 30.464 77.0498 30.0656 78.1181C29.2681 77.267 28.3026 76.5906 27.2303 76.1318C27.1986 76.1177 27.1652 76.1054 27.1318 76.0931L21.0938 74.0259V70.8091C21.9669 70.1549 22.6756 69.3062 23.1638 68.3305C23.6519 67.3547 23.9062 66.2787 23.9063 65.1876V59.5626C23.9063 57.6978 23.1655 55.9094 21.8468 54.5908C20.5282 53.2722 18.7398 52.5314 16.875 52.5314C15.0102 52.5314 13.2218 53.2722 11.9032 54.5908C10.5845 55.9094 9.84375 57.6978 9.84375 59.5626V65.1876C9.84385 66.2787 10.0981 67.3547 10.5862 68.3305C11.0744 69.3062 11.7831 70.1549 12.6563 70.8091V74.0259L6.61817 76.0931C6.58477 76.1054 6.55137 76.1177 6.51973 76.1318C5.00124 76.7812 3.70704 77.8625 2.79794 79.2413C1.88883 80.6202 1.40489 82.2357 1.40625 83.8873V87.6876C1.40625 88.0606 1.55441 88.4183 1.81813 88.682C2.08186 88.9457 2.43954 89.0939 2.8125 89.0939H87.1875C87.5605 89.0939 87.9182 88.9457 88.1819 88.682C88.4456 88.4183 88.5938 88.0606 88.5938 87.6876V83.8873C88.5951 82.2357 88.1112 80.6202 87.2021 79.2413C86.293 77.8625 84.9988 76.7812 83.4803 76.1318ZM12.6563 59.5626C12.6563 58.4438 13.1007 57.3707 13.8919 56.5795C14.6831 55.7884 15.7561 55.3439 16.875 55.3439C17.9939 55.3439 19.0669 55.7884 19.8581 56.5795C20.6493 57.3707 21.0938 58.4438 21.0938 59.5626V65.1876C21.0938 66.3065 20.6493 67.3796 19.8581 68.1707C19.0669 68.9619 17.9939 69.4064 16.875 69.4064C15.7561 69.4064 14.6831 68.9619 13.8919 68.1707C13.1007 67.3796 12.6563 66.3065 12.6563 65.1876V59.5626ZM18.2813 72.0783V74.4091C17.7785 74.8204 17.3057 75.0314 16.875 75.0314C16.4443 75.0314 15.9715 74.8204 15.4688 74.4091V72.0783C16.3969 72.2658 17.3531 72.2658 18.2813 72.0783ZM29.5313 86.2814H26.7188V84.8751C26.7188 84.5022 26.5706 84.1445 26.3069 83.8808C26.0431 83.6171 25.6855 83.4689 25.3125 83.4689C24.9395 83.4689 24.5819 83.6171 24.3181 83.8808C24.0544 84.1445 23.9063 84.5022 23.9063 84.8751V86.2814H9.84375V84.8751C9.84375 84.5022 9.69559 84.1445 9.43187 83.8808C9.16815 83.6171 8.81046 83.4689 8.4375 83.4689C8.06454 83.4689 7.70686 83.6171 7.44313 83.8808C7.17941 84.1445 7.03125 84.5022 7.03125 84.8751V86.2814H4.21875V83.8873C4.21758 82.7947 4.53508 81.7256 5.13236 80.8108C5.72963 79.896 6.58075 79.1752 7.58145 78.7369L13.7391 76.6292C14.7445 77.4361 15.7975 77.8439 16.875 77.8439C17.9525 77.8439 19.0055 77.4361 20.0109 76.6292L26.1686 78.7369C27.1693 79.1752 28.0204 79.896 28.6176 80.8108C29.2149 81.7256 29.5324 82.7947 29.5313 83.8873V86.2814ZM40.7813 56.7501C40.7813 55.6313 41.2257 54.5582 42.0169 53.767C42.8081 52.9759 43.8811 52.5314 45 52.5314C46.1189 52.5314 47.1919 52.9759 47.9831 53.767C48.7743 54.5582 49.2188 55.6313 49.2188 56.7501V62.3751C49.2188 63.494 48.7743 64.5671 47.9831 65.3582C47.1919 66.1494 46.1189 66.5939 45 66.5939C43.8811 66.5939 42.8081 66.1494 42.0169 65.3582C41.2257 64.5671 40.7813 63.494 40.7813 62.3751V56.7501ZM46.4063 69.2658V71.5966C45.9035 72.0079 45.4307 72.2189 45 72.2189C44.5693 72.2189 44.0965 72.0079 43.5938 71.5966V69.2658C44.5219 69.4533 45.4781 69.4533 46.4063 69.2658ZM57.6563 86.2814H54.8438V82.0626C54.8438 81.6897 54.6956 81.332 54.4319 81.0683C54.1682 80.8046 53.8105 80.6564 53.4375 80.6564C53.0645 80.6564 52.7069 80.8046 52.4431 81.0683C52.1794 81.332 52.0313 81.6897 52.0313 82.0626V86.2814H37.9688V82.0626C37.9688 81.6897 37.8206 81.332 37.5569 81.0683C37.2931 80.8046 36.9355 80.6564 36.5625 80.6564C36.1895 80.6564 35.8319 80.8046 35.5681 81.0683C35.3044 81.332 35.1563 81.6897 35.1563 82.0626V86.2814H32.3438V81.0748C32.3426 79.9822 32.6601 78.9131 33.2574 77.9983C33.8546 77.0835 34.7057 76.3627 35.7064 75.9244L41.8641 73.8167C42.8695 74.6236 43.9225 75.0314 45 75.0314C46.0775 75.0314 47.1305 74.6236 48.1359 73.8167L54.2936 75.9244C55.2943 76.3627 56.1454 77.0835 56.7427 77.9983C57.3399 78.9131 57.6574 79.9822 57.6563 81.0748V86.2814ZM68.9063 59.5626C68.9063 58.4438 69.3507 57.3707 70.1419 56.5795C70.9331 55.7884 72.0061 55.3439 73.125 55.3439C74.2439 55.3439 75.3169 55.7884 76.1081 56.5795C76.8993 57.3707 77.3438 58.4438 77.3438 59.5626V65.1876C77.3438 66.3065 76.8993 67.3796 76.1081 68.1707C75.3169 68.9619 74.2439 69.4064 73.125 69.4064C72.0061 69.4064 70.9331 68.9619 70.1419 68.1707C69.3507 67.3796 68.9063 66.3065 68.9063 65.1876V59.5626ZM74.5313 72.0783V74.4091C74.0285 74.8204 73.5557 75.0314 73.125 75.0314C72.6943 75.0314 72.2215 74.8204 71.7188 74.4091V72.0783C72.6469 72.2658 73.6031 72.2658 74.5313 72.0783ZM85.7813 86.2814H82.9688V84.8751C82.9688 84.5022 82.8206 84.1445 82.5569 83.8808C82.2932 83.6171 81.9355 83.4689 81.5625 83.4689C81.1895 83.4689 80.8319 83.6171 80.5681 83.8808C80.3044 84.1445 80.1563 84.5022 80.1563 84.8751V86.2814H66.0938V84.8751C66.0938 84.5022 65.9456 84.1445 65.6819 83.8808C65.4182 83.6171 65.0605 83.4689 64.6875 83.4689C64.3145 83.4689 63.9569 83.6171 63.6931 83.8808C63.4294 84.1445 63.2813 84.5022 63.2813 84.8751V86.2814H60.4688V83.8873C60.4676 82.7947 60.7851 81.7256 61.3824 80.8108C61.9796 79.896 62.8307 79.1752 63.8315 78.7369L69.9891 76.6292C70.9945 77.4361 72.0475 77.8439 73.125 77.8439C74.2025 77.8439 75.2555 77.4361 76.2609 76.6292L82.4186 78.7369C83.4193 79.1752 84.2704 79.896 84.8677 80.8108C85.4649 81.7256 85.7824 82.7947 85.7813 83.8873V86.2814ZM37.9688 13.1564H40.7813V45.5001C40.7813 45.8731 40.9294 46.2308 41.1931 46.4945C41.4569 46.7582 41.8145 46.9064 42.1875 46.9064H47.8125C48.1855 46.9064 48.5432 46.7582 48.8069 46.4945C49.0706 46.2308 49.2188 45.8731 49.2188 45.5001V13.1564H52.0313C52.2986 13.1564 52.5603 13.0803 52.7859 12.9368C53.0115 12.7934 53.1915 12.5887 53.3049 12.3466C53.4182 12.1045 53.4603 11.8352 53.426 11.5701C53.3918 11.305 53.2827 11.0551 53.1116 10.8498L46.0804 2.41229C45.9484 2.25391 45.7832 2.12648 45.5965 2.03903C45.4098 1.95158 45.2062 1.90625 45 1.90625C44.7938 1.90625 44.5902 1.95158 44.4035 2.03903C44.2168 2.12648 44.0516 2.25391 43.9197 2.41229L36.8884 10.8498C36.7173 11.0551 36.6082 11.305 36.574 11.5701C36.5397 11.8352 36.5818 12.1045 36.6951 12.3466C36.8085 12.5887 36.9885 12.7934 37.2141 12.9368C37.4397 13.0803 37.7015 13.1564 37.9688 13.1564ZM45 5.50991L49.0287 10.3439H47.8125C47.4395 10.3439 47.0819 10.492 46.8181 10.7558C46.5544 11.0195 46.4063 11.3772 46.4063 11.7501V44.0939H43.5938V11.7501C43.5938 11.3772 43.4456 11.0195 43.1819 10.7558C42.9181 10.492 42.5605 10.3439 42.1875 10.3439H40.9713L45 5.50991ZM12.6563 49.7189C12.6563 50.0919 12.8044 50.4495 13.0681 50.7133C13.3319 50.977 13.6895 51.1251 14.0625 51.1251H19.6875C20.0605 51.1251 20.4181 50.977 20.6819 50.7133C20.9456 50.4495 21.0938 50.0919 21.0938 49.7189V41.2814H30.9375C31.3105 41.2814 31.6681 41.1332 31.9319 40.8695C32.1956 40.6058 32.3438 40.2481 32.3438 39.8751V24.4064H35.1563C35.4236 24.4064 35.6853 24.3303 35.9109 24.1868C36.1365 24.0434 36.3165 23.8387 36.4299 23.5966C36.5432 23.3545 36.5853 23.0852 36.551 22.8201C36.5168 22.555 36.4077 22.3051 36.2366 22.0998L29.2054 13.6623C29.0734 13.5039 28.9082 13.3765 28.7215 13.289C28.5348 13.2016 28.3312 13.1562 28.125 13.1562C27.9188 13.1562 27.7152 13.2016 27.5285 13.289C27.3418 13.3765 27.1766 13.5039 27.0447 13.6623L20.0134 22.0998C19.8423 22.3051 19.7332 22.555 19.699 22.8201C19.6647 23.0852 19.7068 23.3545 19.8202 23.5966C19.9335 23.8387 20.1135 24.0434 20.3391 24.1868C20.5647 24.3303 20.8265 24.4064 21.0938 24.4064H23.9063V32.8439H14.0045C13.8186 32.8439 13.6346 32.8807 13.463 32.9523C13.2914 33.0239 13.1358 33.1287 13.005 33.2609C12.8742 33.393 12.7709 33.5497 12.7011 33.722C12.6313 33.8943 12.5963 34.0787 12.5982 34.2646L12.6563 39.8751V49.7189ZM25.3125 35.6564C25.6855 35.6564 26.0431 35.5082 26.3069 35.2445C26.5706 34.9808 26.7188 34.6231 26.7188 34.2501V23.0001C26.7188 22.6272 26.5706 22.2695 26.3069 22.0058C26.0431 21.742 25.6855 21.5939 25.3125 21.5939H24.0963L28.125 16.7599L32.1539 21.5939H30.9375C30.5645 21.5939 30.2069 21.742 29.9431 22.0058C29.6794 22.2695 29.5313 22.6272 29.5313 23.0001V38.4689H19.6875C19.3145 38.4689 18.9569 38.617 18.6931 38.8808C18.4294 39.1445 18.2813 39.5022 18.2813 39.8751V48.3126H15.4688V39.8607L15.4253 35.6564H25.3125ZM54.9615 24.4064H57.6563V39.8751C57.6563 40.2481 57.8044 40.6058 58.0681 40.8695C58.3319 41.1332 58.6895 41.2814 59.0625 41.2814H68.9063V49.7189C68.9063 50.0919 69.0544 50.4495 69.3181 50.7133C69.5819 50.977 69.9395 51.1251 70.3125 51.1251H75.9375C76.3105 51.1251 76.6682 50.977 76.9319 50.7133C77.1956 50.4495 77.3438 50.0919 77.3438 49.7189V34.2501C77.3438 33.8772 77.1956 33.5195 76.9319 33.2558C76.6682 32.992 76.3105 32.8439 75.9375 32.8439H66.0938V24.4064H68.8483C69.1156 24.4064 69.3773 24.3303 69.6029 24.1868C69.8285 24.0434 70.0085 23.8387 70.1218 23.5966C70.2352 23.3545 70.2773 23.0852 70.243 22.8201C70.2088 22.555 70.0997 22.3051 69.9286 22.0998L62.8974 13.6623C62.7654 13.5039 62.6002 13.3765 62.4135 13.2891C62.2268 13.2017 62.0232 13.1564 61.817 13.1564H61.8082C61.6006 13.1577 61.3958 13.2049 61.2087 13.2947C61.0215 13.3846 60.8565 13.5147 60.7256 13.6758L53.8701 22.1133C53.7025 22.3196 53.5968 22.5692 53.5652 22.8331C53.5336 23.097 53.5775 23.3645 53.6917 23.6045C53.806 23.8445 53.9859 24.0472 54.2106 24.1891C54.4354 24.3311 54.6957 24.4064 54.9615 24.4064ZM61.8307 16.7757L65.8457 21.5939H64.6875C64.3145 21.5939 63.9569 21.742 63.6931 22.0058C63.4294 22.2695 63.2813 22.6272 63.2813 23.0001V34.2501C63.2813 34.6231 63.4294 34.9808 63.6931 35.2445C63.9569 35.5082 64.3145 35.6564 64.6875 35.6564H74.5313V48.3126H71.7188V39.8751C71.7188 39.5022 71.5706 39.1445 71.3069 38.8808C71.0432 38.617 70.6855 38.4689 70.3125 38.4689H60.4688V23.0001C60.4688 22.6272 60.3206 22.2695 60.0569 22.0058C59.7932 21.742 59.4355 21.5939 59.0625 21.5939H57.9161L61.8307 16.7757Z" fill="url(#paint0_linear_1_4301)"/>
<defs>
<linearGradient id="paint0_linear_1_4301" x1="1.40625" y1="49.0733" x2="88.5938" y2="49.0733" gradientUnits="userSpaceOnUse">
<stop stop-color="#864EFF"/>
<stop offset="1" stop-color="#502F99"/>
</linearGradient>
</defs>
</svg>
