<svg width="61" height="60" viewBox="0 0 61 60" fill="none" xmlns="http://www.w3.org/2000/svg">
<path d="M14.2139 0.428711H46.7861C54.1233 0.428938 60.0711 6.3767 60.0713 13.7139V46.2861C60.0711 53.6233 54.1233 59.5711 46.7861 59.5713H14.2139C6.8767 59.5711 0.928938 53.6233 0.928711 46.2861V13.7139C0.928939 6.3767 6.8767 0.428937 14.2139 0.428711Z" fill="#FAF7FF"/>
<path d="M14.2139 0.428711H46.7861C54.1233 0.428938 60.0711 6.3767 60.0713 13.7139V46.2861C60.0711 53.6233 54.1233 59.5711 46.7861 59.5713H14.2139C6.8767 59.5711 0.928938 53.6233 0.928711 46.2861V13.7139C0.928939 6.3767 6.8767 0.428937 14.2139 0.428711Z" stroke="url(#paint0_linear_1_4226)" stroke-width="0.857143"/>
<path d="M49.5928 40.1288L44.7433 35.2792C44.639 35.1802 44.5007 35.1249 44.3568 35.1249C44.213 35.1249 44.0746 35.1802 43.9704 35.2792L43.721 35.5348L42.8546 34.6684C45.0051 31.3896 44.6436 26.9328 41.7638 24.053C38.4663 20.7556 33.1057 20.7618 29.8145 24.053C28.2187 25.6487 27.3398 27.7743 27.3398 30.0308C27.3398 32.2872 28.2187 34.4128 29.8145 36.0085C31.4601 37.6541 33.6293 38.4769 35.7922 38.4769C37.4067 38.4769 39.0273 38.0157 40.4298 37.0931L41.3025 37.9658L41.0532 38.2151C40.8412 38.4271 40.8412 38.7761 41.0532 38.9881L45.9027 43.8376C46.3951 44.33 47.0559 44.6043 47.754 44.6043C48.4521 44.6043 49.1129 44.33 49.6053 43.8376C50.0977 43.3452 50.372 42.6844 50.372 41.9863C50.3595 41.2757 50.0915 40.6212 49.5928 40.1288ZM30.5874 35.2294C29.9014 34.5477 29.3575 33.7366 28.9873 32.8432C28.6171 31.9497 28.4279 30.9917 28.4307 30.0245C28.4307 28.061 29.1974 26.2097 30.5874 24.8197C32.0211 23.386 33.9098 22.6692 35.7922 22.6692C37.6747 22.6692 39.5634 23.386 40.9971 24.8197C43.8644 27.687 43.8644 32.3558 40.9971 35.2294C38.1235 38.0967 33.4547 38.0967 30.5874 35.2294ZM41.3025 36.4199C41.4583 36.2828 41.6204 36.1519 41.77 36.0023C41.9196 35.8527 42.0567 35.6969 42.1876 35.5348L42.9543 36.3015L42.0692 37.1866L41.3025 36.4199ZM48.8199 43.0584C48.2402 43.6381 47.2366 43.6319 46.6569 43.0584L42.1939 38.5954L42.4432 38.3398L43.2722 37.5108L44.3506 36.4324L48.8137 40.8955C49.1004 41.1822 49.2625 41.5687 49.2625 41.9738C49.2687 42.3852 49.1129 42.7717 48.8199 43.0584Z" fill="url(#paint1_linear_1_4226)"/>
<path d="M35.7857 24.0657C34.1962 24.0657 32.7002 24.6828 31.572 25.811C30.4438 26.9392 29.8267 28.4352 29.8267 30.0247C29.8267 30.3239 30.0698 30.5733 30.3752 30.5733C30.6806 30.5733 30.9237 30.3302 30.9237 30.0247C30.9237 28.7282 31.4286 27.5065 32.3512 26.5839C32.801 26.1293 33.337 25.7689 33.9278 25.5238C34.5186 25.2787 35.1524 25.1538 35.792 25.1565C36.0912 25.1565 36.3405 24.9134 36.3405 24.608C36.3376 24.4629 36.2778 24.3248 36.174 24.2234C36.0703 24.1219 35.9308 24.0653 35.7857 24.0657Z" fill="url(#paint2_linear_1_4226)"/>
<path d="M39.8934 39.0384C39.5942 39.0384 39.3449 39.2815 39.3449 39.5869V46.2067C39.3449 47.6217 38.1917 48.7811 36.7705 48.7811H14.2869C12.8719 48.7811 11.7125 47.6279 11.7125 46.2067V13.7934C11.7125 12.3784 12.8657 11.219 14.2869 11.219H19.4045V13.2448H14.2869C13.9877 13.2511 13.7446 13.4942 13.7446 13.7934V46.2067C13.7446 46.5059 13.9877 46.7552 14.2931 46.7552H36.783C37.0822 46.7552 37.3315 46.5121 37.3315 46.2067V40.3785C37.3315 40.0793 37.0884 39.83 36.783 39.83C36.4776 39.83 36.2345 40.0731 36.2345 40.3785V45.6644H14.8354V14.3419H19.4045V14.9403C19.4045 15.7008 20.0278 16.3241 20.7883 16.3241H30.2816C31.0421 16.3241 31.6654 15.7008 31.6654 14.9403V14.3419H36.2345V19.6714C36.2345 19.9706 36.4776 20.2199 36.783 20.2199C37.0884 20.2199 37.3315 19.9768 37.3315 19.6714V13.7934C37.3315 13.4942 37.0884 13.2448 36.783 13.2448H31.6654V11.2252H36.783C38.198 11.2252 39.3574 12.3784 39.3574 13.7996V20.4755C39.3574 20.7747 39.6005 21.024 39.9059 21.024C40.2113 21.024 40.4544 20.7809 40.4544 20.4755V13.7934C40.4528 12.8218 40.0661 11.8905 39.3791 11.2035C38.6921 10.5165 37.7608 10.1298 36.7892 10.1282H14.2869C12.2673 10.1344 10.6279 11.7738 10.6279 13.7934V46.2067C10.6296 47.1783 11.0163 48.1096 11.7033 48.7966C12.3903 49.4836 13.3216 49.8703 14.2931 49.8719H36.783C37.7546 49.8703 38.6859 49.4836 39.3729 48.7966C40.0599 48.1096 40.4465 47.1783 40.4482 46.2067V39.5807C40.4442 39.436 40.384 39.2985 40.2805 39.1973C40.177 39.0961 40.0382 39.0391 39.8934 39.0384ZM30.5746 14.9403C30.5746 15.1024 30.4437 15.2333 30.2816 15.2333H20.7883C20.7106 15.2333 20.636 15.2024 20.5811 15.1475C20.5262 15.0925 20.4953 15.018 20.4953 14.9403V11.2252H30.5746V14.9403Z" fill="url(#paint3_linear_1_4226)"/>
<path d="M22.8829 18.2934C22.8829 17.9942 22.6398 17.7449 22.3344 17.7449H16.7805C16.4813 17.7449 16.2319 17.988 16.2319 18.2934V23.8473C16.2319 24.1465 16.475 24.3958 16.7805 24.3958H22.3344C22.6336 24.3958 22.8829 24.1527 22.8829 23.8473V18.2934ZM21.7921 23.305H17.329V18.8419H21.7921V23.305Z" fill="url(#paint4_linear_1_4226)"/>
<path d="M18.557 22.376C18.6629 22.482 18.8001 22.5381 18.9434 22.5381C19.0868 22.5381 19.2239 22.4882 19.3299 22.376L21.1687 20.5372C21.3807 20.3253 21.3807 19.9762 21.1687 19.7643C20.9568 19.5523 20.6077 19.5523 20.3958 19.7643L18.9434 21.2166L18.7128 20.986C18.5009 20.7741 18.1518 20.7741 17.9399 20.986C17.7279 21.1979 17.7279 21.547 17.9399 21.7589L18.557 22.376ZM34.2899 19.8266C34.2899 19.5274 34.0468 19.2781 33.7414 19.2781H24.6345C24.3353 19.2781 24.0859 19.5212 24.0859 19.8266C24.0859 20.132 24.329 20.3751 24.6345 20.3751H33.7414C34.0468 20.3689 34.2899 20.1258 34.2899 19.8266ZM28.9791 22.6004C28.9791 22.3012 28.736 22.0519 28.4306 22.0519H24.6282C24.329 22.0519 24.0797 22.295 24.0797 22.6004C24.0797 22.9059 24.3353 23.1427 24.6345 23.1427H28.4368C28.736 23.1427 28.9791 22.8996 28.9791 22.6004ZM22.8829 28.2167C22.8829 27.9175 22.6398 27.6681 22.3344 27.6681H16.7805C16.4813 27.6681 16.2319 27.9112 16.2319 28.2167V33.7706C16.2319 34.0698 16.475 34.3191 16.7805 34.3191H22.3344C22.6336 34.3191 22.8829 34.076 22.8829 33.7706V28.2167ZM21.7921 33.222H17.329V28.759H21.7921V33.222Z" fill="url(#paint5_linear_1_4226)"/>
<path d="M18.557 32.2999C18.6567 32.3996 18.8001 32.462 18.9434 32.462C19.0868 32.462 19.2302 32.4059 19.3299 32.2999L21.1687 30.4611C21.3807 30.2491 21.3807 29.9001 21.1687 29.6881C20.9568 29.4762 20.6077 29.4762 20.3958 29.6881L18.9434 31.1405L18.7128 30.9099C18.5009 30.6979 18.1518 30.6979 17.9399 30.9099C17.7279 31.1218 17.7279 31.4709 17.9399 31.6828L18.557 32.2999ZM24.6345 30.2865H25.3887C25.6879 30.2865 25.9372 30.0434 25.9372 29.738C25.9372 29.4326 25.6941 29.1895 25.3887 29.1895H24.6345C24.3353 29.1895 24.0859 29.4326 24.0859 29.738C24.0859 30.0434 24.3353 30.2865 24.6345 30.2865ZM25.6879 31.9758H24.6345C24.3353 31.9758 24.0859 32.2189 24.0859 32.5243C24.0859 32.8297 24.329 33.0728 24.6345 33.0728H25.6879C25.9871 33.0728 26.2364 32.8297 26.2364 32.5243C26.2364 32.2189 25.9933 31.9758 25.6879 31.9758ZM22.3344 37.592H16.7805C16.4813 37.592 16.2319 37.8351 16.2319 38.1405V43.6944C16.2319 43.9936 16.475 44.243 16.7805 44.243H22.3344C22.6336 44.243 22.8829 43.9999 22.8829 43.6944V38.1405C22.8829 37.8351 22.6398 37.592 22.3344 37.592ZM21.7921 43.1397H17.329V38.6766H21.7921V43.1397ZM31.8714 39.1192H24.6345C24.3353 39.1192 24.0859 39.3623 24.0859 39.6677C24.0859 39.9731 24.329 40.2162 24.6345 40.2162H31.8714C32.1706 40.2162 32.4199 39.9731 32.4199 39.6677C32.4199 39.3623 32.1768 39.1192 31.8714 39.1192ZM24.6345 41.893C24.3353 41.893 24.0859 42.1361 24.0859 42.4415C24.0859 42.747 24.329 42.9901 24.6345 42.9901H31.8963C32.1955 42.9901 32.4448 42.747 32.4448 42.4415C32.4448 42.1361 32.2017 41.893 31.8963 41.893H24.6345Z" fill="url(#paint6_linear_1_4226)"/>
<path d="M18.2507 42.2174C18.3012 42.2686 18.3614 42.3094 18.4277 42.3371C18.4941 42.3649 18.5653 42.3792 18.6372 42.3792C18.7091 42.3792 18.7804 42.3649 18.8467 42.3371C18.9131 42.3094 18.9732 42.2686 19.0237 42.2174L19.5597 41.6813L20.0958 42.2174C20.2018 42.3233 20.3451 42.3794 20.4823 42.3794C20.6194 42.3794 20.7628 42.3296 20.8687 42.2174C21.0807 42.0054 21.0807 41.6564 20.8687 41.4444L20.3327 40.9084L20.8687 40.3723C21.0807 40.1604 21.0807 39.8113 20.8687 39.5994C20.6568 39.3874 20.3077 39.3874 20.0958 39.5994L19.5597 40.1354L19.0237 39.5994C18.8117 39.3874 18.4627 39.3874 18.2507 39.5994C18.0388 39.8113 18.0388 40.1604 18.2507 40.3723L18.7868 40.9084L18.2507 41.4444C18.0388 41.6626 18.0388 42.0054 18.2507 42.2174Z" fill="url(#paint7_linear_1_4226)"/>
<defs>
<linearGradient id="paint0_linear_1_4226" x1="30.5" y1="0" x2="30.5" y2="60" gradientUnits="userSpaceOnUse">
<stop stop-color="#BDA0FC"/>
<stop offset="0.653846" stop-color="#E8DEF8"/>
</linearGradient>
<linearGradient id="paint1_linear_1_4226" x1="27.3398" y1="34.0368" x2="50.372" y2="34.0368" gradientUnits="userSpaceOnUse">
<stop stop-color="#864EFF"/>
<stop offset="1" stop-color="#502F99"/>
</linearGradient>
<linearGradient id="paint2_linear_1_4226" x1="29.8267" y1="27.5862" x2="36.3405" y2="27.5862" gradientUnits="userSpaceOnUse">
<stop stop-color="#864EFF"/>
<stop offset="1" stop-color="#502F99"/>
</linearGradient>
<linearGradient id="paint3_linear_1_4226" x1="10.6279" y1="31.6289" x2="40.4544" y2="31.6289" gradientUnits="userSpaceOnUse">
<stop stop-color="#864EFF"/>
<stop offset="1" stop-color="#502F99"/>
</linearGradient>
<linearGradient id="paint4_linear_1_4226" x1="16.2319" y1="21.3429" x2="22.8829" y2="21.3429" gradientUnits="userSpaceOnUse">
<stop stop-color="#864EFF"/>
<stop offset="1" stop-color="#502F99"/>
</linearGradient>
<linearGradient id="paint5_linear_1_4226" x1="16.2319" y1="27.415" x2="34.2899" y2="27.415" gradientUnits="userSpaceOnUse">
<stop stop-color="#864EFF"/>
<stop offset="1" stop-color="#502F99"/>
</linearGradient>
<linearGradient id="paint6_linear_1_4226" x1="16.2319" y1="37.3331" x2="32.4448" y2="37.3331" gradientUnits="userSpaceOnUse">
<stop stop-color="#864EFF"/>
<stop offset="1" stop-color="#502F99"/>
</linearGradient>
<linearGradient id="paint7_linear_1_4226" x1="18.0918" y1="41.0304" x2="21.0277" y2="41.0304" gradientUnits="userSpaceOnUse">
<stop stop-color="#864EFF"/>
<stop offset="1" stop-color="#502F99"/>
</linearGradient>
</defs>
</svg>
