<svg width="90" height="90" viewBox="0 0 90 90" fill="none" xmlns="http://www.w3.org/2000/svg">
<g clip-path="url(#clip0_1_4308)">
<path d="M80.9143 59.0395L74.2408 57.5164C73.9435 57.4486 73.6323 57.4792 73.3539 57.6037C73.0756 57.7281 72.8452 57.9396 72.6974 58.2063C72.0214 59.4268 71.2657 60.6016 70.4353 61.7228C70.2169 62.0227 70.1258 62.3967 70.1819 62.7634C70.238 63.1302 70.4368 63.4599 70.7349 63.6807C71.033 63.9016 71.4063 63.9956 71.7734 63.9425C72.1406 63.8893 72.4719 63.6933 72.6951 63.3969C73.3883 62.461 74.0338 61.4908 74.6293 60.4899L81.3965 62.0345C81.7069 62.1052 82.0321 62.0686 82.319 61.9306C82.6059 61.7926 82.8374 61.5614 82.9759 61.2747C84.3665 58.3932 85.4275 55.3724 86.1296 52.2967C86.8316 49.2207 87.1864 46.0389 87.1836 42.8395C87.1833 42.5211 87.075 42.2122 86.8764 41.9634C86.6778 41.7146 86.4006 41.5405 86.0902 41.4696L79.3219 39.9249C79.0525 36.7683 78.3459 33.6645 77.2224 30.7023L82.6454 26.3776C82.8943 26.1791 83.0686 25.902 83.1395 25.5916C83.2105 25.2812 83.1741 24.956 83.0362 24.669C81.6501 21.7851 79.9502 19.0723 77.9832 16.6059C76.0162 14.1393 73.7496 11.8783 71.2463 9.88526C70.9973 9.68702 70.6883 9.57915 70.37 9.57927C70.0516 9.5794 69.7427 9.68752 69.4938 9.88597L64.0623 14.2174C61.4276 12.4608 58.5617 11.0788 55.5466 10.111V3.16901C55.5466 2.85065 55.4386 2.5417 55.2402 2.2927C55.0418 2.0437 54.7648 1.86939 54.4545 1.79827C51.336 1.08372 48.1548 0.721436 44.9997 0.721436C41.8446 0.721436 38.6635 1.08372 35.545 1.79827C35.2347 1.86939 34.9577 2.0437 34.7593 2.2927C34.5609 2.5417 34.4529 2.85065 34.4529 3.16901V10.111C31.4379 11.0791 28.572 12.4609 25.937 14.217L20.5055 9.88562C20.2566 9.68705 19.9477 9.57885 19.6294 9.57873C19.311 9.5786 19.002 9.68655 18.753 9.88491C16.2498 11.8777 13.9833 14.1388 12.0163 16.6056C10.0492 19.0721 8.34918 21.785 6.96332 24.6686C6.82538 24.9556 6.78892 25.2809 6.85991 25.5913C6.93089 25.9017 7.10512 26.1788 7.35408 26.3772L12.7771 30.702C11.6538 33.6642 10.9472 36.768 10.6776 39.9245L3.90929 41.4693C3.59889 41.5401 3.32171 41.7142 3.1231 41.963C2.92448 42.2119 2.81619 42.5208 2.81593 42.8391C2.81312 46.0385 3.16785 49.2204 3.87009 52.2964C4.57217 55.3724 5.63318 58.3932 7.02361 61.2744C7.16199 61.5611 7.39357 61.7924 7.68046 61.9304C7.96736 62.0685 8.2926 62.1051 8.60301 62.0343L15.3702 60.4897C15.9656 61.4907 16.6112 62.4611 17.3045 63.3969C17.4353 63.5738 17.6058 63.7174 17.8022 63.8162C17.9987 63.9151 18.2156 63.9664 18.4355 63.9661C18.6959 63.9659 18.9511 63.8935 19.1727 63.7568C19.3944 63.6201 19.5737 63.4246 19.6907 63.192C19.8078 62.9594 19.8579 62.6988 19.8356 62.4394C19.8133 62.18 19.7194 61.9318 19.5644 61.7226C18.7339 60.6015 17.9782 59.4268 17.3022 58.2063C17.1545 57.9396 16.9241 57.7281 16.6458 57.6036C16.3674 57.4792 16.0562 57.4486 15.7589 57.5164L9.08535 59.0395C8.01625 56.6568 7.18568 54.1832 6.61228 51.6708C6.03871 49.1585 5.71369 46.5692 5.64338 43.9587L12.3201 42.4347C12.6177 42.3667 12.8852 42.2037 13.0821 41.9703C13.2789 41.7369 13.3945 41.4458 13.4113 41.1409C13.6082 37.5664 14.401 34.0842 15.7677 30.7913C15.8847 30.5094 15.9068 30.1971 15.8306 29.9015C15.7545 29.6059 15.5843 29.3431 15.3456 29.1528L9.99642 24.887C11.1928 22.5654 12.6091 20.3736 14.2155 18.359C15.8222 16.3442 17.6438 14.476 19.641 12.793L24.999 17.0658C25.2377 17.2562 25.5319 17.3637 25.8371 17.3721C26.1423 17.3805 26.4419 17.2893 26.6907 17.1123C29.6062 15.0392 32.8216 13.4888 36.2479 12.5044C36.5413 12.4201 36.7993 12.2426 36.9829 11.9988C37.1665 11.755 37.2659 11.4581 37.2659 11.1528V4.30544C39.8267 3.79321 42.4231 3.53411 45.0003 3.53411C47.5774 3.53411 50.1739 3.79339 52.7346 4.30544V11.153C52.7346 11.4582 52.834 11.7552 53.0176 11.999C53.2012 12.2428 53.4592 12.4203 53.7526 12.5046C57.1789 13.489 60.3945 15.0393 63.3096 17.1125C63.5584 17.2895 63.8581 17.3807 64.1633 17.3723C64.4685 17.3639 64.7627 17.2563 65.0014 17.0659L70.3595 12.7932C72.3568 14.4761 74.1786 16.3447 75.785 18.3592C77.3915 20.3736 78.8077 22.5654 80.0041 24.8871L74.6551 29.1532C74.4164 29.3435 74.2462 29.6063 74.17 29.9019C74.0939 30.1975 74.116 30.5099 74.233 30.7918C75.5996 34.0844 76.3925 37.5664 76.5894 41.1413C76.6062 41.4462 76.7217 41.7373 76.9186 41.9707C77.1155 42.2041 77.3829 42.3671 77.6806 42.435L84.3573 43.9591C84.2868 46.5698 83.9618 49.1588 83.3884 51.6711C82.8142 54.1828 81.9836 56.6566 80.9143 59.0395Z" fill="url(#paint0_linear_1_4308)"/>
<path d="M50.8922 60.925C50.5744 61.0291 50.3041 61.2431 50.1297 61.5285C49.9554 61.814 49.8885 62.1522 49.9409 62.4825C49.9934 62.8128 50.1618 63.1136 50.416 63.331C50.6702 63.5483 50.9935 63.668 51.3279 63.6686C51.4724 63.6686 51.6194 63.6461 51.7642 63.5988C60.7556 60.6661 66.7969 52.3367 66.7969 42.8721C66.7969 30.8532 57.0189 21.0752 45 21.0752C32.9811 21.0752 23.2031 30.8532 23.2031 42.8721C23.2031 52.3367 29.2444 60.6661 38.2359 63.5986C38.4115 63.6559 38.5966 63.6781 38.7808 63.6638C38.9649 63.6495 39.1444 63.5991 39.309 63.5155C39.4737 63.4318 39.6202 63.3165 39.7403 63.1762C39.8604 63.0359 39.9516 62.8733 40.0089 62.6977C40.1245 62.3432 40.0945 61.9572 39.9256 61.6247C39.7567 61.2922 39.4626 61.0405 39.108 60.9248C31.2769 58.3709 26.0156 51.1159 26.0156 42.8722C26.0156 32.4043 34.5321 23.8879 45 23.8879C55.4679 23.8879 63.9844 32.4043 63.9844 42.8722C63.9844 51.1159 58.7231 58.3709 50.8922 60.925Z" fill="url(#paint1_linear_1_4308)"/>
<path d="M11.9531 79.4346C13.1181 79.4346 14.0625 78.4902 14.0625 77.3252C14.0625 76.1602 13.1181 75.2158 11.9531 75.2158C10.7881 75.2158 9.84375 76.1602 9.84375 77.3252C9.84375 78.4902 10.7881 79.4346 11.9531 79.4346Z" fill="url(#paint2_linear_1_4308)"/>
<path d="M45 79.4346C46.165 79.4346 47.1094 78.4902 47.1094 77.3252C47.1094 76.1602 46.165 75.2158 45 75.2158C43.835 75.2158 42.8906 76.1602 42.8906 77.3252C42.8906 78.4902 43.835 79.4346 45 79.4346Z" fill="url(#paint3_linear_1_4308)"/>
<path d="M78.0472 65.3721C71.9322 65.3721 66.8783 69.9886 66.1795 75.9189H56.8679C56.1693 69.9886 51.1153 65.3721 45.0002 65.3721C38.8851 65.3721 33.8312 69.9886 33.1325 75.9189H23.8208C23.1223 69.9886 18.0682 65.3721 11.9531 65.3721C5.36203 65.3721 0 70.7341 0 77.3252C0 83.9163 5.36203 89.2783 11.9531 89.2783C18.0682 89.2783 23.1223 84.6618 23.8208 78.7314H33.1325C33.831 84.6618 38.8851 89.2783 45.0002 89.2783C51.1153 89.2783 56.1693 84.6618 56.8679 78.7314H66.1795C66.8781 84.6618 71.9322 89.2783 78.0472 89.2783C84.6383 89.2783 90.0004 83.9163 90.0004 77.3252C90.0004 70.7341 84.6383 65.3721 78.0472 65.3721ZM11.9535 86.4658C6.9133 86.4658 2.81285 82.3654 2.81285 77.3252C2.81285 72.285 6.9133 68.1846 11.9535 68.1846C16.9937 68.1846 21.0941 72.285 21.0941 77.3252C21.0941 82.3654 16.9937 86.4658 11.9535 86.4658ZM45.0004 86.4658C39.9602 86.4658 35.8597 82.3654 35.8597 77.3252C35.8597 72.285 39.9602 68.1846 45.0004 68.1846C50.0405 68.1846 54.141 72.285 54.141 77.3252C54.141 82.3654 50.0405 86.4658 45.0004 86.4658ZM78.0472 86.4658C73.0071 86.4658 68.9066 82.3654 68.9066 77.3252C68.9066 72.285 73.0071 68.1846 78.0472 68.1846C83.0874 68.1846 87.1879 72.285 87.1879 77.3252C87.1879 82.3654 83.0874 86.4658 78.0472 86.4658Z" fill="url(#paint4_linear_1_4308)"/>
<path d="M81.6228 73.8699L77.3438 78.1489L75.1741 75.9793C74.9104 75.7155 74.5527 75.5674 74.1797 75.5674C73.8068 75.5674 73.4491 75.7155 73.1853 75.9793C72.9216 76.243 72.7734 76.6007 72.7734 76.9737C72.7734 77.3466 72.9216 77.7043 73.1853 77.9681L76.3494 81.1321C76.624 81.4067 76.9838 81.544 77.3438 81.544C77.7038 81.544 78.0636 81.4067 78.3382 81.1321L83.6116 75.8587C83.8754 75.595 84.0235 75.2373 84.0235 74.8643C84.0235 74.4913 83.8754 74.1336 83.6116 73.8699C83.3479 73.6062 82.9902 73.458 82.6172 73.458C82.2443 73.458 81.8866 73.6062 81.6228 73.8699Z" fill="url(#paint5_linear_1_4308)"/>
</g>
<defs>
<linearGradient id="paint0_linear_1_4308" x1="2.81592" y1="34.9358" x2="87.1836" y2="34.9358" gradientUnits="userSpaceOnUse">
<stop stop-color="#864EFF"/>
<stop offset="1" stop-color="#502F99"/>
</linearGradient>
<linearGradient id="paint1_linear_1_4308" x1="23.2031" y1="44.1175" x2="66.7969" y2="44.1175" gradientUnits="userSpaceOnUse">
<stop stop-color="#864EFF"/>
<stop offset="1" stop-color="#502F99"/>
</linearGradient>
<linearGradient id="paint2_linear_1_4308" x1="9.84375" y1="77.4981" x2="14.0625" y2="77.4981" gradientUnits="userSpaceOnUse">
<stop stop-color="#864EFF"/>
<stop offset="1" stop-color="#502F99"/>
</linearGradient>
<linearGradient id="paint3_linear_1_4308" x1="42.8906" y1="77.4981" x2="47.1094" y2="77.4981" gradientUnits="userSpaceOnUse">
<stop stop-color="#864EFF"/>
<stop offset="1" stop-color="#502F99"/>
</linearGradient>
<linearGradient id="paint4_linear_1_4308" x1="-2.595e-07" y1="78.305" x2="90.0004" y2="78.305" gradientUnits="userSpaceOnUse">
<stop stop-color="#864EFF"/>
<stop offset="1" stop-color="#502F99"/>
</linearGradient>
<linearGradient id="paint5_linear_1_4308" x1="72.7734" y1="77.8324" x2="84.0235" y2="77.8324" gradientUnits="userSpaceOnUse">
<stop stop-color="#864EFF"/>
<stop offset="1" stop-color="#502F99"/>
</linearGradient>
<clipPath id="clip0_1_4308">
<rect width="90" height="90" fill="white"/>
</clipPath>
</defs>
</svg>
