<svg width="30" height="30" viewBox="0 0 30 30" fill="none" xmlns="http://www.w3.org/2000/svg">
<g clip-path="url(#clip0_3783_59560)">
<path d="M3.37793 23.8401C3.49059 23.8401 3.59865 23.7954 3.67831 23.7157C3.75798 23.636 3.80273 23.528 3.80273 23.4153V1.82449C3.80273 1.55403 4.02278 1.33398 4.29324 1.33398H23.5182C23.7887 1.33398 24.0087 1.55403 24.0087 1.82449V6.32623C24.0087 6.56089 24.1989 6.75104 24.4335 6.75104C24.6681 6.75104 24.8583 6.56089 24.8583 6.32623V1.82449C24.8583 1.08556 24.2571 0.484375 23.5182 0.484375H4.29324C3.55431 0.484375 2.95312 1.08556 2.95312 1.82449V23.4153C2.95312 23.528 2.99788 23.636 3.07755 23.7157C3.15721 23.7954 3.26526 23.8401 3.37793 23.8401Z" fill="#6B3BAB"/>
<path d="M11.7588 5.38281C11.7588 4.69786 11.2015 4.14062 10.5166 4.14062H6.42969C5.74473 4.14062 5.1875 4.69786 5.1875 5.38281V9.46966C5.1875 10.1546 5.74473 10.7119 6.42969 10.7119H10.5166C11.2015 10.7119 11.7588 10.1546 11.7588 9.46966V5.38281ZM10.9092 9.46966C10.9092 9.68614 10.7331 9.86229 10.5166 9.86229H6.42969C6.32559 9.86217 6.2258 9.82076 6.1522 9.74716C6.07861 9.67355 6.03721 9.57375 6.03711 9.46966V5.38281C6.03724 5.27873 6.07865 5.17896 6.15224 5.10537C6.22583 5.03177 6.32561 4.99037 6.42969 4.99023H10.5166C10.6207 4.99035 10.7205 5.03175 10.7941 5.10535C10.8676 5.17895 10.909 5.27873 10.9092 5.38281V9.46966Z" fill="#6B3BAB"/>
<path d="M9.31711 6.40754L8.16799 7.55667L7.74363 7.13232C7.7044 7.09194 7.65754 7.05975 7.60576 7.03765C7.55398 7.01554 7.49832 7.00394 7.44202 7.00353C7.38572 7.00312 7.3299 7.01391 7.27781 7.03527C7.22571 7.05662 7.17839 7.08812 7.13857 7.12793C7.09876 7.16774 7.06726 7.21506 7.0459 7.26716C7.02454 7.31925 7.01374 7.37507 7.01415 7.43137C7.01455 7.48767 7.02614 7.54332 7.04824 7.59511C7.07035 7.64689 7.10253 7.69376 7.1429 7.73299L7.86762 8.45777C7.90705 8.49723 7.95387 8.52854 8.00541 8.5499C8.05695 8.57127 8.11219 8.58226 8.16797 8.58227C8.22376 8.58227 8.27901 8.57129 8.33055 8.54993C8.38209 8.52858 8.42891 8.49728 8.46835 8.45782L9.91784 7.00833C9.99694 6.92855 10.0412 6.82069 10.041 6.70834C10.0407 6.596 9.99599 6.48833 9.91656 6.40889C9.83712 6.32944 9.72945 6.2847 9.61711 6.28445C9.50477 6.2842 9.3969 6.32846 9.31711 6.40754ZM13.9659 7.74307H20.6602C20.8948 7.74307 21.085 7.55293 21.085 7.31827C21.085 7.08361 20.8948 6.89346 20.6602 6.89346H13.9659C13.7313 6.89346 13.5411 7.08361 13.5411 7.31827C13.5411 7.55293 13.7313 7.74307 13.9659 7.74307ZM22.2051 5.0625H18.1427C17.9081 5.0625 17.7179 5.25264 17.7179 5.4873C17.7179 5.72197 17.9081 5.91211 18.1427 5.91211H22.2051C22.4397 5.91211 22.6299 5.72197 22.6299 5.4873C22.6299 5.25264 22.4397 5.0625 22.2051 5.0625ZM13.9659 5.91211H16.1401C16.3747 5.91211 16.5649 5.72197 16.5649 5.4873C16.5649 5.25264 16.3747 5.0625 16.1401 5.0625H13.9659C13.7313 5.0625 13.5411 5.25264 13.5411 5.4873C13.5411 5.72197 13.7313 5.91211 13.9659 5.91211ZM16.5406 8.72437C16.306 8.72437 16.1158 8.91452 16.1158 9.14918C16.1158 9.38384 16.306 9.57398 16.5406 9.57398H18.772C19.0066 9.57398 19.1968 9.38384 19.1968 9.14918C19.1968 8.91452 19.0066 8.72437 18.772 8.72437H16.5406ZM13.9659 9.57398H14.5381C14.7727 9.57398 14.9629 9.38384 14.9629 9.14918C14.9629 8.91452 14.7727 8.72437 14.5381 8.72437H13.9659C13.7313 8.72437 13.5411 8.91452 13.5411 9.14918C13.5411 9.38384 13.7313 9.57398 13.9659 9.57398ZM11.7588 12.9418C11.7588 12.2568 11.2015 11.6996 10.5166 11.6996H6.42969C5.74473 11.6996 5.1875 12.2568 5.1875 12.9418V17.0286C5.1875 17.7136 5.74473 18.2708 6.42969 18.2708H10.5166C11.2015 18.2708 11.7588 17.7136 11.7588 17.0286V12.9418ZM10.9092 17.0286C10.909 17.1327 10.8676 17.2325 10.794 17.3061C10.7204 17.3797 10.6207 17.4211 10.5166 17.4212H6.42969C6.3256 17.4211 6.22582 17.3797 6.15222 17.3061C6.07863 17.2325 6.03723 17.1327 6.03711 17.0286V12.9418C6.03724 12.8377 6.07865 12.7379 6.15224 12.6643C6.22583 12.5907 6.32561 12.5493 6.42969 12.5492H10.5166C10.6207 12.5493 10.7205 12.5907 10.7941 12.6643C10.8676 12.7379 10.909 12.8377 10.9092 12.9418V17.0286Z" fill="#6B3BAB"/>
<path d="M9.31711 13.9544L8.16799 15.1035L7.74363 14.6791C7.66396 14.5995 7.55591 14.5547 7.44326 14.5548C7.3306 14.5548 7.22256 14.5995 7.1429 14.6792C7.06325 14.7589 7.0185 14.8669 7.0185 14.9796C7.0185 15.0922 7.06325 15.2003 7.1429 15.2799L7.86762 16.0046C7.95054 16.0876 8.05929 16.129 8.16799 16.129C8.27668 16.129 8.38543 16.0876 8.46835 16.0046L9.91784 14.5552C9.9953 14.4751 10.0382 14.3678 10.0372 14.2563C10.0363 14.1449 9.99163 14.0383 9.91283 13.9595C9.83404 13.8807 9.72744 13.836 9.61601 13.835C9.50458 13.8341 9.39723 13.877 9.31711 13.9544ZM21.085 14.8651C21.085 14.7524 21.0402 14.6444 20.9606 14.5647C20.8809 14.485 20.7729 14.4403 20.6602 14.4403H13.9659C13.7313 14.4403 13.5411 14.6304 13.5411 14.8651C13.5411 15.0997 13.7313 15.2899 13.9659 15.2899H20.6602C20.8948 15.2899 21.085 15.0997 21.085 14.8651ZM22.6299 13.0342C22.6299 12.9215 22.5851 12.8135 22.5054 12.7338C22.4258 12.6541 22.3177 12.6094 22.2051 12.6094H18.1427C17.9081 12.6094 17.7179 12.7995 17.7179 13.0342C17.7179 13.2688 17.9081 13.459 18.1427 13.459H22.2051C22.3177 13.459 22.4258 13.4142 22.5054 13.3346C22.5851 13.2549 22.6299 13.1468 22.6299 13.0342ZM13.9659 13.459H16.1401C16.3747 13.459 16.5649 13.2688 16.5649 13.0342C16.5649 12.7995 16.3747 12.6094 16.1401 12.6094H13.9659C13.7313 12.6094 13.5411 12.7995 13.5411 13.0342C13.5411 13.2688 13.7313 13.459 13.9659 13.459ZM19.1969 16.6961C19.1969 16.5834 19.1521 16.4753 19.0725 16.3957C18.9928 16.316 18.8847 16.2712 18.7721 16.2712H16.5407C16.3061 16.2712 16.1159 16.4614 16.1159 16.6961C16.1159 16.9307 16.3061 17.1209 16.5407 17.1209H18.7721C18.8847 17.1209 18.9928 17.0761 19.0725 16.9964C19.1521 16.9168 19.1969 16.8087 19.1969 16.6961ZM13.9659 17.1209H14.5381C14.7727 17.1209 14.9629 16.9307 14.9629 16.6961C14.9629 16.4614 14.7727 16.2712 14.5381 16.2712H13.9659C13.7313 16.2712 13.5411 16.4614 13.5411 16.6961C13.5411 16.9307 13.7313 17.1209 13.9659 17.1209ZM10.5166 19.2465H6.42969C5.74473 19.2465 5.1875 19.8038 5.1875 20.4887V24.5756C5.1875 25.2605 5.74473 25.8177 6.42969 25.8177H10.5166C11.2015 25.8177 11.7588 25.2605 11.7588 24.5756V20.4887C11.7588 19.8038 11.2015 19.2465 10.5166 19.2465ZM10.9092 24.5756C10.909 24.6796 10.8676 24.7794 10.794 24.853C10.7204 24.9266 10.6207 24.968 10.5166 24.9681H6.42969C6.3256 24.968 6.22582 24.9266 6.15222 24.853C6.07863 24.7794 6.03723 24.6796 6.03711 24.5756V20.4887C6.03711 20.2722 6.21321 20.0961 6.42969 20.0961H10.5166C10.6207 20.0962 10.7205 20.1376 10.7941 20.2112C10.8677 20.2848 10.9091 20.3846 10.9092 20.4887V24.5756Z" fill="#6B3BAB"/>
<path d="M9.31424 21.5091L8.16511 22.6582L7.74076 22.2338C7.66109 22.1542 7.55304 22.1094 7.44038 22.1094C7.32773 22.1095 7.21969 22.1542 7.14003 22.2339C7.06037 22.3135 7.01562 22.4216 7.01562 22.5342C7.01562 22.6469 7.06037 22.7549 7.14003 22.8346L7.86475 23.5593C7.94767 23.6423 8.05642 23.6837 8.16511 23.6837C8.27381 23.6837 8.38256 23.6423 8.46548 23.5593L9.91497 22.1098C9.99406 22.0301 10.0383 21.9222 10.0381 21.8098C10.0379 21.6975 9.99312 21.5898 9.91368 21.5104C9.83425 21.431 9.72658 21.3862 9.61424 21.386C9.50189 21.3857 9.39403 21.43 9.31424 21.5091ZM13.963 21.0137H16.1372C16.3718 21.0137 16.562 20.8235 16.562 20.5889C16.562 20.3542 16.3718 20.1641 16.1372 20.1641H13.963C13.7284 20.1641 13.5382 20.3542 13.5382 20.5889C13.5382 20.8235 13.7284 21.0137 13.963 21.0137ZM14.5352 24.6755C14.7698 24.6755 14.96 24.4853 14.96 24.2507C14.96 24.016 14.7698 23.8259 14.5352 23.8259H13.963C13.7284 23.8259 13.5382 24.016 13.5382 24.2507C13.5382 24.4853 13.7284 24.6755 13.963 24.6755H14.5352Z" fill="#6B3BAB"/>
<path d="M27.5331 15.4482C27.5187 15.3944 27.4938 15.3438 27.4598 15.2996C27.4258 15.2553 27.3835 15.2182 27.3352 15.1903L25.3533 14.0462C25.2759 14.0015 25.1864 13.9824 25.0975 13.9916C25.0087 14.0007 24.9249 14.0377 24.8583 14.0971V8.30762C24.8583 8.07296 24.6681 7.88281 24.4335 7.88281C24.1989 7.88281 24.0087 8.07296 24.0087 8.30762V15.5256L21.3296 20.1659H18.1396C17.905 20.1659 17.7148 20.356 17.7148 20.5907C17.7148 20.8254 17.905 21.0155 18.1396 21.0155H20.839L20.2726 21.9965H13.9629C13.7283 21.9965 13.5381 22.1867 13.5381 22.4213C13.5381 22.656 13.7283 22.8461 13.9629 22.8461H19.7821L19.2154 23.8275H16.5377C16.3031 23.8275 16.1129 24.0176 16.1129 24.2523C16.1129 24.487 16.3031 24.6771 16.5377 24.6771H18.7249L17.7983 26.282C17.5051 26.7897 17.3856 27.3657 17.4524 27.9472L17.5309 28.6337H4.29324C4.02278 28.6337 3.80273 28.4136 3.80273 28.1432V25.3967C3.80273 25.162 3.61254 24.9719 3.37793 24.9719C3.14332 24.9719 2.95312 25.162 2.95312 25.3967V28.1432C2.95312 28.8821 3.55431 29.4833 4.29324 29.4833H23.5182C24.2571 29.4833 24.8583 28.8821 24.8583 28.1432V20.3302L27.4907 15.7706C27.5186 15.7223 27.5367 15.6689 27.544 15.6136C27.5513 15.5583 27.5476 15.5021 27.5331 15.4482ZM25.022 18.3475L23.7759 17.628L24.2665 16.7782L25.5126 17.4976L25.022 18.3475ZM24.0087 28.1432C24.0087 28.4136 23.7887 28.6337 23.5182 28.6337H19.8327C20.1074 28.4193 20.3415 28.1531 20.516 27.8509L22.1778 24.973C22.2341 24.8755 22.2494 24.7595 22.2203 24.6507C22.1911 24.5418 22.1199 24.449 22.0223 24.3927C21.9247 24.3364 21.8088 24.3211 21.7 24.3503C21.5911 24.3794 21.4983 24.4506 21.442 24.5482L19.7801 27.4261C19.5819 27.7694 19.2723 28.0456 18.9082 28.2038L18.3639 28.4403L18.2965 27.8506C18.2506 27.451 18.3328 27.0556 18.5341 26.7068L23.351 18.3638L24.5971 19.0833L22.4331 22.8315C22.3777 22.929 22.3631 23.0445 22.3925 23.1527C22.4219 23.261 22.4929 23.3532 22.59 23.4093C22.6872 23.4654 22.8026 23.4808 22.911 23.4521C23.0195 23.4234 23.1122 23.353 23.1689 23.2563L24.0086 21.8018V28.1432H24.0087ZM25.9374 16.7618L24.6913 16.0424L25.2964 14.9944L26.5425 15.7137L25.9374 16.7618Z" fill="#6B3BAB"/>
</g>
<defs>
<clipPath id="clip0_3783_59560">
<rect width="29" height="29" fill="white" transform="translate(0.75 0.484375)"/>
</clipPath>
</defs>
</svg>
