<svg width="29" height="29" viewBox="0 0 29 29" fill="none" xmlns="http://www.w3.org/2000/svg">
<path d="M2.62793 23.3558C2.74059 23.3558 2.84865 23.311 2.92831 23.2313C3.00798 23.1517 3.05273 23.0436 3.05273 22.931V1.34012C3.05273 1.06966 3.27278 0.849609 3.54324 0.849609H22.7682C23.0387 0.849609 23.2587 1.06966 23.2587 1.34012V5.84186C23.2587 6.07652 23.4489 6.26666 23.6835 6.26666C23.9181 6.26666 24.1083 6.07652 24.1083 5.84186V1.34012C24.1083 0.601184 23.5071 0 22.7682 0H3.54324C2.80431 0 2.20312 0.601184 2.20312 1.34012V22.931C2.20312 23.0436 2.24788 23.1517 2.32755 23.2313C2.40721 23.311 2.51526 23.3558 2.62793 23.3558Z" fill="#A2A2A2"/>
<path d="M11.0088 4.89844C11.0088 4.21348 10.4515 3.65625 9.76659 3.65625H5.67969C4.99473 3.65625 4.4375 4.21348 4.4375 4.89844V8.98528C4.4375 9.67024 4.99473 10.2275 5.67969 10.2275H9.76659C10.4515 10.2275 11.0088 9.67024 11.0088 8.98528V4.89844ZM10.1592 8.98528C10.1592 9.20176 9.98307 9.37792 9.76659 9.37792H5.67969C5.57559 9.3778 5.4758 9.33639 5.4022 9.26278C5.32861 9.18917 5.28721 9.08937 5.28711 8.98528V4.89844C5.28724 4.79436 5.32865 4.69458 5.40224 4.62099C5.47583 4.5474 5.57561 4.50599 5.67969 4.50586H9.76659C9.87067 4.50598 9.97045 4.54738 10.0441 4.62097C10.1176 4.69457 10.159 4.79435 10.1592 4.89844V8.98528Z" fill="#A2A2A2"/>
<path d="M8.56711 5.92317L7.41799 7.07229L6.99363 6.64794C6.9544 6.60756 6.90754 6.57538 6.85576 6.55327C6.80398 6.53116 6.74832 6.51957 6.69202 6.51916C6.63572 6.51875 6.5799 6.52954 6.52781 6.55089C6.47571 6.57225 6.42839 6.60374 6.38857 6.64355C6.34876 6.68336 6.31726 6.73069 6.2959 6.78278C6.27454 6.83487 6.26374 6.89069 6.26415 6.94699C6.26455 7.00329 6.27614 7.05895 6.29824 7.11073C6.32035 7.16251 6.35253 7.20938 6.3929 7.24862L7.11762 7.97339C7.15705 8.01286 7.20387 8.04416 7.25541 8.06553C7.30695 8.08689 7.36219 8.09789 7.41797 8.09789C7.47376 8.0979 7.52901 8.08691 7.58055 8.06556C7.63209 8.04421 7.67891 8.0129 7.71835 7.97345L9.16784 6.52396C9.24694 6.44418 9.2912 6.33631 9.29096 6.22397C9.29072 6.11163 9.24599 6.00395 9.16656 5.92451C9.08712 5.84507 8.97945 5.80033 8.86711 5.80008C8.75477 5.79982 8.6469 5.84408 8.56711 5.92317ZM13.2159 7.2587H19.9102C20.1448 7.2587 20.335 7.06856 20.335 6.83389C20.335 6.59923 20.1448 6.40909 19.9102 6.40909H13.2159C12.9813 6.40909 12.7911 6.59923 12.7911 6.83389C12.7911 7.06856 12.9813 7.2587 13.2159 7.2587ZM21.4551 4.57812H17.3927C17.1581 4.57812 16.9679 4.76827 16.9679 5.00293C16.9679 5.23759 17.1581 5.42773 17.3927 5.42773H21.4551C21.6897 5.42773 21.8799 5.23759 21.8799 5.00293C21.8799 4.76827 21.6897 4.57812 21.4551 4.57812ZM13.2159 5.42773H15.3901C15.6247 5.42773 15.8149 5.23759 15.8149 5.00293C15.8149 4.76827 15.6247 4.57812 15.3901 4.57812H13.2159C12.9813 4.57812 12.7911 4.76827 12.7911 5.00293C12.7911 5.23759 12.9813 5.42773 13.2159 5.42773ZM15.7906 8.24C15.556 8.24 15.3658 8.43014 15.3658 8.6648C15.3658 8.89947 15.556 9.08961 15.7906 9.08961H18.022C18.2566 9.08961 18.4468 8.89947 18.4468 8.6648C18.4468 8.43014 18.2566 8.24 18.022 8.24H15.7906ZM13.2159 9.08961H13.7881C14.0227 9.08961 14.2129 8.89947 14.2129 8.6648C14.2129 8.43014 14.0227 8.24 13.7881 8.24H13.2159C12.9813 8.24 12.7911 8.43014 12.7911 8.6648C12.7911 8.89947 12.9813 9.08961 13.2159 9.08961ZM11.0088 12.4574C11.0088 11.7724 10.4515 11.2152 9.76659 11.2152H5.67969C4.99473 11.2152 4.4375 11.7724 4.4375 12.4574V16.5442C4.4375 17.2292 4.99473 17.7864 5.67969 17.7864H9.76659C10.4515 17.7864 11.0088 17.2292 11.0088 16.5442V12.4574ZM10.1592 16.5442C10.159 16.6483 10.1176 16.7481 10.044 16.8217C9.97044 16.8953 9.87067 16.9367 9.76659 16.9368H5.67969C5.5756 16.9367 5.47582 16.8953 5.40222 16.8217C5.32863 16.7481 5.28723 16.6483 5.28711 16.5442V12.4574C5.28724 12.3533 5.32865 12.2536 5.40224 12.18C5.47583 12.1064 5.57561 12.065 5.67969 12.0648H9.76659C9.87067 12.0649 9.97045 12.1063 10.0441 12.1799C10.1176 12.2535 10.159 12.3533 10.1592 12.4574V16.5442Z" fill="#A2A2A2"/>
<path d="M8.56711 13.47L7.41799 14.6191L6.99363 14.1948C6.91396 14.1151 6.80591 14.0704 6.69326 14.0704C6.5806 14.0704 6.47256 14.1152 6.3929 14.1948C6.31325 14.2745 6.2685 14.3825 6.2685 14.4952C6.2685 14.6078 6.31325 14.7159 6.3929 14.7955L7.11762 15.5203C7.20054 15.6032 7.30929 15.6446 7.41799 15.6446C7.52668 15.6446 7.63543 15.6032 7.71835 15.5203L9.16784 14.0708C9.2453 13.9907 9.28818 13.8834 9.28724 13.7719C9.28631 13.6605 9.24163 13.5539 9.16283 13.4751C9.08404 13.3963 8.97744 13.3516 8.86601 13.3507C8.75458 13.3497 8.64723 13.3926 8.56711 13.47ZM20.335 14.3807C20.335 14.268 20.2902 14.16 20.2106 14.0803C20.1309 14.0007 20.0229 13.9559 19.9102 13.9559H13.2159C12.9813 13.9559 12.7911 14.1461 12.7911 14.3807C12.7911 14.6154 12.9813 14.8055 13.2159 14.8055H19.9102C20.1448 14.8055 20.335 14.6154 20.335 14.3807ZM21.8799 12.5498C21.8799 12.4371 21.8351 12.3291 21.7554 12.2494C21.6758 12.1698 21.5677 12.125 21.4551 12.125H17.3927C17.1581 12.125 16.9679 12.3151 16.9679 12.5498C16.9679 12.7845 17.1581 12.9746 17.3927 12.9746H21.4551C21.5677 12.9746 21.6758 12.9299 21.7554 12.8502C21.8351 12.7705 21.8799 12.6625 21.8799 12.5498ZM13.2159 12.9746H15.3901C15.6247 12.9746 15.8149 12.7845 15.8149 12.5498C15.8149 12.3151 15.6247 12.125 15.3901 12.125H13.2159C12.9813 12.125 12.7911 12.3151 12.7911 12.5498C12.7911 12.7845 12.9813 12.9746 13.2159 12.9746ZM18.4469 16.2117C18.4469 16.099 18.4021 15.991 18.3225 15.9113C18.2428 15.8316 18.1347 15.7869 18.0221 15.7869H15.7907C15.5561 15.7869 15.3659 15.977 15.3659 16.2117C15.3659 16.4463 15.5561 16.6365 15.7907 16.6365H18.0221C18.1347 16.6365 18.2428 16.5917 18.3225 16.5121C18.4021 16.4324 18.4469 16.3243 18.4469 16.2117ZM13.2159 16.6365H13.7881C14.0227 16.6365 14.2129 16.4463 14.2129 16.2117C14.2129 15.977 14.0227 15.7869 13.7881 15.7869H13.2159C12.9813 15.7869 12.7911 15.977 12.7911 16.2117C12.7911 16.4463 12.9813 16.6365 13.2159 16.6365ZM9.76659 18.7621H5.67969C4.99473 18.7621 4.4375 19.3194 4.4375 20.0043V24.0912C4.4375 24.7761 4.99473 25.3334 5.67969 25.3334H9.76659C10.4515 25.3334 11.0088 24.7761 11.0088 24.0912V20.0043C11.0088 19.3194 10.4515 18.7621 9.76659 18.7621ZM10.1592 24.0912C10.159 24.1953 10.1176 24.295 10.044 24.3686C9.97044 24.4422 9.87067 24.4836 9.76659 24.4838H5.67969C5.5756 24.4836 5.47582 24.4422 5.40222 24.3686C5.32863 24.295 5.28723 24.1953 5.28711 24.0912V20.0043C5.28711 19.7879 5.46321 19.6117 5.67969 19.6117H9.76659C9.87068 19.6118 9.97047 19.6532 10.0441 19.7268C10.1177 19.8004 10.1591 19.9002 10.1592 20.0043V24.0912Z" fill="#A2A2A2"/>
<path d="M8.56424 21.0247L7.41511 22.1738L6.99076 21.7494C6.91109 21.6698 6.80304 21.6251 6.69038 21.6251C6.57773 21.6251 6.46969 21.6698 6.39003 21.7495C6.31037 21.8292 6.26562 21.9372 6.26562 22.0499C6.26562 22.1625 6.31037 22.2706 6.39003 22.3502L7.11475 23.075C7.19767 23.1579 7.30642 23.1993 7.41511 23.1993C7.52381 23.1993 7.63256 23.1579 7.71548 23.075L9.16497 21.6255C9.24406 21.5457 9.28833 21.4378 9.28809 21.3255C9.28785 21.2131 9.24312 21.1055 9.16368 21.026C9.08425 20.9466 8.97658 20.9018 8.86424 20.9016C8.75189 20.9013 8.64403 20.9456 8.56424 21.0247ZM13.213 20.5293H15.3872C15.6218 20.5293 15.812 20.3392 15.812 20.1045C15.812 19.8698 15.6218 19.6797 15.3872 19.6797H13.213C12.9784 19.6797 12.7882 19.8698 12.7882 20.1045C12.7882 20.3392 12.9784 20.5293 13.213 20.5293ZM13.7852 24.1911C14.0198 24.1911 14.21 24.001 14.21 23.7663C14.21 23.5316 14.0198 23.3415 13.7852 23.3415H13.213C12.9784 23.3415 12.7882 23.5316 12.7882 23.7663C12.7882 24.001 12.9784 24.1911 13.213 24.1911H13.7852Z" fill="#A2A2A2"/>
<path d="M26.7831 14.9639C26.7687 14.91 26.7438 14.8595 26.7098 14.8152C26.6758 14.771 26.6335 14.7338 26.5852 14.7059L24.6033 13.5618C24.5259 13.5171 24.4364 13.498 24.3475 13.5072C24.2587 13.5163 24.1749 13.5533 24.1083 13.6128V7.82324C24.1083 7.58858 23.9181 7.39844 23.6835 7.39844C23.4489 7.39844 23.2587 7.58858 23.2587 7.82324V15.0412L20.5796 19.6815H17.3896C17.155 19.6815 16.9648 19.8717 16.9648 20.1063C16.9648 20.341 17.155 20.5311 17.3896 20.5311H20.089L19.5226 21.5121H13.2129C12.9783 21.5121 12.7881 21.7023 12.7881 21.937C12.7881 22.1716 12.9783 22.3618 13.2129 22.3618H19.0321L18.4654 23.3431H15.7877C15.5531 23.3431 15.3629 23.5333 15.3629 23.7679C15.3629 24.0026 15.5531 24.1927 15.7877 24.1927H17.9749L17.0483 25.7976C16.7551 26.3054 16.6356 26.8813 16.7024 27.4629L16.7809 28.1493H3.54324C3.27278 28.1493 3.05273 27.9292 3.05273 27.6588V24.9123C3.05273 24.6776 2.86254 24.4875 2.62793 24.4875C2.39332 24.4875 2.20312 24.6776 2.20312 24.9123V27.6588C2.20312 28.3977 2.80431 28.9989 3.54324 28.9989H22.7682C23.5071 28.9989 24.1083 28.3977 24.1083 27.6588V19.8458L26.7407 15.2862C26.7686 15.2379 26.7867 15.1846 26.794 15.1293C26.8013 15.074 26.7976 15.0178 26.7831 14.9639ZM24.272 17.8631L23.0259 17.1436L23.5165 16.2938L24.7626 17.0132L24.272 17.8631ZM23.2587 27.6588C23.2587 27.9292 23.0387 28.1493 22.7682 28.1493H19.0827C19.3574 27.9349 19.5915 27.6688 19.766 27.3665L21.4278 24.4887C21.4841 24.3911 21.4994 24.2751 21.4703 24.1663C21.4411 24.0575 21.3699 23.9647 21.2723 23.9083C21.1747 23.852 21.0588 23.8367 20.95 23.8659C20.8411 23.895 20.7483 23.9662 20.692 24.0638L19.0301 26.9417C18.8319 27.2851 18.5223 27.5613 18.1582 27.7195L17.6139 27.9559L17.5465 27.3662C17.5006 26.9666 17.5828 26.5712 17.7841 26.2224L22.601 17.8794L23.8471 18.5989L21.6831 22.3471C21.6277 22.4446 21.6131 22.5601 21.6425 22.6684C21.6719 22.7766 21.7429 22.8688 21.84 22.9249C21.9372 22.981 22.0526 22.9964 22.161 22.9677C22.2695 22.9391 22.3622 22.8687 22.4189 22.7719L23.2586 21.3175V27.6588H23.2587ZM25.1874 16.2774L23.9413 15.558L24.5464 14.51L25.7925 15.2293L25.1874 16.2774Z" fill="#A2A2A2"/>
</svg>
