<svg width="50" height="50" viewBox="0 0 50 50" fill="none" xmlns="http://www.w3.org/2000/svg">
<rect width="50" height="50" rx="25" fill="#F4EEFF"/>
<path d="M25.0831 27.0338C25.5371 26.248 25.1941 25.1472 24.0913 23.8505C23.0951 22.6792 21.5772 21.4749 19.8174 20.4594C16.5237 18.5564 12.486 17.4634 11.4903 19.1862L11.49 19.1869L11.1553 19.7673C10.8617 20.2766 10.5679 20.7862 10.2731 21.2953C9.81888 22.0811 10.1618 23.182 11.2647 24.4789C12.2609 25.6502 13.7788 26.8545 15.5387 27.87C17.6821 29.1078 20.1401 30.0027 21.8702 30.0027C22.7989 30.0027 23.5182 29.7446 23.8659 29.1432L25.0831 27.0338ZM13.4703 19.1495C14.8266 19.1495 17.0511 19.8087 19.4071 21.17C21.0879 22.1398 22.5294 23.2806 23.4662 24.3821C24.2871 25.3473 24.6259 26.1852 24.3726 26.6235L24.3724 26.6239C24.1196 27.0621 23.2248 27.1875 21.9786 26.9593C20.5561 26.6987 18.8472 26.0207 17.1664 25.0501C13.6834 23.0403 11.6723 20.5131 12.2011 19.5961C12.3726 19.2999 12.8222 19.1495 13.4703 19.1495ZM23.1552 28.7329C22.9844 29.0284 22.5358 29.1786 21.8901 29.1792L22.1417 28.7428L21.4309 28.333L20.9876 29.102C20.536 29.0312 20.0318 28.9118 19.4891 28.7426L19.8245 28.1617L19.114 27.7514L18.6988 28.4704C18.2587 28.3052 17.8003 28.1107 17.33 27.8866L17.6919 27.2598L16.9814 26.8496L16.5957 27.5175C16.3779 27.4021 16.1623 27.2827 15.9488 27.1595C15.7357 27.0364 15.5247 26.9096 15.3161 26.7791L15.7022 26.1105L14.9916 25.7002L14.6287 26.3287C14.2058 26.039 13.8065 25.7409 13.4368 25.4383L13.8552 24.7136L13.1447 24.3034L12.8055 24.8907C12.464 24.5762 12.1559 24.2603 11.8898 23.9473C11.8407 23.8896 11.7924 23.8311 11.7449 23.772L12.1912 22.9976L11.4802 22.588L11.2284 23.0251C10.908 22.4627 10.8154 21.9965 10.9832 21.7062C11.1524 21.4141 11.3209 21.1216 11.4896 20.8291C12.1437 22.445 14.3628 24.3797 16.7561 25.7607C18.516 26.7771 20.3182 27.4894 21.8307 27.7664C22.2923 27.8509 22.7122 27.8929 23.0877 27.8929C23.2928 27.8929 23.4838 27.8796 23.662 27.8547L23.1552 28.7329ZM12.7414 20.6226C12.6565 20.305 12.7306 20.0795 12.8077 19.9463C13.608 18.5596 17.8477 20.7851 18.6894 21.2452L18.2959 21.9651C17.123 21.3239 15.9654 20.819 15.036 20.5436C13.9507 20.2219 13.597 20.3283 13.5235 20.3616C13.5314 20.4876 13.726 20.9303 14.5797 21.7083C15.3859 22.443 16.5245 23.2487 17.7859 23.9771C19.0472 24.7055 20.3144 25.2889 21.354 25.6197C22.4597 25.9717 22.9397 25.9165 23.0498 25.86C23.0436 25.7361 22.8511 25.2928 21.9936 24.5111C21.187 23.7759 20.0484 22.9703 18.7875 22.2429L19.1975 21.5322C21.2851 22.7365 23.5276 24.4604 23.8318 25.5969C23.9168 25.9149 23.8428 26.1404 23.7656 26.2736C23.6894 26.4061 23.5312 26.5832 23.2135 26.6687C23.0815 26.7041 22.9295 26.7209 22.7607 26.7209C21.4777 26.7209 19.2209 25.7534 17.3755 24.6877C15.2875 23.4819 13.0448 21.7573 12.7414 20.6226ZM21.9672 17.9744H21.0205V17.1539H21.9672V16.2072H22.7878V17.1539H23.7328V17.9744H22.7878V18.9212H21.9672V17.9744ZM25.3908 22.3537C25.6376 22.781 25.8847 23.2086 26.1315 23.6375C26.4788 24.2383 27.197 24.496 28.1256 24.4959C29.8554 24.4957 32.3145 23.6011 34.4584 22.364C36.2186 21.3474 37.7365 20.1429 38.7323 18.9723C39.8352 17.6757 40.1781 16.575 39.724 15.7894C39.3182 15.0867 38.9125 14.3839 38.5071 13.681L38.5067 13.6803L38.5067 13.6801C38.0528 12.8936 36.9275 12.6401 35.2531 12.9468C33.7413 13.2237 31.9395 13.9357 30.1797 14.9516C26.885 16.8543 23.9199 19.8057 24.9139 21.5277C25.0726 21.8031 25.2316 22.0783 25.3908 22.3537ZM38.7685 17.5189L38.5168 17.082L37.8059 17.4916L38.2519 18.2657C38.2045 18.3247 38.1563 18.383 38.1073 18.4406C37.8412 18.7534 37.5331 19.0694 37.1915 19.3839L36.8522 18.7971L36.1419 19.2079L36.5604 19.9314C36.1906 20.234 35.7911 20.5323 35.368 20.8222L35.0054 20.1941L34.2948 20.6044L34.6808 21.2728C34.2634 21.5345 33.8365 21.7808 33.4012 22.0112L33.0156 21.3436L32.3051 21.7538L32.6668 22.3802C32.1964 22.6042 31.738 22.7985 31.298 22.9637L30.8832 22.244L30.1723 22.6538L30.5077 23.2357C29.9649 23.405 29.4606 23.5244 29.009 23.5952L28.5661 22.827L27.8553 23.2368L28.1066 23.6727C27.461 23.6723 27.0128 23.5226 26.8422 23.2276C26.6734 22.9342 26.5042 22.6414 26.335 22.3484C26.5129 22.3732 26.7037 22.3865 26.9084 22.3865C27.2841 22.3865 27.7044 22.3444 28.1664 22.2597C29.6784 21.9826 31.4805 21.2706 33.2409 20.2547C35.6339 18.8727 37.8528 16.9375 38.507 15.322C38.6759 15.6146 38.8444 15.9068 39.0137 16.1999C39.1815 16.4904 39.089 16.9565 38.7685 17.5189ZM30.59 15.6623C32.2705 14.6921 33.9791 14.0144 35.4008 13.7539C35.8105 13.6789 36.1822 13.6421 36.5057 13.6421C37.1664 13.6421 37.6259 13.7956 37.7959 14.0902L37.796 14.0904C38.3236 15.0066 36.3124 17.5333 32.8306 19.5441C31.1494 20.5142 29.4404 21.192 28.0183 21.4527C26.7721 21.6812 25.8774 21.556 25.6247 21.1182L25.6245 21.1179L25.6244 21.1178C25.0957 20.2015 27.1068 17.6738 30.59 15.6623ZM27.2417 21.2163C27.6278 21.2163 28.1136 21.1285 28.7027 20.9533C29.8345 20.6165 31.2262 19.9874 32.6213 19.1818C34.0173 18.3756 35.2581 17.485 36.115 16.6739C37.144 15.6999 37.4955 14.9689 37.1893 14.4388C36.8833 13.9101 36.0749 13.8494 34.7172 14.2538C33.5867 14.5905 32.1954 15.2194 30.7994 16.0246L30.7993 16.0247C29.4033 16.8308 28.1626 17.7214 27.3057 18.5325C26.2766 19.5065 25.9251 20.2375 26.2309 20.767C26.4037 21.0668 26.7378 21.2163 27.2417 21.2163ZM28.0019 19.0056C28.8079 18.2705 29.9471 17.4642 31.2094 16.7353C32.4715 16.0072 33.7389 15.4241 34.7782 15.0934C35.8821 14.7422 36.3621 14.7965 36.4735 14.853C36.467 14.9774 36.2748 15.4202 35.4187 16.2008C34.6125 16.9359 33.4734 17.7422 32.211 18.4712C30.9504 19.1991 29.6833 19.7822 28.6432 20.113C27.5386 20.4644 27.0582 20.41 26.947 20.3536C26.9533 20.2296 27.1453 19.7867 28.0019 19.0056ZM19.8645 32.3132H20.8112V33.1337H19.8645V34.0804H19.044V33.1337H18.0989V32.3132H19.044V31.3681H19.8645V32.3132ZM37.4519 26.1402C36.4569 24.4186 32.419 25.5115 29.125 27.4136C27.3647 28.4303 25.8469 29.6348 24.8511 30.8054C23.7482 32.102 23.4052 33.2027 23.8594 33.9883C24.2662 34.6925 24.6714 35.3949 25.0768 36.0975C25.4055 36.6672 26.0866 36.9573 27.0736 36.9573C27.449 36.9573 27.8688 36.9153 28.3303 36.8308C29.8421 36.5539 31.6438 35.8419 33.4037 34.8259C36.6984 32.9233 39.6635 29.9719 38.6695 28.2498C38.2639 27.5465 37.858 26.8433 37.4519 26.1402ZM25.476 31.337C26.4125 30.236 27.8542 29.095 29.5353 28.1242C31.8921 26.7631 34.1166 26.1043 35.4728 26.1043C36.1206 26.1043 36.5703 26.2547 36.7414 26.5507C36.7416 26.5509 36.7417 26.5511 36.7417 26.5513C37.2691 27.4681 35.2581 29.9951 31.7759 32.0061C30.0944 32.9763 28.3857 33.6541 26.9643 33.9144C25.7189 34.1425 24.8241 34.0171 24.5702 33.5788L24.5697 33.5779L24.5696 33.5778C24.3164 33.1396 24.6552 32.302 25.476 31.337ZM37.7132 29.9784L37.4619 29.5434L36.7514 29.9539L37.1951 30.7216C36.908 31.0775 36.5523 31.4546 36.1344 31.8402L35.7995 31.2594L35.0887 31.6693L35.5035 32.3887C35.1406 32.6871 34.7432 32.9869 34.3142 33.2821L33.9525 32.6547L33.2417 33.0644L33.6274 33.7336C33.4184 33.8647 33.207 33.992 32.9933 34.1154C32.7805 34.2382 32.5656 34.3572 32.3486 34.4724L31.9626 33.8038L31.252 34.214L31.6148 34.8423C31.152 35.0639 30.6939 35.2607 30.2468 35.4296L29.8282 34.7055L29.1178 35.1161L29.4568 35.7025C29.0139 35.841 28.5863 35.9497 28.1825 36.0237C28.1079 36.0374 28.0332 36.05 27.9583 36.0615L27.5113 35.2871L26.8006 35.6972L27.0534 36.1352C26.4057 36.1315 25.9553 35.9784 25.7873 35.6874C25.6187 35.395 25.4494 35.102 25.2807 34.8095C25.4612 34.8348 25.6526 34.8478 25.8547 34.8478C27.5844 34.8477 30.0427 33.9534 32.1862 32.7166C34.5796 31.3344 36.7987 29.3988 37.4528 27.783C37.6213 28.0752 37.7904 28.3677 37.9589 28.6599C38.1294 28.9555 38.0353 29.4189 37.7132 29.9784ZM26.1871 33.678C26.5733 33.678 27.0593 33.5901 27.6487 33.4145C28.7792 33.0778 30.1705 32.449 31.5666 31.6437C32.9626 30.8375 34.2033 29.9469 35.0602 29.1358C36.0893 28.1618 36.4408 27.4308 36.1352 26.9017C36.0584 26.7682 35.9002 26.5911 35.5824 26.5056C34.4474 26.2005 31.8327 27.2807 29.7445 28.4865C28.3485 29.2926 27.1078 30.1833 26.2509 30.9943C25.2219 31.9683 24.8704 32.6993 25.1765 33.2295C25.3497 33.5287 25.6837 33.678 26.1871 33.678ZM26.9472 31.4675C27.7533 30.7323 28.8924 29.926 30.1548 29.1971C31.4161 28.4687 32.6833 27.8853 33.7229 27.5545C34.8287 27.2026 35.3086 27.2577 35.4187 27.3142C35.4129 27.4377 35.2214 27.8807 34.3639 28.6627C33.5578 29.3978 32.4187 30.2041 31.1564 30.933C29.8943 31.6611 28.6268 32.2441 27.5876 32.5748C26.4837 32.926 26.0035 32.8717 25.8923 32.8153C25.8989 32.691 26.0911 32.2482 26.9472 31.4675ZM38.726 23.0436H39.6711V23.864H38.726V24.8107H37.9055V23.864H36.9588V23.0436H37.9055V22.0985H38.726V23.0436Z" fill="url(#paint0_linear_1_6471)"/>
<defs>
<linearGradient id="paint0_linear_1_6471" x1="10.0781" y1="25.878" x2="39.9189" y2="25.878" gradientUnits="userSpaceOnUse">
<stop stop-color="#864EFF"/>
<stop offset="1" stop-color="#502F99"/>
</linearGradient>
</defs>
</svg>
