<svg width="50" height="50" viewBox="0 0 50 50" fill="none" xmlns="http://www.w3.org/2000/svg">
<rect width="50" height="50" rx="25" fill="#F4EEFF"/>
<g clip-path="url(#clip0_1_6462)">
<path fill-rule="evenodd" clip-rule="evenodd" d="M34.8279 39.8731H15.1619C14.4237 39.8731 13.8438 39.2931 13.8438 38.5725V11.2087C13.8438 10.4882 14.4237 9.89062 15.1619 9.89062H34.8279C35.5485 9.89062 36.146 10.4882 36.146 11.2087V38.5725C36.146 39.2931 35.5485 39.8731 34.8279 39.8731ZM15.1619 10.5936C14.8104 10.5936 14.5467 10.8748 14.5467 11.2087V38.5725C14.5467 38.9064 14.8104 39.1701 15.1619 39.1701H34.8279C35.1619 39.1701 35.443 38.9064 35.443 38.5725V11.2087C35.443 10.8748 35.1619 10.5936 34.8279 10.5936H15.1619Z" fill="url(#paint0_linear_1_6462)"/>
<path fill-rule="evenodd" clip-rule="evenodd" d="M32.7331 19.2782H16.7577C16.3008 19.2782 16.3008 18.5752 16.7577 18.5752H32.7331C33.1901 18.5752 33.1901 19.2782 32.7331 19.2782ZM32.7331 21.0708H16.7577C16.3008 21.0708 16.3008 20.3678 16.7577 20.3678H32.7331C33.1901 20.3678 33.1901 21.0708 32.7331 21.0708ZM32.7331 22.8634H16.7577C16.3008 22.8634 16.3008 22.1604 16.7577 22.1604H32.7331C33.1901 22.1604 33.1901 22.8634 32.7331 22.8634ZM32.7331 24.656H25.1936C24.7191 24.656 24.7191 23.9531 25.1936 23.9531H32.7331C33.1901 23.9531 33.1901 24.656 32.7331 24.656ZM32.7331 27.3274H16.7577C16.3008 27.3274 16.3008 26.6244 16.7577 26.6244H32.7331C33.1901 26.6244 33.1901 27.3274 32.7331 27.3274ZM32.7331 29.12H16.7577C16.3008 29.12 16.3008 28.417 16.7577 28.417H32.7331C33.1901 28.417 33.1901 29.12 32.7331 29.12ZM32.7331 30.9126H16.7577C16.3008 30.9126 16.3008 30.2096 16.7577 30.2096H32.7331C33.1901 30.2096 33.1901 30.9126 32.7331 30.9126ZM24.3149 32.7053H16.7577C16.3008 32.7053 16.3008 32.0023 16.7577 32.0023H24.3149C24.7718 32.0023 24.7718 32.7053 24.3149 32.7053ZM20.7999 36.185H16.7577C16.3008 36.185 16.3008 35.4821 16.7577 35.4821H20.7999C21.2569 35.4821 21.2569 36.185 20.7999 36.185ZM32.7331 16.9232H16.7577C16.5644 16.9232 16.4062 16.765 16.4062 16.5717V13.9531C16.4062 13.7597 16.5644 13.6016 16.7577 13.6016H32.7331C32.9265 13.6016 33.0846 13.7597 33.0846 13.9531V16.5717C33.0846 16.765 32.9265 16.9232 32.7331 16.9232ZM17.1092 16.2202H32.3816V14.3046H17.1092V16.2202ZM27.0214 37.591C26.828 37.591 26.6699 37.4328 26.6699 37.2395C26.6347 36.2553 26.9862 32.9337 29.5521 33.6894C29.7103 33.7422 29.8157 33.8828 29.8157 34.0409C29.6751 36.2905 30.712 35.7808 30.6418 34.8318C30.6242 34.5682 30.9054 34.3573 31.1514 34.4979C31.6084 34.7439 32.2762 34.8318 32.5222 34.1464C32.6804 33.707 33.3307 33.9531 33.1901 34.3924C32.8386 35.3239 32.0477 35.4996 31.3272 35.3063C31.1163 36.5014 29.0776 37.2044 29.0952 34.3046C27.5486 34.0585 27.3553 36.4487 27.3729 37.222C27.3729 37.4328 27.2147 37.591 27.0214 37.591Z" fill="url(#paint1_linear_1_6462)"/>
</g>
<defs>
<linearGradient id="paint0_linear_1_6462" x1="13.8437" y1="26.1106" x2="36.146" y2="26.1106" gradientUnits="userSpaceOnUse">
<stop stop-color="#864EFF"/>
<stop offset="1" stop-color="#502F99"/>
</linearGradient>
<linearGradient id="paint1_linear_1_6462" x1="16.4062" y1="26.5795" x2="33.2098" y2="26.5795" gradientUnits="userSpaceOnUse">
<stop stop-color="#864EFF"/>
<stop offset="1" stop-color="#502F99"/>
</linearGradient>
<clipPath id="clip0_1_6462">
<rect width="30" height="30" fill="white" transform="translate(10 9.89062)"/>
</clipPath>
</defs>
</svg>
