<svg width="50" height="50" viewBox="0 0 50 50" fill="none" xmlns="http://www.w3.org/2000/svg">
<rect width="50" height="50" rx="25" fill="#F4EEFF"/>
<path d="M35.8039 18.6035L28.6877 11.4872C28.6283 11.4258 28.5569 11.3771 28.4779 11.3444C28.3989 11.3117 28.3141 11.2955 28.2286 11.297H16.6052C15.9163 11.297 15.2557 11.5706 14.7686 12.0577C14.2815 12.5448 14.0078 13.2055 14.0078 13.8944V36.1022C14.0078 36.791 14.2815 37.4517 14.7686 37.9388C15.2557 38.4259 15.9163 38.6996 16.6052 38.6996H33.3968C34.0856 38.6996 34.7463 38.4259 35.2334 37.9388C35.7205 37.4517 35.9942 36.791 35.9942 36.1022V19.0625C35.9936 18.8904 35.9253 18.7255 35.8039 18.6035ZM33.7773 18.4132H29.852C29.5936 18.4132 29.3459 18.3106 29.1632 18.1279C28.9806 17.9452 28.8779 17.6975 28.8779 17.4392V13.5138L33.7773 18.4132ZM33.3968 37.4009H16.6072C16.2627 37.4009 15.9324 37.264 15.6888 37.0205C15.4453 36.7769 15.3085 36.4466 15.3085 36.1022V13.8944C15.3085 13.5499 15.4453 13.2196 15.6888 12.976C15.9324 12.7325 16.2627 12.5957 16.6072 12.5957H27.5812V17.4392C27.5812 18.0419 27.8206 18.62 28.2469 19.0462C28.6731 19.4724 29.2512 19.7119 29.8539 19.7119H34.6974V36.1022C34.6974 36.2729 34.6638 36.4419 34.5984 36.5996C34.533 36.7573 34.4372 36.9005 34.3164 37.0212C34.1956 37.1418 34.0522 37.2374 33.8944 37.3026C33.7366 37.3677 33.5675 37.4011 33.3968 37.4009Z" fill="url(#paint0_linear_1_6453)"/>
<path d="M22.395 21.2988C22.9151 21.2988 23.4236 21.1446 23.8561 20.8556C24.2886 20.5666 24.6256 20.1559 24.8247 19.6753C25.0237 19.1948 25.0758 18.666 24.9743 18.1559C24.8729 17.6457 24.6224 17.1771 24.2546 16.8093C23.8868 16.4415 23.4182 16.1911 22.9081 16.0896C22.3979 15.9881 21.8691 16.0402 21.3886 16.2393C20.9081 16.4383 20.4973 16.7754 20.2084 17.2079C19.9194 17.6403 19.7651 18.1488 19.7651 18.6689C19.766 19.3662 20.0433 20.0346 20.5364 20.5276C21.0294 21.0206 21.6978 21.2979 22.395 21.2988ZM22.395 17.3378C22.6583 17.3378 22.9157 17.4158 23.1346 17.5621C23.3535 17.7084 23.5241 17.9163 23.6248 18.1595C23.7256 18.4028 23.752 18.6704 23.7006 18.9286C23.6492 19.1869 23.5225 19.424 23.3363 19.6102C23.1501 19.7964 22.9129 19.9232 22.6547 19.9745C22.3965 20.0259 22.1288 19.9995 21.8856 19.8988C21.6424 19.798 21.4345 19.6274 21.2882 19.4085C21.1419 19.1896 21.0638 18.9322 21.0638 18.6689C21.0644 18.316 21.2048 17.9778 21.4543 17.7282C21.7038 17.4787 22.0421 17.3383 22.395 17.3378ZM18.5892 26.3313C18.7614 26.3313 18.9265 26.2629 19.0483 26.1411C19.1701 26.0193 19.2385 25.8541 19.2385 25.6819V25.2858C19.2394 24.6478 19.4932 24.0362 19.9443 23.5851C20.3954 23.134 21.007 22.8802 21.645 22.8793H23.145C23.783 22.8802 24.3946 23.134 24.8457 23.5851C25.2968 24.0362 25.5506 24.6478 25.5515 25.2858V25.6819C25.5515 25.8541 25.6199 26.0193 25.7417 26.1411C25.8635 26.2629 26.0286 26.3313 26.2009 26.3313C26.3731 26.3313 26.5382 26.2629 26.66 26.1411C26.7818 26.0193 26.8502 25.8541 26.8502 25.6819V25.2858C26.849 24.3035 26.4582 23.3618 25.7636 22.6672C25.069 21.9726 24.1273 21.5818 23.145 21.5806H21.645C20.6627 21.5818 19.721 21.9726 19.0264 22.6672C18.3318 23.3618 17.941 24.3035 17.9398 25.2858V25.6819C17.9398 25.8541 18.0082 26.0193 18.13 26.1411C18.2518 26.2629 18.4169 26.3313 18.5892 26.3313ZM18.2275 31.0826H26.1073C26.2796 31.0826 26.4447 31.0142 26.5665 30.8924C26.6883 30.7706 26.7567 30.6054 26.7567 30.4332C26.7567 30.261 26.6883 30.0958 26.5665 29.9741C26.4447 29.8523 26.2796 29.7839 26.1073 29.7839H18.2275C18.0553 29.7839 17.8901 29.8523 17.7683 29.9741C17.6465 30.0958 17.5781 30.261 17.5781 30.4332C17.5781 30.6054 17.6465 30.7706 17.7683 30.8924C17.8901 31.0142 18.0553 31.0826 18.2275 31.0826ZM30.5651 33.2034H18.2275C18.0553 33.2034 17.8901 33.2718 17.7683 33.3935C17.6465 33.5153 17.5781 33.6805 17.5781 33.8527C17.5781 34.0249 17.6465 34.1901 17.7683 34.3119C17.8901 34.4336 18.0553 34.5021 18.2275 34.5021H30.5651C30.7374 34.5021 30.9025 34.4336 31.0243 34.3119C31.1461 34.1901 31.2145 34.0249 31.2145 33.8527C31.2145 33.6805 31.1461 33.5153 31.0243 33.3935C30.9025 33.2718 30.7374 33.2034 30.5651 33.2034Z" fill="url(#paint1_linear_1_6453)"/>
<defs>
<linearGradient id="paint0_linear_1_6453" x1="14.0078" y1="26.1213" x2="35.9942" y2="26.1213" gradientUnits="userSpaceOnUse">
<stop stop-color="#864EFF"/>
<stop offset="1" stop-color="#502F99"/>
</linearGradient>
<linearGradient id="paint1_linear_1_6453" x1="17.5781" y1="26.0272" x2="31.2145" y2="26.0272" gradientUnits="userSpaceOnUse">
<stop stop-color="#864EFF"/>
<stop offset="1" stop-color="#502F99"/>
</linearGradient>
</defs>
</svg>
