<svg width="50" height="50" viewBox="0 0 50 50" fill="none" xmlns="http://www.w3.org/2000/svg">
<rect width="50" height="50" rx="25" fill="#F4EEFF"/>
<path d="M32.3213 18.7734C33.124 18.7734 33.9186 18.932 34.6602 19.2393C35.4017 19.5465 36.0761 19.9958 36.6436 20.5635L36.6465 20.5664C37.7923 21.713 38.4364 23.2677 38.4365 24.8887C38.4365 26.5098 37.7924 28.0652 36.6465 29.2119L36.6436 29.2139C36.0761 29.7815 35.4017 30.2318 34.6602 30.5391C33.9186 30.8462 33.1239 31.0049 32.3213 31.0049C31.5187 31.0049 30.7239 30.8462 29.9824 30.5391C29.2409 30.2318 28.5665 29.7815 27.999 29.2139L24.3369 25.5518L20.6748 21.8887C20.2813 21.4951 19.814 21.1828 19.2998 20.9697C18.7856 20.7567 18.2343 20.6475 17.6777 20.6475C17.1211 20.6475 16.5699 20.7567 16.0557 20.9697C15.5415 21.1828 15.0742 21.4951 14.6807 21.8887C14.2866 22.282 13.9742 22.7494 13.7607 23.2637C13.5473 23.778 13.4368 24.3298 13.4365 24.8867C13.4363 25.4436 13.5458 25.9953 13.7588 26.5098C13.9718 27.0242 14.2849 27.4911 14.6787 27.8848L14.6807 27.8887C15.0741 28.2823 15.5415 28.5946 16.0557 28.8076C16.5699 29.0207 17.1211 29.1309 17.6777 29.1309C18.2343 29.1309 18.7856 29.0207 19.2998 28.8076C19.8139 28.5946 20.2814 28.2823 20.6748 27.8887L21.8369 26.7266C21.9238 26.6397 22.0271 26.5705 22.1406 26.5234C22.2543 26.4764 22.377 26.4521 22.5 26.4521C22.6229 26.4522 22.7449 26.4764 22.8584 26.5234C22.972 26.5705 23.0752 26.6396 23.1621 26.7266C23.2491 26.8135 23.3182 26.9167 23.3652 27.0303C23.4123 27.1439 23.4365 27.2657 23.4365 27.3887C23.4365 27.5116 23.4122 27.6335 23.3652 27.7471C23.3181 27.8607 23.2491 27.9648 23.1621 28.0518L22 29.2139C21.4325 29.7815 20.7582 30.2318 20.0166 30.5391C19.2751 30.8462 18.4804 31.0049 17.6777 31.0049C16.8751 31.0049 16.0804 30.8462 15.3389 30.5391C14.5973 30.2318 13.923 29.7815 13.3555 29.2139L13.3525 29.2119C12.2066 28.0652 11.5625 26.5098 11.5625 24.8887C11.5626 23.2677 12.2067 21.713 13.3525 20.5664L13.3555 20.5635C13.923 19.9958 14.5973 19.5465 15.3389 19.2393C16.0804 18.932 16.8751 18.7734 17.6777 18.7734C18.4804 18.7734 19.2751 18.932 20.0166 19.2393C20.7581 19.5465 21.4325 19.9958 22 20.5635L25.6621 24.2266L29.3242 27.8887C29.7177 28.2823 30.1851 28.5946 30.6992 28.8076C31.2134 29.0207 31.7647 29.1309 32.3213 29.1309C32.8779 29.1309 33.4291 29.0207 33.9434 28.8076C34.4575 28.5946 34.9249 28.2823 35.3184 27.8887C35.7124 27.4953 36.0248 27.0279 36.2383 26.5137C36.4517 25.9994 36.5622 25.4484 36.5625 24.8916C36.5627 24.3348 36.4532 23.783 36.2402 23.2686C36.0272 22.754 35.7142 22.2863 35.3203 21.8926C34.9271 21.4985 34.4604 21.1852 33.9463 20.9717C33.432 20.7581 32.8801 20.6478 32.3232 20.6475C31.7664 20.6471 31.2147 20.7568 30.7002 20.9697C30.1857 21.1827 29.718 21.4949 29.3242 21.8887L28.1621 23.0518C28.0752 23.1387 27.9719 23.2078 27.8584 23.2549C27.7447 23.302 27.6221 23.3262 27.499 23.3262C27.3761 23.3261 27.2542 23.3019 27.1406 23.2549C27.0271 23.2078 26.9239 23.1387 26.8369 23.0518C26.7499 22.9648 26.6809 22.8607 26.6338 22.7471C26.5868 22.6335 26.5625 22.5116 26.5625 22.3887C26.5625 22.2657 26.5867 22.1439 26.6338 22.0303C26.6809 21.9167 26.75 21.8135 26.8369 21.7266L27.999 20.5635C28.5665 19.9958 29.2409 19.5465 29.9824 19.2393C30.724 18.932 31.5186 18.7734 32.3213 18.7734Z" fill="url(#paint0_linear_1_6443)"/>
<defs>
<linearGradient id="paint0_linear_1_6443" x1="11.5625" y1="25.3904" x2="38.4365" y2="25.3904" gradientUnits="userSpaceOnUse">
<stop stop-color="#864EFF"/>
<stop offset="1" stop-color="#502F99"/>
</linearGradient>
</defs>
</svg>
