<svg width="46" height="55" viewBox="0 0 46 55" fill="none" xmlns="http://www.w3.org/2000/svg">
<mask id="mask0_49_2391" style="mask-type:luminance" maskUnits="userSpaceOnUse" x="-1" y="0" width="47" height="55">
<path d="M45.9968 0.00146484H-0.000976562V54.1907H45.9968V0.00146484Z" fill="white"/>
</mask>
<g mask="url(#mask0_49_2391)">
<path d="M27.4053 5.01667C27.8166 4.9441 28.1886 4.87468 28.5614 4.81393C29.4694 4.66562 30.383 4.61435 31.3007 4.70191C31.8907 4.75872 32.4627 4.89282 32.9911 5.16262C33.7819 5.56653 34.276 6.18344 34.4178 7.04329C34.4907 7.48587 34.4383 7.92374 34.3277 8.35599C34.2039 8.83644 34.0056 9.28848 33.7647 9.72395C33.3189 10.531 32.7503 11.2528 32.1243 11.9368C32.012 12.0591 31.8997 12.1813 31.7735 12.3186C31.8767 12.4322 31.9702 12.5356 32.0645 12.6381C32.615 13.2329 33.1223 13.8585 33.5459 14.544C33.8827 15.0875 34.1646 15.6556 34.3236 16.2733C34.444 16.7426 34.4931 17.2152 34.3973 17.6972C34.2555 18.4064 33.8614 18.946 33.2387 19.3381C32.838 19.5905 32.3963 19.7475 31.9325 19.8398C31.2499 19.9755 30.5591 20.0173 29.8619 19.9692C29.1031 19.9163 28.3517 19.8161 27.6101 19.6513C27.5486 19.6379 27.4839 19.6402 27.4012 19.6339C27.3585 19.7483 27.3184 19.8524 27.2815 19.9581C27.0087 20.7494 26.6891 21.5217 26.2622 22.2498C25.945 22.7902 25.5788 23.2959 25.1125 23.7298C24.847 23.9767 24.5562 24.1905 24.2259 24.3499C23.4344 24.7325 22.6403 24.7356 21.8463 24.3585C21.5022 24.1952 21.2023 23.9727 20.9278 23.7164C20.5402 23.3535 20.2214 22.9386 19.9412 22.4951C19.4479 21.7149 19.0914 20.8764 18.7924 20.0126C18.7514 19.8943 18.7112 19.7759 18.6645 19.6394C18.563 19.6489 18.4736 19.6489 18.3892 19.667C17.4527 19.8627 16.5071 19.992 15.5466 19.9873C14.969 19.9842 14.3962 19.925 13.8374 19.7728C13.4055 19.6552 12.9983 19.4856 12.6394 19.2213C11.9978 18.748 11.6569 18.1216 11.6176 17.343C11.5889 16.7789 11.7069 16.2401 11.9126 15.7155C12.1412 15.1341 12.455 14.5961 12.8139 14.0825C13.1802 13.5579 13.5924 13.068 14.0291 12.597C14.107 12.5134 14.1807 12.4267 14.2692 12.3272C14.1987 12.2429 14.1397 12.1632 14.0718 12.0906C13.5612 11.547 13.0868 10.9759 12.6754 10.3582C12.328 9.83598 12.0314 9.29006 11.8282 8.69921C11.6741 8.25189 11.5946 7.79431 11.616 7.32261C11.6528 6.499 12.0199 5.84658 12.7164 5.36852C13.1843 5.04744 13.7153 4.87547 14.2733 4.77212C14.8166 4.67194 15.3647 4.65221 15.9162 4.66562C16.7176 4.68535 17.5067 4.79895 18.2901 4.95436C18.4032 4.97644 18.5178 4.99301 18.649 5.0151C18.6998 4.87783 18.7465 4.76187 18.7867 4.64433C19.0079 3.99665 19.266 3.36318 19.588 2.75495C19.8445 2.27057 20.137 1.80829 20.4927 1.38387C20.7991 1.01861 21.1441 0.693593 21.5579 0.439575C21.9627 0.191077 22.4003 0.0340891 22.8821 0.00568929C23.4073 -0.0242883 23.8932 0.106666 24.348 0.354376C24.7643 0.580785 25.1125 0.883715 25.4239 1.22846C25.8655 1.71757 26.2113 2.26584 26.5104 2.8433C26.8153 3.43102 27.0586 4.0432 27.2741 4.66562C27.311 4.77134 27.3511 4.87626 27.4028 5.01589L27.4053 5.01667ZM23.0115 7.57188C22.565 7.79116 22.1299 7.99626 21.7029 8.2156C20.7778 8.69051 19.883 9.2159 19.0103 9.776C18.8317 9.89042 18.7407 10.0151 18.7268 10.232C18.635 11.6322 18.6326 13.0318 18.7309 14.4312C18.7432 14.6103 18.8055 14.7318 18.9645 14.8351C20.1952 15.6311 21.4751 16.3435 22.8067 16.9714C22.9656 17.0464 23.1017 17.0582 23.2492 16.9675C23.282 16.947 23.3196 16.9336 23.3549 16.917C24.6168 16.3245 25.8287 15.6492 26.993 14.8943C27.0906 14.8312 27.1823 14.7618 27.2749 14.6971C27.2897 14.6119 27.3053 14.5385 27.3143 14.4636C27.3266 14.3634 27.3372 14.2632 27.3429 14.1622C27.4093 12.9386 27.4085 11.7151 27.3429 10.4915C27.3364 10.3653 27.3134 10.2406 27.3077 10.1144C27.302 9.98822 27.2438 9.90063 27.1332 9.83756C27.0767 9.80517 27.025 9.76573 26.9709 9.73107C25.8049 8.97847 24.593 8.30237 23.3303 7.71227C23.2368 7.66892 23.141 7.62866 23.0107 7.57106L23.0115 7.57188ZM15.001 13.0365C14.9329 13.0988 14.8731 13.1461 14.8215 13.2013C14.3888 13.6589 13.9857 14.1393 13.6276 14.6545C13.3646 15.0323 13.1302 15.4252 12.9434 15.8441C12.782 16.2054 12.6615 16.5786 12.623 16.9706C12.5517 17.6925 12.8434 18.2707 13.5088 18.6028C13.7161 18.7062 13.9398 18.7874 14.1651 18.849C14.5437 18.9531 14.9337 18.9981 15.3287 19.0099C16.2907 19.0391 17.2355 18.9168 18.1712 18.7141C18.2335 18.7006 18.2933 18.6786 18.3695 18.6557C18.3556 18.5705 18.349 18.4971 18.3327 18.4261C18.109 17.4527 17.9246 16.4728 17.832 15.4797C17.8157 15.3013 17.7361 15.1823 17.5854 15.0773C16.7348 14.4857 15.926 13.8451 15.1607 13.154C15.1148 13.1122 15.0608 13.0798 15.0018 13.0365H15.001ZM18.3687 6.00436C18.3163 5.97517 18.2852 5.94835 18.2499 5.94046C17.2888 5.73535 16.3194 5.59098 15.3311 5.62885C14.7535 5.65094 14.1832 5.72825 13.6505 5.96649C12.8557 6.32307 12.5148 6.9431 12.6386 7.77856C12.7254 8.36311 12.9606 8.89404 13.2564 9.40209C13.7006 10.1657 14.2594 10.8481 14.8731 11.4903C14.9133 11.5329 14.9698 11.5605 15.0223 11.5976C15.0911 11.5416 15.1419 11.5029 15.1886 11.4603C15.9359 10.7874 16.7217 10.1594 17.5534 9.58665C17.7435 9.45571 17.8173 9.30266 17.8411 9.08653C17.8976 8.5856 17.9697 8.08542 18.0557 7.58846C18.1458 7.06698 18.2598 6.55029 18.3687 6.00357V6.00436ZM31.0393 11.6015C31.1008 11.5581 31.1361 11.54 31.1614 11.5131C31.767 10.882 32.3193 10.2107 32.7642 9.46283C32.9797 9.10153 33.1624 8.72523 33.2919 8.32606C33.3944 8.00968 33.4443 7.68864 33.432 7.35727C33.4124 6.82477 33.1673 6.41224 32.7044 6.13058C32.5077 6.01067 32.2881 5.91758 32.0668 5.84421C31.6055 5.68959 31.1238 5.63752 30.6378 5.62649C29.7561 5.60598 28.8884 5.718 28.0288 5.89786C27.9182 5.92074 27.7896 5.90417 27.6896 6.02645C27.7018 6.09587 27.7133 6.18107 27.733 6.26469C27.9551 7.19949 28.1173 8.14459 28.2205 9.09756C28.2443 9.31766 28.3222 9.46441 28.509 9.59301C29.3399 10.1665 30.1249 10.7953 30.873 11.4666C30.9205 11.5092 30.9722 11.5479 31.0393 11.6023V11.6015ZM28.2771 15.2272C28.1878 15.8228 28.114 16.3861 28.0173 16.9446C27.9198 17.5134 27.7994 18.0782 27.6871 18.6572C27.7699 18.6809 27.8305 18.7015 27.8919 18.7156C28.4909 18.8553 29.1006 18.9429 29.7135 18.9886C30.3141 19.0335 30.9172 19.0359 31.5146 18.9318C31.9169 18.8616 32.3062 18.7551 32.6561 18.5453C33.1469 18.251 33.4271 17.8297 33.4271 17.2649C33.4271 17.0275 33.4009 16.786 33.3509 16.5533C33.2337 16.0035 32.9707 15.5088 32.6741 15.0308C32.2553 14.3571 31.7498 13.7457 31.2008 13.1674C31.1582 13.1224 31.1073 13.0854 31.0442 13.0302C30.8091 13.2329 30.5887 13.4278 30.3641 13.6163C30.1371 13.8072 29.9085 13.9958 29.6758 14.1803C29.4431 14.3642 29.2063 14.5433 28.9679 14.7208C28.7302 14.8974 28.4901 15.0702 28.2754 15.2272H28.2771ZM23.0287 6.484C23.5966 6.26311 24.1382 6.03986 24.6897 5.84027C25.251 5.63753 25.8221 5.45766 26.3834 5.26991C26.3834 5.22731 26.39 5.20049 26.3826 5.17761C26.086 4.24594 25.7123 3.34661 25.1691 2.51986C24.9585 2.19879 24.7216 1.89822 24.439 1.63158C24.2317 1.43672 24.0071 1.26475 23.7449 1.14168C23.2656 0.918428 22.787 0.916853 22.3084 1.14405C22.0594 1.26238 21.8422 1.42331 21.6431 1.60791C21.2916 1.93451 21.0097 2.31238 20.7614 2.71551C20.2976 3.4681 19.9666 4.27591 19.6921 5.1074C19.6773 5.15316 19.6789 5.20443 19.6716 5.26912C20.2329 5.45687 20.7909 5.63201 21.3399 5.8308C21.9028 6.03434 22.4576 6.26075 23.0304 6.48319L23.0287 6.484ZM19.6773 19.3609C19.6773 19.4319 19.6708 19.4588 19.6781 19.4817C19.9559 20.3518 20.3042 21.1935 20.7925 21.9761C21.0294 22.3555 21.2998 22.7113 21.6316 23.0206C21.8398 23.2147 22.0659 23.3842 22.329 23.505C22.796 23.7195 23.2631 23.7195 23.7293 23.5034C24.0039 23.3764 24.2398 23.1973 24.4545 22.9914C24.8298 22.6324 25.1248 22.2175 25.3829 21.7765C25.7893 21.0815 26.0966 20.3455 26.3433 19.5858C26.3654 19.518 26.3744 19.4454 26.3916 19.3609C26.2753 19.3223 26.1777 19.2876 26.0786 19.2584C25.1756 18.9941 24.2964 18.6699 23.431 18.3102C23.3467 18.2754 23.2631 18.2392 23.1795 18.2029C23.0779 18.1587 22.9779 18.1571 22.8764 18.2021C22.805 18.2336 22.7321 18.262 22.66 18.2928C21.7841 18.6628 20.8917 18.9878 19.9772 19.2576C19.8789 19.2868 19.7822 19.3239 19.6765 19.3602L19.6773 19.3609ZM17.6829 13.9389C17.6829 12.8447 17.6829 11.8413 17.6813 10.8386C17.6813 10.8197 17.6575 10.8007 17.6444 10.7818C17.2789 10.9546 16.0457 11.9652 15.7442 12.3462C16.3325 12.8929 16.9569 13.4001 17.6829 13.9389ZM19.4094 18.4009C20.1247 18.2218 20.8172 17.9678 21.5063 17.7066C21.5833 17.6775 21.6906 17.6767 21.7185 17.5741C21.7111 17.5583 21.7086 17.5426 21.7005 17.5378C20.7991 17.0329 19.897 16.5289 18.9948 16.0263C18.9874 16.0224 18.9702 16.0326 18.9579 16.0358C18.9243 16.4318 19.2103 17.948 19.4102 18.4009H19.4094ZM30.3436 12.3186C29.7373 11.7671 29.1457 11.2725 28.5188 10.8166C28.4926 10.7976 28.45 10.8 28.4074 10.7913C28.3967 10.837 28.3812 10.871 28.3803 10.9057C28.3787 11.8516 28.3779 12.7974 28.3779 13.7433C28.3779 13.7914 28.3762 13.8459 28.477 13.8624C29.1014 13.3978 29.7176 12.8953 30.3428 12.3194L30.3436 12.3186ZM26.6637 6.24812C26.6022 6.25522 26.5629 6.25286 26.5276 6.26469C25.8369 6.49818 25.147 6.73327 24.4578 6.97152C24.4078 6.98891 24.3693 7.03699 24.3242 7.07095C25.251 7.59003 26.154 8.09645 27.0578 8.60217C27.066 8.6069 27.0832 8.5982 27.0955 8.59587C27.1307 8.2369 26.8808 6.86345 26.6637 6.24812ZM24.2767 17.5726C24.3783 17.6278 24.4185 17.6578 24.4644 17.6735C25.1535 17.9102 25.8434 18.1453 26.5342 18.378C26.5776 18.3922 26.6309 18.3796 26.6883 18.3796C26.8849 17.6554 27.0136 16.9375 27.1192 16.2149C27.1274 16.1589 27.1143 16.0997 27.1102 16.0208C26.2802 16.4768 25.4763 16.9178 24.6717 17.3588C24.5594 17.4203 24.4455 17.481 24.2751 17.5726H24.2767ZM21.7849 7.04493C20.9794 6.7191 20.205 6.44613 19.4077 6.2355C19.2095 6.69307 18.9267 8.1943 18.9579 8.61635C19.8847 8.10124 20.8048 7.59003 21.7849 7.04568V7.04493Z" fill="url(#paint0_linear_49_2391)"/>
<path d="M27.4052 5.01667C27.8166 4.9441 28.1886 4.87468 28.5614 4.81393C29.4693 4.66562 30.383 4.61435 31.3007 4.70191C31.8907 4.75872 32.4627 4.89282 32.9912 5.16262C33.7819 5.56653 34.276 6.18344 34.4178 7.04329C34.4907 7.48587 34.4383 7.92374 34.3277 8.35599C34.2039 8.83644 34.0056 9.28848 33.7647 9.72395C33.319 10.531 32.7503 11.2528 32.1242 11.9368C32.012 12.0591 31.8997 12.1813 31.7735 12.3186C31.8768 12.4322 31.9702 12.5356 32.0644 12.6381C32.6151 13.2329 33.1223 13.8585 33.5459 14.544C33.8827 15.0875 34.1646 15.6556 34.3236 16.2733C34.444 16.7426 34.4932 17.2152 34.3973 17.6972C34.2556 18.4064 33.8614 18.946 33.2386 19.3381C32.838 19.5905 32.3963 19.7475 31.9325 19.8398C31.25 19.9755 30.5592 20.0173 29.8618 19.9692C29.1031 19.9163 28.3517 19.8161 27.6101 19.6513C27.5486 19.6379 27.4839 19.6402 27.4011 19.6339C27.3585 19.7483 27.3184 19.8524 27.2815 19.9581C27.0086 20.7494 26.6891 21.5217 26.2622 22.2498C25.945 22.7902 25.5787 23.2959 25.1125 23.7298C24.8471 23.9767 24.5561 24.1905 24.2259 24.3499C23.4344 24.7325 22.6404 24.7356 21.8464 24.3585C21.5022 24.1952 21.2023 23.9727 20.9278 23.7164C20.5402 23.3535 20.2215 22.9386 19.9412 22.4951C19.4479 21.7149 19.0915 20.8764 18.7924 20.0126C18.7514 19.8943 18.7113 19.7759 18.6646 19.6394C18.5629 19.6489 18.4737 19.6489 18.3892 19.667C17.4526 19.8627 16.507 19.992 15.5467 19.9873C14.969 19.9842 14.3962 19.925 13.8374 19.7728C13.4056 19.6552 12.9983 19.4856 12.6394 19.2213C11.9978 18.748 11.6569 18.1216 11.6176 17.343C11.5889 16.7789 11.7069 16.2401 11.9126 15.7155C12.1412 15.1341 12.4551 14.5961 12.8139 14.0825C13.1802 13.5579 13.5924 13.068 14.0291 12.597C14.107 12.5134 14.1807 12.4267 14.2692 12.3272C14.1988 12.2429 14.1397 12.1632 14.0717 12.0906C13.5612 11.547 13.0868 10.9759 12.6755 10.3582C12.328 9.83598 12.0314 9.29006 11.8282 8.69921C11.6741 8.25189 11.5947 7.79431 11.616 7.32261C11.6528 6.499 12.0199 5.84658 12.7164 5.36852C13.1843 5.04744 13.7153 4.87547 14.2733 4.77212C14.8166 4.67194 15.3648 4.65221 15.9162 4.66562C16.7176 4.68535 17.5067 4.79895 18.2901 4.95436C18.4032 4.97644 18.5179 4.99301 18.649 5.0151C18.6998 4.87783 18.7465 4.76187 18.7866 4.64433C19.0079 3.99665 19.266 3.36318 19.5881 2.75495C19.8445 2.27057 20.137 1.80829 20.4926 1.38387C20.7991 1.01861 21.1441 0.693593 21.5579 0.439575C21.9627 0.191077 22.4003 0.0340891 22.8821 0.00568929C23.4073 -0.0242883 23.8932 0.106666 24.348 0.354376C24.7643 0.580785 25.1125 0.883715 25.4239 1.22846C25.8656 1.71757 26.2114 2.26584 26.5104 2.8433C26.8153 3.43102 27.0586 4.0432 27.2741 4.66562C27.311 4.77134 27.3512 4.87626 27.4028 5.01589L27.4052 5.01667ZM23.0116 7.57188C22.5649 7.79116 22.1299 7.99626 21.703 8.2156C20.7778 8.69051 19.883 9.2159 19.0103 9.776C18.8318 9.89042 18.7408 10.0151 18.7268 10.232C18.635 11.6322 18.6326 13.0318 18.7309 14.4312C18.7432 14.6103 18.8055 14.7318 18.9645 14.8351C20.1952 15.6311 21.4752 16.3435 22.8067 16.9714C22.9657 17.0464 23.1017 17.0582 23.2492 16.9675C23.2819 16.947 23.3196 16.9336 23.3549 16.917C24.6168 16.3245 25.8287 15.6492 26.9931 14.8943C27.0906 14.8312 27.1824 14.7618 27.275 14.6971C27.2897 14.6119 27.3053 14.5385 27.3143 14.4636C27.3266 14.3634 27.3372 14.2632 27.343 14.1622C27.4093 12.9386 27.4085 11.7151 27.343 10.4915C27.3364 10.3653 27.3135 10.2406 27.3078 10.1144C27.302 9.98822 27.2438 9.90063 27.1332 9.83756C27.0766 9.80517 27.025 9.76573 26.971 9.73107C25.805 8.97847 24.593 8.30237 23.3303 7.71227C23.2369 7.66892 23.141 7.62866 23.0107 7.57106L23.0116 7.57188ZM15.001 13.0365C14.933 13.0988 14.8731 13.1461 14.8215 13.2013C14.3889 13.6589 13.9857 14.1393 13.6276 14.6545C13.3646 15.0323 13.1302 15.4252 12.9434 15.8441C12.782 16.2054 12.6616 16.5786 12.623 16.9706C12.5517 17.6925 12.8435 18.2707 13.5088 18.6028C13.7161 18.7062 13.9398 18.7874 14.1652 18.849C14.5437 18.9531 14.9338 18.9981 15.3287 19.0099C16.2907 19.0391 17.2355 18.9168 18.1713 18.7141C18.2335 18.7006 18.2934 18.6786 18.3696 18.6557C18.3556 18.5705 18.3491 18.4971 18.3327 18.4261C18.109 17.4527 17.9246 16.4728 17.832 15.4797C17.8156 15.3013 17.7362 15.1823 17.5854 15.0773C16.7348 14.4857 15.9261 13.8451 15.1607 13.154C15.1149 13.1122 15.0608 13.0798 15.0018 13.0365H15.001ZM18.3687 6.00436C18.3163 5.97517 18.2852 5.94835 18.2499 5.94046C17.2887 5.73535 16.3194 5.59098 15.3312 5.62885C14.7535 5.65094 14.1832 5.72825 13.6506 5.96649C12.8558 6.32307 12.5149 6.9431 12.6386 7.77856C12.7254 8.36311 12.9606 8.89404 13.2564 9.40209C13.7005 10.1657 14.2594 10.8481 14.8731 11.4903C14.9133 11.5329 14.9698 11.5605 15.0223 11.5976C15.0911 11.5416 15.1419 11.5029 15.1886 11.4603C15.9359 10.7874 16.7217 10.1594 17.5535 9.58665C17.7436 9.45571 17.8173 9.30266 17.841 9.08653C17.8976 8.5856 17.9697 8.08542 18.0557 7.58846C18.1459 7.06698 18.2597 6.55029 18.3687 6.00357V6.00436ZM31.0394 11.6015C31.1008 11.5581 31.136 11.54 31.1614 11.5131C31.767 10.882 32.3192 10.2107 32.7642 9.46283C32.9797 9.10153 33.1625 8.72523 33.2919 8.32606C33.3943 8.00968 33.4443 7.68864 33.432 7.35727C33.4124 6.82477 33.1674 6.41224 32.7044 6.13058C32.5077 6.01067 32.2881 5.91758 32.0669 5.84421C31.6056 5.68959 31.1237 5.63752 30.6378 5.62649C29.7562 5.60598 28.8884 5.718 28.0288 5.89786C27.9182 5.92074 27.7895 5.90417 27.6896 6.02645C27.7019 6.09587 27.7134 6.18107 27.733 6.26469C27.9551 7.19949 28.1173 8.14459 28.2206 9.09756C28.2443 9.31766 28.3222 9.46441 28.509 9.59301C29.3399 10.1665 30.1249 10.7953 30.873 11.4666C30.9205 11.5092 30.9721 11.5479 31.0394 11.6023V11.6015ZM28.2771 15.2272C28.1878 15.8228 28.114 16.3861 28.0173 16.9446C27.9198 17.5134 27.7994 18.0782 27.6871 18.6572C27.7699 18.6809 27.8305 18.7015 27.892 18.7156C28.491 18.8553 29.1006 18.9429 29.7136 18.9886C30.3142 19.0335 30.9173 19.0359 31.5146 18.9318C31.9169 18.8616 32.3061 18.7551 32.656 18.5453C33.1469 18.251 33.4271 17.8297 33.4271 17.2649C33.4271 17.0275 33.4009 16.786 33.3509 16.5533C33.2337 16.0035 32.9707 15.5088 32.6741 15.0308C32.2554 14.3571 31.7498 13.7457 31.2007 13.1674C31.1581 13.1224 31.1074 13.0854 31.0443 13.0302C30.8091 13.2329 30.5887 13.4278 30.3642 13.6163C30.1372 13.8072 29.9086 13.9958 29.6758 14.1803C29.4431 14.3642 29.2063 14.5433 28.9679 14.7208C28.7302 14.8974 28.4902 15.0702 28.2755 15.2272H28.2771ZM23.0288 6.484C23.5966 6.26311 24.1383 6.03986 24.6897 5.84027C25.251 5.63753 25.8222 5.45766 26.3835 5.26991C26.3835 5.22731 26.39 5.20049 26.3826 5.17761C26.086 4.24594 25.7123 3.34661 25.1691 2.51986C24.9585 2.19879 24.7217 1.89822 24.4389 1.63158C24.2316 1.43672 24.0071 1.26475 23.7449 1.14168C23.2656 0.918428 22.7871 0.916853 22.3085 1.14405C22.0594 1.26238 21.8423 1.42331 21.6431 1.60791C21.2916 1.93451 21.0097 2.31238 20.7615 2.71551C20.2976 3.4681 19.9666 4.27591 19.6921 5.1074C19.6774 5.15316 19.679 5.20443 19.6716 5.26912C20.2329 5.45687 20.7909 5.63201 21.34 5.8308C21.9029 6.03434 22.4576 6.26075 23.0304 6.48319L23.0288 6.484ZM19.6774 19.3609C19.6774 19.4319 19.6708 19.4588 19.6782 19.4817C19.9559 20.3518 20.3042 21.1935 20.7926 21.9761C21.0294 22.3555 21.2998 22.7113 21.6316 23.0206C21.8398 23.2147 22.066 23.3842 22.329 23.505C22.7961 23.7195 23.2631 23.7195 23.7294 23.5034C24.0039 23.3764 24.2398 23.1973 24.4545 22.9914C24.8298 22.6324 25.1248 22.2175 25.3829 21.7765C25.7894 21.0815 26.0966 20.3455 26.3433 19.5858C26.3654 19.518 26.3744 19.4454 26.3916 19.3609C26.2753 19.3223 26.1778 19.2876 26.0786 19.2584C25.1756 18.9941 24.2964 18.6699 23.4311 18.3102C23.3467 18.2754 23.2631 18.2392 23.1795 18.2029C23.0779 18.1587 22.978 18.1571 22.8763 18.2021C22.8051 18.2336 22.7321 18.262 22.66 18.2928C21.7841 18.6628 20.8917 18.9878 19.9773 19.2576C19.8789 19.2868 19.7823 19.3239 19.6765 19.3602L19.6774 19.3609ZM17.6829 13.9389C17.6829 12.8447 17.6829 11.8413 17.6812 10.8386C17.6812 10.8197 17.6575 10.8007 17.6444 10.7818C17.2789 10.9546 16.0457 11.9652 15.7442 12.3462C16.3325 12.8929 16.9569 13.4001 17.6829 13.9389ZM19.4094 18.4009C20.1247 18.2218 20.8172 17.9678 21.5063 17.7066C21.5833 17.6775 21.6907 17.6767 21.7185 17.5741C21.7111 17.5583 21.7087 17.5426 21.7005 17.5378C20.7991 17.0329 19.8969 16.5289 18.9948 16.0263C18.9874 16.0224 18.9702 16.0326 18.9579 16.0358C18.9243 16.4318 19.2103 17.948 19.4103 18.4009H19.4094ZM30.3437 12.3186C29.7373 11.7671 29.1457 11.2725 28.5188 10.8166C28.4926 10.7976 28.45 10.8 28.4074 10.7913C28.3968 10.837 28.3811 10.871 28.3803 10.9057C28.3787 11.8516 28.3779 12.7974 28.3779 13.7433C28.3779 13.7914 28.3762 13.8459 28.477 13.8624C29.1014 13.3978 29.7177 12.8953 30.3429 12.3194L30.3437 12.3186ZM26.6637 6.24812C26.6022 6.25522 26.5629 6.25286 26.5277 6.26469C25.8369 6.49818 25.1469 6.73327 24.4578 6.97152C24.4078 6.98891 24.3693 7.03699 24.3243 7.07095C25.251 7.59003 26.154 8.09645 27.0578 8.60217C27.066 8.6069 27.0832 8.5982 27.0955 8.59587C27.1308 8.2369 26.8808 6.86345 26.6637 6.24812ZM24.2768 17.5726C24.3783 17.6278 24.4185 17.6578 24.4644 17.6735C25.1535 17.9102 25.8435 18.1453 26.5342 18.378C26.5777 18.3922 26.6309 18.3796 26.6882 18.3796C26.8849 17.6554 27.0136 16.9375 27.1193 16.2149C27.1275 16.1589 27.1144 16.0997 27.1103 16.0208C26.2802 16.4768 25.4764 16.9178 24.6717 17.3588C24.5594 17.4203 24.4455 17.481 24.2751 17.5726H24.2768ZM21.7849 7.04493C20.9794 6.7191 20.2051 6.44613 19.4078 6.2355C19.2095 6.69307 18.9268 8.1943 18.9579 8.61635C19.8847 8.10124 20.8049 7.59003 21.7849 7.04568V7.04493Z" fill="url(#paint1_linear_49_2391)"/>
<path d="M16.3017 30.6992C16.5705 30.6455 16.8474 30.573 17.1302 30.5367C17.8176 30.4499 18.5059 30.3537 19.1976 30.3094C20.23 30.2432 21.2649 30.214 22.299 30.2913C23.3208 30.3679 24.3246 30.5351 25.2882 30.8854C25.8299 31.0826 26.3437 31.3319 26.8099 31.6632C28.0128 32.5175 28.665 33.6583 28.7241 35.1035C28.747 35.6604 28.7142 36.2119 28.5676 36.7546C28.3348 37.6161 27.8555 38.3174 27.1295 38.8657C26.714 39.1797 26.2527 39.4156 25.7684 39.6135C25.6627 39.657 25.5595 39.7043 25.4267 39.7627C25.5185 39.8849 25.5923 39.9844 25.6676 40.083C26.4018 41.0351 27.1532 41.9747 27.8637 42.9426C28.3701 43.6321 28.8281 44.354 29.2927 45.0703C29.4861 45.3693 29.6418 45.6911 29.8106 46.0043C29.845 46.0682 29.8622 46.14 29.8794 46.1881C29.8581 46.2268 29.8549 46.2409 29.8459 46.2481C29.8368 46.2552 29.8212 46.2599 29.8089 46.2599C28.5126 46.2646 27.2164 46.2694 25.92 46.2725C25.8561 46.2725 25.7922 46.2622 25.7086 46.2552C24.5802 44.1993 23.2684 42.2595 21.7287 40.4719H19.6146C19.5941 40.5508 19.5671 40.6194 19.5614 40.6888C19.5524 40.8016 19.5573 40.916 19.5573 41.0296C19.5573 42.6192 19.5581 44.2088 19.5556 45.7984C19.5556 45.9459 19.5925 46.1013 19.4991 46.237C19.1804 46.2859 17.5522 46.3057 16.5148 46.2718C16.4394 46.2694 16.364 46.252 16.2837 46.2409C16.2689 46.1786 16.2468 46.1313 16.2468 46.0832C16.2468 40.9988 16.2476 35.9145 16.2509 30.8293C16.2509 30.7946 16.2763 30.7607 16.3009 30.6992H16.3017ZM19.7613 37.6666C19.8703 37.6784 19.9457 37.6934 20.021 37.6934C20.4791 37.6934 20.938 37.7053 21.3952 37.684C21.9041 37.6603 22.4129 37.6145 22.9193 37.5601C23.2717 37.5222 23.6092 37.4165 23.9247 37.2564C24.3221 37.0552 24.6213 36.7633 24.7703 36.3507C24.9736 35.7859 24.9834 35.2132 24.7868 34.6444C24.6106 34.1348 24.2394 33.7939 23.742 33.5747C23.3217 33.3893 22.8734 33.3025 22.4154 33.2551C21.605 33.1715 20.7946 33.2015 19.9842 33.2457C19.9113 33.2497 19.8399 33.2781 19.7613 33.297V37.6658V37.6666Z" fill="url(#paint2_linear_49_2391)"/>
<path d="M35.9421 37.9718C34.1935 35.4506 32.4497 32.9364 30.6856 30.3922C30.7765 30.3646 30.8314 30.3339 30.888 30.3323C31.1633 30.3268 31.4378 30.3283 31.7131 30.3283C32.6956 30.3283 33.6781 30.3283 34.6597 30.3283C34.8023 30.3283 34.9457 30.3346 35.1088 30.3378C35.3759 30.7472 35.6405 31.1519 35.9044 31.5567C36.1691 31.9621 36.4338 32.3684 36.6976 32.7747C36.9549 33.1699 37.2081 33.5683 37.4703 33.9604C37.7367 34.3587 37.9718 34.7776 38.2955 35.1824C38.6191 34.7792 38.8609 34.3635 39.1305 33.9667C39.4033 33.5659 39.6672 33.1597 39.9351 32.7558C40.1957 32.3621 40.4563 31.9692 40.7176 31.5756C40.9856 31.1724 41.2544 30.7693 41.501 30.3985C41.5477 30.3686 41.5576 30.3607 41.569 30.3552C41.5805 30.3496 41.5936 30.3449 41.6059 30.3441C41.7362 30.3386 41.8673 30.3291 41.9976 30.3291C43.1759 30.3291 44.3551 30.3315 45.5334 30.3339C45.5587 30.3339 45.585 30.3418 45.6095 30.3496C45.6202 30.3536 45.6268 30.367 45.6555 30.3978C45.6465 30.509 45.553 30.6013 45.4858 30.7015C44.6705 31.9211 43.8535 33.1391 43.0366 34.358C42.2836 35.4813 41.5314 36.6047 40.7791 37.7281C40.7021 37.8432 40.6259 37.96 40.5382 38.0933C40.6152 38.2054 40.6816 38.3118 40.757 38.4112C42.5155 40.7385 44.1412 43.1493 45.6628 45.6256C45.7497 45.7668 45.8357 45.908 45.9177 46.0516C45.9471 46.1029 45.9619 46.1612 45.9923 46.2385C45.9144 46.2528 45.866 46.2693 45.8185 46.2693C44.4189 46.2709 43.0186 46.2701 41.6034 46.2701C41.4035 45.8843 41.22 45.5088 41.0159 45.1443C40.8111 44.7783 40.5948 44.4178 40.3686 44.0636C40.1359 43.6983 39.8876 43.3417 39.6418 42.9844C39.4025 42.6381 39.1583 42.2941 38.9141 41.951C38.6708 41.6078 38.4249 41.2662 38.1636 40.8994C38.1054 40.9483 38.0496 40.9783 38.0185 41.024C37.2393 42.145 36.4494 43.2605 35.6906 44.3949C35.3653 44.8809 35.1047 45.4079 34.8154 45.9159C34.7532 46.0256 34.6941 46.136 34.6401 46.2338C34.2902 46.2851 30.7503 46.2851 30.4004 46.2338C30.4258 46.1628 30.4381 46.0894 30.475 46.0295C30.7815 45.5301 31.0887 45.0307 31.4034 44.5361C32.7464 42.4282 34.1706 40.3724 35.6602 38.3576C35.7512 38.2354 35.8388 38.1107 35.9405 37.9694L35.9421 37.9718Z" fill="url(#paint3_linear_49_2391)"/>
<path d="M8.6744 33.3529C8.6744 37.6996 8.6744 41.9975 8.6744 46.2993C8.58341 46.3206 8.53427 46.3411 8.48512 46.3411C7.34614 46.3427 6.20794 46.3427 5.05339 46.3427C5.03045 46.2567 5.00013 46.1888 4.99439 46.1186C4.98538 45.9932 4.99029 45.8662 4.99029 45.7399C4.99029 41.7774 4.99029 37.8148 4.98947 33.8523C4.98947 33.6921 5.01488 33.5272 4.93539 33.3505C4.60681 33.3221 4.28069 33.3403 3.95619 33.3371C3.64154 33.334 3.32771 33.3371 3.01305 33.3371H1.0866C0.76048 33.3371 0.433534 33.3371 0.0934777 33.3371C0.0688953 33.2614 0.0344799 33.2046 0.0344799 33.1486C0.0312023 32.265 0.0320217 31.3822 0.0336605 30.4987C0.0336605 30.4506 0.052507 30.4025 0.0672564 30.333C0.14674 30.3228 0.220487 30.3078 0.295054 30.3039C0.386828 30.2991 0.478602 30.3023 0.570377 30.3023C4.78872 30.3023 9.00704 30.3023 13.2254 30.3023C13.3803 30.3023 13.536 30.3078 13.7039 30.3102C13.7245 30.3898 13.7523 30.4482 13.7523 30.5066C13.7548 31.3902 13.7539 32.2729 13.7523 33.1565C13.7523 33.1927 13.7384 33.2298 13.7318 33.2614C13.6499 33.3616 13.5376 33.3347 13.4376 33.3356C12.8092 33.3379 12.1798 33.3371 11.5513 33.3371C10.7393 33.3371 9.92724 33.3371 9.1144 33.3371C8.98574 33.3371 8.85713 33.3458 8.67522 33.3521L8.6744 33.3529Z" fill="url(#paint4_linear_49_2391)"/>
<path d="M10.8798 52.4905C10.8512 52.6885 10.9331 52.8014 11.0323 52.9023C11.1699 53.042 11.333 53.1421 11.5362 53.1737C11.8254 53.2187 12.1106 53.18 12.3941 53.1319C12.5351 53.1082 12.6727 53.0632 12.8136 53.0364C12.8743 53.0246 12.9398 53.0348 13.0054 53.0348C13.0218 53.0751 13.0456 53.1082 13.0489 53.1437C13.0751 53.3804 13.0964 53.6179 13.1201 53.8624C12.8227 54.0628 12.4859 54.1109 12.1524 54.1551C11.959 54.1803 11.7607 54.1756 11.5649 54.178C10.8315 54.185 10.1022 53.7228 9.87116 52.9039C9.69253 52.2696 9.73594 51.6512 10.0719 51.0737C10.4431 50.4347 11.0232 50.1247 11.7845 50.1397C12.1819 50.1476 12.5121 50.3038 12.8071 50.5578C13.1988 50.8946 13.5446 51.7734 13.3947 52.4606C13.3028 52.47 13.2029 52.4897 13.1029 52.4897C12.5015 52.4929 11.9 52.4913 11.2977 52.4913C11.1675 52.4913 11.038 52.4913 10.8782 52.4913L10.8798 52.4905ZM12.3892 51.7718C12.4302 51.5999 12.3532 51.4531 12.2639 51.3151C12.0164 50.9325 11.4682 50.8852 11.1527 51.2173C11.0093 51.3679 10.9208 51.5455 10.8921 51.7498C11.1847 51.809 11.9918 51.82 12.3892 51.7718Z" fill="url(#paint5_linear_49_2391)"/>
<path d="M25.0045 53.7681C24.8733 53.8296 24.7602 53.8911 24.6406 53.9376C24.0572 54.1664 23.4492 54.2193 22.8281 54.157C22.5651 54.1301 22.3143 54.0576 22.0873 53.9243C21.7505 53.727 21.5637 53.4391 21.5342 53.0588C21.5285 52.9839 21.5277 52.9074 21.5293 52.8317C21.5367 52.4309 21.7284 52.1343 22.0865 51.9363C22.411 51.7572 22.7658 51.672 23.1362 51.6531C23.332 51.6428 23.5287 51.6554 23.7254 51.6546C23.8015 51.6546 23.8778 51.6483 23.954 51.6452C23.9474 51.2846 23.7688 51.074 23.4254 51.0614C23.1124 51.0504 22.7978 51.078 22.4847 51.0937C22.3438 51.1008 22.2037 51.1205 22.039 51.1371C22.0144 50.9919 21.9898 50.872 21.9742 50.7498C21.9603 50.6393 21.957 50.5273 21.948 50.3948C22.0349 50.3727 22.1062 50.3475 22.18 50.338C22.7142 50.2662 23.2509 50.2639 23.7876 50.2946C23.954 50.3041 24.1244 50.349 24.2809 50.4066C24.6062 50.5265 24.8185 50.7616 24.9233 51.0788C24.9667 51.2097 25.002 51.3493 25.0028 51.4858C25.0102 52.2297 25.0061 52.9736 25.0061 53.7657L25.0045 53.7681ZM23.8729 52.5193C23.6295 52.4545 23.409 52.4601 23.1895 52.4758C23.087 52.483 22.9813 52.5003 22.8854 52.5343C22.7019 52.5981 22.5987 52.7401 22.5995 52.8995C22.5995 53.0754 22.7166 53.249 22.9059 53.2932C23.2255 53.3673 23.5475 53.3657 23.8729 53.2363V52.52V52.5193Z" fill="url(#paint6_linear_49_2391)"/>
<path d="M42.3495 51.6492C42.3545 51.2816 42.1627 51.0694 41.7915 51.0615C41.4785 51.0551 41.1646 51.0844 40.8508 51.1009C40.7222 51.108 40.5943 51.1238 40.4435 51.138C40.3846 50.8887 40.3477 50.6583 40.3567 50.4004C40.4312 50.3798 40.5018 50.3515 40.5755 50.342C41.1097 50.2702 41.6465 50.2639 42.1824 50.2994C42.3733 50.312 42.5683 50.3696 42.7469 50.4414C43.0403 50.5597 43.2287 50.7877 43.3205 51.078C43.3697 51.2326 43.4025 51.3991 43.4049 51.56C43.4139 52.2409 43.4098 52.9224 43.4082 53.6032C43.4082 53.6529 43.3959 53.7026 43.3861 53.7752C43.2902 53.8233 43.191 53.8833 43.0837 53.9259C42.4765 54.1681 41.8431 54.2273 41.195 54.1554C40.9467 54.1278 40.7091 54.0545 40.4919 53.929C40.1535 53.7334 39.9675 53.4454 39.9339 53.0668C39.8781 52.4483 40.1265 52.0562 40.7279 51.8251C41.1237 51.6728 41.5391 51.6334 41.962 51.6499C42.0906 51.6547 42.2192 51.6499 42.3479 51.6499L42.3495 51.6492ZM42.2626 53.2411C42.3077 52.9895 42.3044 52.7575 42.2676 52.5154C42.0037 52.4514 41.7579 52.4601 41.5129 52.4838C41.4367 52.4909 41.3588 52.5083 41.2867 52.5343C41.113 52.5974 41.0074 52.7181 41.0024 52.9019C40.9975 53.0755 41.1212 53.2514 41.3097 53.294C41.6293 53.3674 41.9505 53.3674 42.2626 53.2411Z" fill="url(#paint7_linear_49_2391)"/>
<path d="M20.7839 54.1577H19.7777C19.6671 54.0559 19.6966 53.9368 19.6958 53.8279C19.6925 53.2986 19.6958 52.7692 19.6925 52.2391C19.6917 52.0758 19.6868 51.9109 19.6646 51.7492C19.6114 51.3595 19.4254 51.1985 19.014 51.1859C18.8591 51.1812 18.7026 51.2025 18.5683 51.2104C18.4453 51.3193 18.4773 51.4392 18.4773 51.548C18.4732 52.2667 18.474 52.9854 18.4716 53.704C18.4716 53.8405 18.4634 53.9778 18.4576 54.134C18.1217 54.2176 17.8013 54.175 17.4784 54.164C17.3744 54.0338 17.4079 53.891 17.4071 53.7577C17.4038 52.9254 17.4055 52.0932 17.4055 51.2617C17.4055 51.0849 17.4038 50.9083 17.4071 50.7323C17.4088 50.6582 17.421 50.584 17.4285 50.5067C17.6964 50.3639 17.9873 50.3442 18.2667 50.3063C18.6289 50.2566 18.9944 50.2259 19.3623 50.2645C20.1473 50.3473 20.6275 50.7734 20.7585 51.5244C20.7929 51.7224 20.8118 51.9251 20.8143 52.1263C20.8217 52.7061 20.8184 53.286 20.8159 53.8658C20.8159 53.9517 20.7979 54.037 20.7839 54.1577Z" fill="url(#paint8_linear_49_2391)"/>
<path d="M31.1248 52.2462C31.142 51.9393 31.1822 51.6403 31.2731 51.3492C31.4624 50.7458 31.8959 50.4034 32.5293 50.2922C32.7996 50.2448 33.0742 50.2361 33.3503 50.2677C34.0009 50.3426 34.4639 50.67 34.7614 51.2254C34.8891 51.4644 34.9506 51.7232 34.9769 51.9866C35.0113 52.3409 34.9662 52.6919 34.8662 53.0343C34.713 53.5605 34.3525 53.9115 33.819 54.0741C33.2536 54.246 32.6833 54.2303 32.1294 54.0093C31.909 53.9218 31.7164 53.7932 31.5525 53.6252C31.378 53.4461 31.2575 53.2378 31.2182 52.9949C31.1781 52.7464 31.1551 52.4955 31.1248 52.2454V52.2462ZM33.9592 52.2462C33.9337 52.0648 33.9222 51.8746 33.8788 51.6916C33.7863 51.2979 33.5519 51.1078 33.1364 51.0865C32.5776 51.0581 32.2859 51.3445 32.222 51.7721C32.1745 52.0868 32.1745 52.3992 32.2334 52.7124C32.3138 53.1337 32.4957 53.3049 32.9308 53.3499C33.0332 53.3609 33.1405 53.3577 33.243 53.3435C33.6166 53.2939 33.801 53.1337 33.8813 52.7771C33.9198 52.6059 33.9329 52.4292 33.9592 52.2446V52.2462Z" fill="url(#paint9_linear_49_2391)"/>
<path d="M39.225 54.1587H38.2294C38.1188 54.0688 38.1425 53.9623 38.1425 53.8652C38.1401 53.2847 38.1425 52.7048 38.1392 52.1242C38.1384 51.9735 38.136 51.8197 38.1048 51.673C38.0401 51.3621 37.868 51.2154 37.5386 51.1925C37.3583 51.1807 37.1756 51.2004 37.0175 51.2051C36.8848 51.3321 36.9183 51.4639 36.9175 51.5854C36.9126 52.2914 36.9126 52.9983 36.911 53.7043C36.911 53.8416 36.911 53.9789 36.911 54.1295C36.566 54.2218 36.2439 54.1705 35.9088 54.169C35.8891 54.1003 35.8588 54.0427 35.8588 53.9852C35.8555 52.8752 35.8564 51.7653 35.8572 50.6553C35.8572 50.6064 35.8719 50.5575 35.8809 50.5007C36.0948 50.3831 36.3325 50.3697 36.5611 50.3319C37.0011 50.2601 37.4436 50.2198 37.8902 50.2743C38.5547 50.3555 38.9972 50.7208 39.1635 51.3408C39.2094 51.5105 39.2446 51.688 39.2479 51.8623C39.2594 52.5684 39.2561 53.2751 39.2569 53.9812C39.2569 54.0293 39.2405 54.0767 39.2258 54.1579L39.225 54.1587Z" fill="url(#paint10_linear_49_2391)"/>
<path d="M3.31522 54.1463C3.20133 54.1612 3.13905 54.1762 3.07595 54.177C2.82767 54.1802 2.58021 54.1778 2.31882 54.1778C2.29669 54.1037 2.26473 54.0461 2.26473 53.9892C2.26228 52.8666 2.2631 51.7449 2.26473 50.6223C2.26473 50.586 2.2803 50.5497 2.29096 50.4992C2.52859 50.3635 2.80883 50.3501 3.07431 50.3123C3.47501 50.2547 3.8798 50.2208 4.28705 50.2728C4.96225 50.3588 5.41456 50.7359 5.57271 51.3764C5.62351 51.5839 5.65629 51.7993 5.66039 52.0123C5.67186 52.6552 5.66612 53.2982 5.6653 53.9419C5.6653 54.0027 5.6522 54.0626 5.644 54.1328C5.46455 54.1952 5.29411 54.1676 5.12777 54.1715C4.95897 54.1754 4.78935 54.1723 4.64677 54.1723C4.5255 54.0729 4.5509 53.9656 4.5509 53.8686C4.54844 53.3014 4.55336 52.7334 4.5468 52.1662C4.54435 51.991 4.52386 51.8143 4.4919 51.6415C4.44192 51.3733 4.26329 51.2258 3.98223 51.195C3.7741 51.1722 3.56761 51.1792 3.34391 51.2424C3.33571 51.3599 3.32096 51.4696 3.32014 51.58C3.31686 52.2987 3.31686 53.0174 3.31604 53.7368C3.31604 53.8615 3.31604 53.9861 3.31604 54.1478L3.31522 54.1463Z" fill="url(#paint11_linear_49_2391)"/>
<path d="M9.15658 53.2253C9.23447 53.4896 9.30164 53.7176 9.37378 53.9645C9.30245 54.0055 9.24348 54.056 9.17467 54.0749C8.76573 54.1901 8.34702 54.2059 7.92832 54.153C7.61118 54.1128 7.3236 53.9874 7.07692 53.7886C6.79507 53.5614 6.61316 53.2774 6.59022 52.9137C6.58449 52.8253 6.5763 52.737 6.5763 52.6494C6.57548 51.6397 6.57548 50.6298 6.5763 49.6201C6.5763 49.5459 6.59104 49.4718 6.59841 49.4055C6.86797 49.2943 7.33261 49.2256 7.65296 49.2493C7.76443 49.5964 7.63003 49.9696 7.73985 50.3443C8.14545 50.3861 8.55023 50.338 8.96402 50.375C9.05911 50.6377 9.03781 50.891 8.98047 51.1686C8.55761 51.2191 8.1389 51.1592 7.71364 51.2097C7.70053 51.3059 7.68251 51.3777 7.68251 51.4503C7.67924 51.8289 7.68087 52.2076 7.68087 52.5863C7.68087 52.6115 7.68169 52.6368 7.68333 52.662C7.71282 53.0896 7.96026 53.3239 8.4118 53.3294C8.56662 53.3318 8.72313 53.2963 8.87801 53.275C8.95419 53.2647 9.02962 53.2474 9.15658 53.2237V53.2253Z" fill="url(#paint12_linear_49_2391)"/>
<path d="M28.5535 54.0221C27.9529 54.2028 27.3891 54.2485 26.8196 54.0821C26.5402 54 26.2952 53.8541 26.1018 53.6395C25.9076 53.4242 25.7847 53.1788 25.7757 52.8877C25.774 52.8372 25.7683 52.7868 25.7683 52.737C25.7683 51.6783 25.7683 50.6197 25.7691 49.561C25.7691 49.5113 25.7806 49.4624 25.7855 49.419C26.0223 49.3038 26.4493 49.2328 26.8344 49.2462C26.9491 49.5917 26.8262 49.9617 26.9147 50.3302C27.3252 50.4153 27.7463 50.3183 28.1684 50.3893C28.256 50.6363 28.2208 50.8816 28.193 51.1458C28.1118 51.1616 28.0389 51.1877 27.9652 51.1892C27.7037 51.1948 27.4416 51.19 27.1801 51.194C27.0917 51.1948 27.004 51.209 26.9409 51.2145C26.9097 51.2492 26.8942 51.2587 26.8942 51.2681C26.8917 51.7841 26.8893 52.3 26.8885 52.8151C26.8885 52.9997 26.999 53.1181 27.1515 53.208C27.3121 53.3034 27.4883 53.3508 27.6759 53.3334C27.8185 53.3208 27.9594 53.29 28.1012 53.2703C28.1758 53.2601 28.2511 53.2569 28.3397 53.249C28.4363 53.4951 28.5076 53.7318 28.5535 54.0221Z" fill="url(#paint13_linear_49_2391)"/>
<path d="M44.3506 48.7885C44.694 48.7089 45.0069 48.6387 45.3298 48.6387C45.4043 48.7878 45.3757 48.9281 45.3757 49.0646C45.3781 50.2488 45.3773 51.4336 45.3773 52.6178C45.3773 52.7313 45.374 52.8449 45.383 52.9578C45.4002 53.1684 45.474 53.2536 45.6789 53.3033C45.778 53.327 45.8796 53.3412 45.9903 53.3617C46.0206 53.6473 45.9288 53.8926 45.8493 54.1474C45.5224 54.2121 45.2184 54.164 44.925 54.0449C44.6833 53.9463 44.5235 53.7688 44.4293 53.5352C44.358 53.357 44.3342 53.1708 44.3342 52.9791C44.335 51.6687 44.3342 50.3584 44.3351 49.0481C44.3351 48.9739 44.3441 48.899 44.3506 48.7885Z" fill="url(#paint14_linear_49_2391)"/>
<path d="M0.0478627 54.1489C0.0355714 54.0754 0.0183638 54.0155 0.0159056 53.9555C-0.0201486 53.1872 0.00607255 49.5654 0.0519598 49.2459C0.375628 49.1646 0.709129 49.2152 1.06066 49.2105C1.07705 49.3177 1.10163 49.4013 1.10163 49.4857C1.10409 50.9483 1.10409 52.411 1.10245 53.8743C1.10245 53.9595 1.0877 54.0447 1.07869 54.1457C0.727156 54.2009 0.396114 54.1962 0.0478627 54.1504V54.1489Z" fill="url(#paint15_linear_49_2391)"/>
<path d="M14.3088 54.1488C14.2981 54.077 14.2825 54.0171 14.2825 53.9579C14.2809 52.8629 14.2817 51.7671 14.2817 50.688C14.9217 50.3204 16.3507 50.2454 17.0268 50.5412C17.0104 50.8197 16.9489 51.095 16.8514 51.3893C16.6744 51.3554 16.5113 51.3151 16.3466 51.2954C16.1918 51.2772 16.0336 51.2749 15.8771 51.2757C15.7083 51.2757 15.5371 51.2725 15.3584 51.3585C15.3519 51.4673 15.3404 51.5778 15.3404 51.6883C15.3388 52.3691 15.3396 53.0491 15.3396 53.7299C15.3396 53.8545 15.3396 53.9792 15.3396 54.0967C15.1683 54.2253 14.9921 54.1701 14.8291 54.1756C14.6627 54.1819 14.4932 54.1922 14.3096 54.1488H14.3088Z" fill="url(#paint16_linear_49_2391)"/>
<path d="M30.225 54.152C29.8989 54.2017 29.59 54.1867 29.2606 54.1631C29.245 54.0944 29.2213 54.036 29.2213 53.9777C29.2188 52.8298 29.2196 51.682 29.2213 50.5341C29.2213 50.4861 29.2368 50.4379 29.2483 50.3709C29.5752 50.3164 29.8932 50.3236 30.225 50.3653C30.239 50.4403 30.2578 50.5002 30.2611 50.561C30.293 51.1905 30.2693 53.8349 30.225 54.152Z" fill="url(#paint17_linear_49_2391)"/>
<path d="M30.3759 49.3676C30.3784 49.7486 30.1064 50.0161 29.7221 50.0097C29.3607 50.0034 29.0935 49.736 29.0911 49.3787C29.0886 49.0103 29.3812 48.7215 29.7491 48.7302C30.108 48.7389 30.3727 49.0079 30.3751 49.3676H30.3759Z" fill="url(#paint18_linear_49_2391)"/>
<path d="M25.3332 12.3436C25.3234 13.5593 24.2869 14.5541 23.0233 14.5431C21.6869 14.532 20.7126 13.482 20.7232 12.2939C20.7331 11.2092 21.6139 10.0922 23.0356 10.0977C24.5065 10.1032 25.3684 11.2794 25.334 12.3436H25.3332ZM23.0381 13.5664C23.7575 13.5633 24.3327 13.0016 24.3262 12.3089C24.3196 11.6163 23.7354 11.0625 23.0184 11.0672C22.3063 11.0728 21.7106 11.6447 21.727 12.3279C21.745 13.1065 22.412 13.5877 23.0389 13.5664H23.0381Z" fill="url(#paint19_linear_49_2391)"/>
</g>
<defs>
<linearGradient id="paint0_linear_49_2391" x1="11.6125" y1="0.00146484" x2="39.0307" y2="7.20192" gradientUnits="userSpaceOnUse">
<stop stop-color="#6B3BAB"/>
<stop offset="1" stop-color="#2B1845"/>
</linearGradient>
<linearGradient id="paint1_linear_49_2391" x1="11.6125" y1="0.00146484" x2="39.0308" y2="7.20194" gradientUnits="userSpaceOnUse">
<stop stop-color="#6B3BAB"/>
<stop offset="1" stop-color="#2B1845"/>
</linearGradient>
<linearGradient id="paint2_linear_49_2391" x1="16.2468" y1="30.2451" x2="32.7833" y2="34.2259" gradientUnits="userSpaceOnUse">
<stop stop-color="#6B3BAB"/>
<stop offset="1" stop-color="#2B1845"/>
</linearGradient>
<linearGradient id="paint3_linear_49_2391" x1="30.4004" y1="30.3281" x2="48.9832" y2="35.4763" gradientUnits="userSpaceOnUse">
<stop stop-color="#6B3BAB"/>
<stop offset="1" stop-color="#2B1845"/>
</linearGradient>
<linearGradient id="paint4_linear_49_2391" x1="0.0322266" y1="30.3013" x2="16.6645" y2="34.3318" gradientUnits="userSpaceOnUse">
<stop stop-color="#6B3BAB"/>
<stop offset="1" stop-color="#2B1845"/>
</linearGradient>
<linearGradient id="paint5_linear_49_2391" x1="9.76758" y1="50.1392" x2="14.177" y2="51.272" gradientUnits="userSpaceOnUse">
<stop stop-color="#6B3BAB"/>
<stop offset="1" stop-color="#2B1845"/>
</linearGradient>
<linearGradient id="paint6_linear_49_2391" x1="21.5286" y1="50.2759" x2="25.7255" y2="51.335" gradientUnits="userSpaceOnUse">
<stop stop-color="#6B3BAB"/>
<stop offset="1" stop-color="#2B1845"/>
</linearGradient>
<linearGradient id="paint7_linear_49_2391" x1="39.9263" y1="50.2783" x2="44.1292" y2="51.3405" gradientUnits="userSpaceOnUse">
<stop stop-color="#6B3BAB"/>
<stop offset="1" stop-color="#2B1845"/>
</linearGradient>
<linearGradient id="paint8_linear_49_2391" x1="17.4026" y1="50.2471" x2="21.5369" y2="51.2632" gradientUnits="userSpaceOnUse">
<stop stop-color="#6B3BAB"/>
<stop offset="1" stop-color="#2B1845"/>
</linearGradient>
<linearGradient id="paint9_linear_49_2391" x1="31.1248" y1="50.249" x2="35.7279" y2="51.5273" gradientUnits="userSpaceOnUse">
<stop stop-color="#6B3BAB"/>
<stop offset="1" stop-color="#2B1845"/>
</linearGradient>
<linearGradient id="paint10_linear_49_2391" x1="35.8564" y1="50.249" x2="39.9736" y2="51.2568" gradientUnits="userSpaceOnUse">
<stop stop-color="#6B3BAB"/>
<stop offset="1" stop-color="#2B1845"/>
</linearGradient>
<linearGradient id="paint11_linear_49_2391" x1="2.26318" y1="50.2471" x2="6.38393" y2="51.2579" gradientUnits="userSpaceOnUse">
<stop stop-color="#6B3BAB"/>
<stop offset="1" stop-color="#2B1845"/>
</linearGradient>
<linearGradient id="paint12_linear_49_2391" x1="6.57568" y1="49.2446" x2="10.0762" y2="49.8066" gradientUnits="userSpaceOnUse">
<stop stop-color="#6B3BAB"/>
<stop offset="1" stop-color="#2B1845"/>
</linearGradient>
<linearGradient id="paint13_linear_49_2391" x1="25.7683" y1="49.2446" x2="29.2537" y2="49.8013" gradientUnits="userSpaceOnUse">
<stop stop-color="#6B3BAB"/>
<stop offset="1" stop-color="#2B1845"/>
</linearGradient>
<linearGradient id="paint14_linear_49_2391" x1="44.3342" y1="48.6387" x2="46.4517" y2="48.8187" gradientUnits="userSpaceOnUse">
<stop stop-color="#6B3BAB"/>
<stop offset="1" stop-color="#2B1845"/>
</linearGradient>
<linearGradient id="paint15_linear_49_2391" x1="-0.000976563" y1="49.1992" x2="1.41095" y2="49.2878" gradientUnits="userSpaceOnUse">
<stop stop-color="#6B3BAB"/>
<stop offset="1" stop-color="#2B1845"/>
</linearGradient>
<linearGradient id="paint16_linear_49_2391" x1="14.2815" y1="50.3589" x2="17.6645" y2="51.047" gradientUnits="userSpaceOnUse">
<stop stop-color="#6B3BAB"/>
<stop offset="1" stop-color="#2B1845"/>
</linearGradient>
<linearGradient id="paint17_linear_49_2391" x1="29.2197" y1="50.332" x2="30.5669" y2="50.4366" gradientUnits="userSpaceOnUse">
<stop stop-color="#6B3BAB"/>
<stop offset="1" stop-color="#2B1845"/>
</linearGradient>
<linearGradient id="paint18_linear_49_2391" x1="29.0911" y1="48.73" x2="30.6166" y2="49.1638" gradientUnits="userSpaceOnUse">
<stop stop-color="#6B3BAB"/>
<stop offset="1" stop-color="#2B1845"/>
</linearGradient>
<linearGradient id="paint19_linear_49_2391" x1="20.7231" y1="10.0977" x2="26.171" y2="11.6988" gradientUnits="userSpaceOnUse">
<stop stop-color="#6B3BAB"/>
<stop offset="1" stop-color="#2B1845"/>
</linearGradient>
</defs>
</svg>
