<svg width="49" height="65" viewBox="0 0 49 65" fill="none" xmlns="http://www.w3.org/2000/svg">
<path d="M1.59207 58.2687C5.25655 60.4034 10.7141 63.6409 11.5538 64.1106C13.1334 64.9787 14.9763 65 16.5346 65H49.0097V0H-0.00891745V55.7499C-0.0151894 56.123 0.0605855 56.4929 0.213051 56.8335C0.365516 57.1741 0.590947 57.477 0.873402 57.7209C1.09207 57.9294 1.33308 58.1131 1.59207 58.2687Z" fill="url(#paint0_linear_1_5374)"/>
<path d="M30.1607 7.94089C30.1607 12.7701 32.0791 17.4015 35.4938 20.8163C38.9086 24.231 43.54 26.1494 48.3692 26.1494H49.0096V0H31.9822C30.7795 2.47416 30.1566 5.1899 30.1607 7.94089Z" fill="#D5E0D5"/>
<path d="M1.59192 58.2687C5.31332 60.4602 10.6357 63.5626 11.5536 64.1105C9.74627 63.0574 6.57276 55.9917 6.57276 55.9917C5.34178 56.3404 3.20714 59.6064 0.880371 57.7279C1.09717 57.9335 1.33577 58.1148 1.59192 58.2687Z" fill="url(#paint1_linear_1_5374)"/>
<path d="M9.34082 26.1566C9.34082 26.0151 9.39704 25.8793 9.49713 25.7792C9.59721 25.6792 9.73295 25.6229 9.87448 25.6229H40.158C40.2995 25.6229 40.4353 25.6792 40.5354 25.7792C40.6354 25.8793 40.6917 26.0151 40.6917 26.1566C40.6898 26.2976 40.633 26.4322 40.5333 26.5319C40.4336 26.6316 40.299 26.6884 40.158 26.6903H9.87448C9.73352 26.6884 9.59885 26.6316 9.49916 26.5319C9.39948 26.4322 9.34266 26.2976 9.34082 26.1566ZM9.87448 31.9913H40.158C40.299 31.9895 40.4336 31.9326 40.5333 31.833C40.633 31.7333 40.6898 31.5986 40.6917 31.4576C40.6917 31.3161 40.6354 31.1804 40.5354 31.0803C40.4353 30.9802 40.2995 30.924 40.158 30.924H9.87448C9.73295 30.924 9.59721 30.9802 9.49713 31.0803C9.39704 31.1804 9.34082 31.3161 9.34082 31.4576C9.34266 31.5986 9.39948 31.7333 9.49916 31.833C9.59885 31.9326 9.73352 31.9895 9.87448 31.9913ZM9.87448 37.2852H40.158C40.2995 37.2852 40.4353 37.229 40.5354 37.1289C40.6354 37.0288 40.6917 36.8931 40.6917 36.7516C40.6898 36.6106 40.633 36.4759 40.5333 36.3762C40.4336 36.2766 40.299 36.2197 40.158 36.2179H9.87448C9.73352 36.2197 9.59885 36.2766 9.49916 36.3762C9.39948 36.4759 9.34266 36.6106 9.34082 36.7516C9.34082 36.8931 9.39704 37.0288 9.49713 37.1289C9.59721 37.229 9.73295 37.2852 9.87448 37.2852ZM9.87448 42.5863H40.158C40.2995 42.5863 40.4353 42.53 40.5354 42.43C40.6354 42.3299 40.6917 42.1941 40.6917 42.0526C40.6898 41.9116 40.633 41.777 40.5333 41.6773C40.4336 41.5776 40.299 41.5208 40.158 41.5189H9.87448C9.73352 41.5208 9.59885 41.5776 9.49916 41.6773C9.39948 41.777 9.34266 41.9116 9.34082 42.0526C9.34082 42.1941 9.39704 42.3299 9.49713 42.43C9.59721 42.53 9.73295 42.5863 9.87448 42.5863ZM9.87448 47.9229H32.9216C33.0625 47.921 33.1972 47.8642 33.2969 47.7645C33.3966 47.6649 33.4534 47.5302 33.4552 47.3892C33.4552 47.2477 33.399 47.1119 33.2989 47.0119C33.1988 46.9118 33.0631 46.8556 32.9216 46.8556H9.87448C9.73295 46.8556 9.59721 46.9118 9.49713 47.0119C9.39704 47.1119 9.34082 47.2477 9.34082 47.3892C9.34266 47.5302 9.39948 47.6649 9.49916 47.7645C9.59885 47.8642 9.73352 47.921 9.87448 47.9229ZM15.0617 14.2951H16.008C15.9471 13.8201 15.7739 13.3664 15.5028 12.9716C15.2233 12.566 14.8433 12.2399 14.3999 12.0252C13.9069 11.7819 13.3629 11.66 12.8132 11.6695C12.1767 11.6588 11.551 11.8344 11.013 12.1747C10.48 12.5087 10.0531 12.9875 9.78198 13.5551C9.49138 14.1866 9.34091 14.8736 9.34091 15.5687C9.34091 16.2639 9.49138 16.9509 9.78198 17.5824C10.0493 18.1638 10.4762 18.6572 11.013 19.0055C11.551 19.3458 12.1767 19.5214 12.8132 19.5107C13.3685 19.5223 13.9181 19.3977 14.4142 19.1478C14.8783 18.8881 15.2604 18.5036 15.5171 18.0378C15.7837 17.6055 15.9513 17.1195 16.008 16.6147H15.0617C15.0433 16.9532 14.951 17.2835 14.7913 17.5824C14.6262 17.8933 14.3804 18.1538 14.0797 18.3367C13.6976 18.5419 13.268 18.6426 12.8345 18.6284C12.3247 18.6488 11.8231 18.4958 11.4114 18.1944C11.0336 17.8952 10.7476 17.4957 10.586 17.0417C10.4043 16.5596 10.3126 16.0483 10.3156 15.5332C10.3126 15.0227 10.4043 14.516 10.586 14.0389C10.754 13.5904 11.045 13.1982 11.4257 12.9076C11.8394 12.6111 12.3401 12.4609 12.8488 12.4806C13.136 12.459 13.4247 12.4958 13.6974 12.5887C13.9701 12.6817 14.2212 12.8289 14.4355 13.0214C14.7589 13.3653 14.9763 13.7952 15.0617 14.2595V14.2951ZM16.7338 11.8189L19.3594 19.3257H20.3983L23.0239 11.8189H22.0277L19.8931 18.3794L17.7584 11.8189H16.7338Z" fill="url(#paint2_linear_1_5374)"/>
<defs>
<linearGradient id="paint0_linear_1_5374" x1="30.2746" y1="20.3716" x2="9.19852" y2="64.63" gradientUnits="userSpaceOnUse">
<stop offset="0.58" stop-color="#E4EBE4"/>
<stop offset="0.73" stop-color="#E1E9E1"/>
<stop offset="0.82" stop-color="#D9E2D9"/>
<stop offset="0.91" stop-color="#CAD7CA"/>
<stop offset="0.93" stop-color="#C3D2C3"/>
</linearGradient>
<linearGradient id="paint1_linear_1_5374" x1="8.75722" y1="57.8417" x2="5.35601" y2="61.9758" gradientUnits="userSpaceOnUse">
<stop offset="0.22" stop-color="white"/>
<stop offset="0.7" stop-color="#E2EAE2"/>
<stop offset="1" stop-color="#D5E0D5"/>
</linearGradient>
<linearGradient id="paint2_linear_1_5374" x1="9.34082" y1="31.2817" x2="40.6917" y2="31.2817" gradientUnits="userSpaceOnUse">
<stop stop-color="#864EFF"/>
<stop offset="1" stop-color="#502F99"/>
</linearGradient>
</defs>
</svg>
